<svg xmlns="http://www.w3.org/2000/svg" width="156" height="156" viewBox="0 0 156 156" fill="none">
  <rect width="156" height="156" fill="#F5F5F5"/>
  <path d="M68.6999 28.5482C69.3571 28.512 70.2109 28.5104 70.8452 28.7049C83.6761 32.6292 96.2127 37.43 108.977 41.5617C114.266 43.2738 119.487 45.0917 124.654 47.1468C125.381 47.4362 126.573 47.8584 127.164 48.384C128.61 49.6707 129.509 51.8682 129.711 53.7752C129.872 55.5806 129.469 57.1717 128.726 58.7779C125.613 65.5851 122.018 72.2344 118.442 78.8015L101.818 109.14C99.5587 113.316 97.343 117.516 95.1735 121.74C93.376 125.264 91.3897 129.646 89.0698 132.788C88.0679 134.145 86.4262 134.878 84.7296 135.018C83.0056 135.024 81.2289 134.451 79.6114 133.89C67.2558 129.598 55.2149 124.371 43.0117 119.628C39.7658 118.393 36.5106 117.182 33.2465 115.996C31.5151 115.354 28.5611 114.427 27.1385 113.444C24.5869 111.681 23.0731 107.697 23.934 104.684C24.8435 101.5 27.3652 98.6633 28.7847 95.6641C34.5881 84.2117 41.2585 73.2674 47.4708 62.0318C51.3133 55.1127 55.1146 48.1706 58.8743 41.2061C59.8755 39.3475 60.8541 37.477 61.8097 35.5946C63.5598 32.1636 64.5112 29.276 68.6999 28.5482Z" fill="#1C1D24"/>
  <path d="M68.4225 29.7441C70.5368 29.5556 72.4958 30.4597 74.496 31.0947C77.4846 32.0302 80.4597 33.0113 83.4182 34.0377L102.162 40.5376C108.488 42.6909 114.924 44.6397 121.121 47.1052C122.491 47.6498 124.833 48.3765 126.052 49.0601C127.124 51.2144 126.6 52.7936 125.634 54.8452C124.375 57.5173 122.632 60.0058 121.17 62.5744C118.707 66.968 116.31 71.3982 113.98 75.863L95.0693 111.54C92.7164 116.018 90.4865 120.521 88.1798 125.016C87.0243 127.268 85.8424 128.946 83.3195 129.693C82.4481 129.822 80.9315 129.688 80.1227 129.34C73.9964 126.705 67.8617 124.297 61.6121 121.97C53.2157 118.902 44.8658 115.708 36.5652 112.39C33.425 111.146 30.1544 110.095 27.1008 108.671C26.2703 108.315 25.4364 107.651 25.1731 106.737C24.5628 104.618 26.3442 102.136 27.4055 100.437C30.0315 96.2351 32.1218 91.7588 34.4939 87.4175C36.9449 82.9917 39.4486 78.5956 42.0046 74.23C49.574 61.0128 56.8766 47.6446 63.9078 34.1333C65.1387 31.7872 65.7841 30.567 68.4225 29.7441Z" fill="#F5F5F5"/>
  <path d="M105.35 52.0007C106.275 51.9901 107.955 52.4619 108.439 53.3278C108.708 53.8105 108.532 54.2172 108.401 54.7087C108.854 55.1765 109.2 55.6345 109.6 56.1457C109.953 56.0989 110.748 55.9618 111.02 56.2025C111.83 56.9191 112.319 58.7737 111.788 59.7593C111.533 60.2313 110.907 60.33 110.451 60.4489C110.281 61.1001 110.093 61.5325 109.838 62.1544C110.052 62.4039 110.437 62.8281 110.458 63.1562C110.54 64.4392 108.984 65.7262 107.78 65.7727C107.274 65.7923 106.941 65.3582 106.648 65.0379C105.827 65.2702 105.611 65.3235 104.758 65.3848C104.465 66.0538 104.38 66.2455 103.808 66.6993C102.827 66.708 101.204 66.3227 100.628 65.455C100.307 64.9717 100.507 64.4574 100.635 63.9504C100.172 63.4824 99.8243 63.0131 99.4215 62.4939C99.077 62.5267 98.1738 62.6531 97.9422 62.4412C97.1203 61.6906 96.6923 59.9248 97.2564 58.9272C97.511 58.4779 98.0915 58.4092 98.5436 58.303C98.7027 57.6818 98.9332 57.1312 99.1636 56.5338C98.3724 55.5152 98.4822 54.748 99.3908 53.878C100.63 52.6911 101.421 52.6897 102.512 53.7694C103.076 53.5831 103.766 53.4659 104.355 53.3457C104.68 52.657 104.748 52.4694 105.35 52.0007Z" fill="#1C1D24"/>
  <path d="M103.88 56.7701C104.806 56.5421 105.784 56.8304 106.438 57.5246C107.093 58.2188 107.323 59.2115 107.041 60.1229C106.759 61.0344 106.008 61.7234 105.076 61.9264C103.661 62.2347 102.262 61.3488 101.935 59.9383C101.606 58.5277 102.474 57.116 103.88 56.7701Z" fill="#1C1D24"/>
  <path d="M129.942 107.358C130.223 107.414 130.237 107.445 130.489 107.593C130.742 107.946 130.698 108.37 130.714 108.817L130.888 108.822C131.749 108.851 133.736 109.039 134.1 109.79C134.833 111.298 134.416 114.412 134.467 116.069C134.53 118.151 134.596 119.746 134.536 121.778C134.622 122.651 133.967 123.972 132.929 124.009C129.241 124.136 124.68 124.545 121.045 124.177C120.06 124.058 119.676 124.021 118.804 123.499C118.646 123.124 118.131 121.926 118.11 121.57C117.916 118.133 117.98 114.602 118.179 111.165C118.312 108.889 120.068 109.116 121.779 109.041C121.783 108.45 121.688 107.634 122.472 107.586C123.02 107.964 122.930 108.351 122.944 108.977C124.827 108.753 127.420 108.798 129.369 108.771C129.654 108.364 129.524 107.949 129.942 107.358Z" fill="#1C1D24"/>
  <path d="M119.214 113.792C120.905 113.959 123.394 113.880 125.135 113.871C127.855 113.861 130.575 113.869 133.296 113.896C133.151 115.722 133.816 121.654 132.995 122.832C132.741 122.875 130.862 122.895 130.548 122.904C128.296 122.964 121.417 123.520 119.639 122.583C118.866 121.670 119.199 115.351 119.214 113.792Z" fill="#F5F5F5"/>
  <path d="M122.812 17.8926C124.396 17.7977 125.963 18.1203 127.148 19.2365C131.791 23.6087 127.126 31.0596 123.846 34.5943C122.783 34.7703 121.782 33.1988 121.242 32.388C119.013 29.0351 115.988 24.3861 118.598 20.4207C119.593 18.9109 121.102 18.2012 122.812 17.8926Z" fill="#1C1D24"/>
  <path d="M123.137 21.3504C124.468 21.224 125.653 22.1962 125.786 23.5265C125.921 24.8569 124.956 26.0462 123.627 26.1886C122.286 26.3322 121.084 25.3571 120.948 24.0153C120.813 22.6736 121.795 21.4778 123.137 21.3504Z" fill="#1C1D24"/>
  <path d="M25.3175 52.1323C28.9087 51.7357 31.7334 53.3308 32.4115 57.0609C32.7723 59.0459 31.4546 59.1719 29.8371 59.3792C29.0732 59.4771 28.2434 59.4936 27.4676 59.5341C26.1717 59.5754 19.9789 59.5305 19.8564 58.0113C19.5854 54.6503 22.3105 52.6732 25.3175 52.1323Z" fill="#1C1D24"/>
  <path d="M26.1004 43.8994C28.1286 43.7324 29.9097 45.2381 30.0824 47.2658C30.2552 49.2936 28.7545 51.0788 26.7271 51.2574C24.6917 51.4365 22.8978 49.9286 22.7243 47.8926C22.5509 45.8567 24.064 44.0669 26.1004 43.8994Z" fill="#1C1D24"/>
</svg>
