<svg xmlns="http://www.w3.org/2000/svg" width="156" height="156" viewBox="0 0 156 156" fill="none">
  <rect width="156" height="156" fill="#F5F5F5"/>
  <path d="M68.6999 28.5482C69.3571 28.512 70.2109 28.5104 70.8452 28.7049C83.6761 32.6292 96.2127 37.43 108.977 41.5617C114.266 43.2738 119.487 45.0917 124.654 47.1468C125.381 47.4362 126.573 47.8584 127.164 48.384C128.61 49.6707 129.509 51.8682 129.711 53.7752C129.872 55.5806 129.469 57.1717 128.726 58.7779C125.613 65.5851 122.018 72.2344 118.442 78.8015L101.818 109.14C99.5587 113.316 97.343 117.516 95.1735 121.74C93.376 125.264 91.3897 129.646 89.0698 132.788C88.0679 134.145 86.4262 134.878 84.7296 135.018C83.0056 135.024 81.2289 134.451 79.6114 133.890C67.2558 129.598 55.2149 124.371 43.0117 119.628C39.7658 118.393 36.5106 117.182 33.2465 115.996C31.5151 115.354 28.5611 114.427 27.1385 113.444C24.5869 111.681 23.0731 107.697 23.934 104.684C24.8435 101.500 27.3652 98.6633 28.7847 95.6641C34.5881 84.2117 41.2585 73.2674 47.4708 62.0318C51.3133 55.1127 55.1146 48.1706 58.8743 41.2061C59.8755 39.3475 60.8541 37.477 61.8097 35.5946C63.5598 32.1636 64.5112 29.276 68.6999 28.5482Z" fill="#1C1D24"/>
  <path d="M68.4225 29.7441C70.5368 29.5556 72.4958 30.4597 74.496 31.0947C77.4846 32.0302 80.4597 33.0113 83.4182 34.0377L102.162 40.5376C108.488 42.6909 114.924 44.6397 121.121 47.1052C122.491 47.6498 124.833 48.3765 126.052 49.0601C127.124 51.2144 126.6 52.7936 125.634 54.8452C124.375 57.5173 122.632 60.0058 121.170 62.5744C118.707 66.968 116.310 71.3982 113.980 75.8630L95.0693 111.540C92.7164 116.018 90.4865 120.521 88.1798 125.016C87.0243 127.268 85.8424 128.946 83.3195 129.693C82.4481 129.822 80.9315 129.688 80.1227 129.340C73.9964 126.705 67.8617 124.297 61.6121 121.970C53.2157 118.902 44.8658 115.708 36.5652 112.390C33.4250 111.146 30.1544 110.095 27.1008 108.671C26.2703 108.315 25.4364 107.651 25.1731 106.737C24.5628 104.618 26.3442 102.136 27.4055 100.437C30.0315 96.2351 32.1218 91.7588 34.4939 87.4175C36.9449 82.9917 39.4486 78.5956 42.0046 74.2300C49.5740 61.0128 56.8766 47.6446 63.9078 34.1333C65.1387 31.7872 65.7841 30.567 68.4225 29.7441Z" fill="#F5F5F5"/>
  <path d="M69.5942 35.9169L69.4608 35.8747C69.0772 35.7491 68.9297 35.7412 68.6862 35.4218L68.7059 35.2315C70.1554 34.3359 79.4237 37.908 81.376 38.6148C85.3705 40.0885 89.3848 41.508 93.4177 42.8731C98.1672 44.472 102.932 46.0247 107.712 47.5309C110.335 48.3686 119.488 50.9278 120.856 52.944L121.128 53.1361C121.406 54.0581 119.594 57.8938 119.103 58.895C110.547 76.3412 100.867 93.2586 91.5126 110.288C89.7634 113.473 88.1173 116.659 86.469 119.926C86.1497 120.736 84.8449 122.702 83.9274 122.780C83.1757 122.842 81.0237 122.107 80.2534 121.794C72.6795 118.720 65.2664 115.359 57.6619 112.338C53.3812 110.641 49.0782 109.001 44.7538 107.418C43.2592 106.863 31.0317 102.669 31.7195 101.060C35.878 91.3327 41.5956 81.9445 46.7814 72.7115L55.9396 56.2925C59.4521 49.9671 62.7756 43.5398 66.3767 37.2646C66.6552 36.7793 67.5365 35.3258 68.129 35.4979C68.2856 35.8455 68.2142 35.9761 68.1331 36.3269C68.6109 36.2142 69.1196 36.055 69.5942 35.9169Z" fill="#1C1D24"/>
  <path d="M69.5941 35.9169L69.4608 35.8747C69.0772 35.7491 68.9297 35.7412 68.6862 35.4218L68.7059 35.2315C70.1554 34.3359 79.4237 37.908 81.376 38.6148C85.3705 40.0885 89.3848 41.508 93.4177 42.8731C98.1672 44.472 102.932 46.0247 107.712 47.5309C110.335 48.3686 119.488 50.9278 120.856 52.944L121.128 53.1361C120.609 53.4303 120.408 53.7343 120.118 54.2705C118.736 56.8371 117.489 59.5342 116.191 62.1474C114.196 66.1180 112.140 70.0582 110.026 73.9664C108.851 73.2192 105.180 71.8746 103.650 71.2761L88.7867 65.6186C89.9839 63.4562 91.0330 61.1976 92.1524 58.9924C93.1367 57.0523 94.2001 55.1541 95.1955 53.2200C95.4347 52.7531 95.9911 51.7190 95.7683 51.2213C95.5433 50.7188 94.9968 50.4567 94.5293 50.2265C90.8388 48.4091 86.6808 47.4054 82.7938 46.0683C79.1790 44.8247 75.6147 43.2976 71.9763 42.1496C71.6175 42.0364 70.5089 41.6688 70.1843 41.8251C68.9774 42.4059 63.2716 53.4960 62.4931 55.3072C61.2045 54.8146 59.9356 54.3387 58.5988 53.9936C59.4063 52.5204 67.8570 36.5671 68.1331 36.3269C68.6109 36.2142 69.1196 36.055 69.5941 35.9169Z" fill="#BEEDC6"/>
  <path d="M69.5941 35.9169L69.4608 35.8747C69.0772 35.7491 68.9297 35.7412 68.6862 35.4218L68.7059 35.2315C70.1553 34.3359 79.4237 37.908 81.376 38.6148C85.3705 40.0885 89.3847 41.508 93.4177 42.8731C98.1672 44.472 102.932 46.0247 107.712 47.5309C110.335 48.3686 119.488 50.9278 120.856 52.944C120.555 53.0545 120.513 53.1273 120.189 53.0223C119.067 52.6604 117.911 52.2108 116.803 51.8111C114.497 50.9714 112.180 50.1684 109.849 49.4024C103.372 47.3035 96.914 45.3294 90.4723 43.0920C83.4709 40.6601 76.7099 37.9997 69.5941 35.9169Z" fill="#1C1D24"/>
  <path d="M105.350 52.0007C106.275 51.9901 107.955 52.4619 108.439 53.3278C108.708 53.8105 108.532 54.2172 108.401 54.7087C108.854 55.1765 109.200 55.6345 109.600 56.1457C109.953 56.0989 110.748 55.9618 111.020 56.2025C111.830 56.9191 112.319 58.7737 111.788 59.7593C111.533 60.2313 110.907 60.330 110.451 60.4489C110.281 61.1001 110.093 61.5325 109.838 62.1544C110.052 62.4039 110.437 62.8281 110.458 63.1562C110.540 64.4392 108.984 65.7262 107.780 65.7727C107.274 65.7923 106.941 65.3582 106.648 65.0379C105.827 65.2702 105.611 65.3235 104.758 65.3848C104.465 66.0538 104.380 66.2455 103.808 66.6993C102.827 66.708 101.204 66.3227 100.628 65.4550C100.307 64.9717 100.507 64.4574 100.635 63.9504C100.172 63.4824 99.8243 63.0131 99.4215 62.4939C99.0770 62.5267 98.1738 62.6531 97.9422 62.4412C97.1203 61.6906 96.6923 59.9248 97.2564 58.9272C97.5110 58.4779 98.0915 58.4092 98.5436 58.3030C98.7027 57.6818 98.9332 57.1312 99.1636 56.5338C98.3724 55.5152 98.4822 54.7480 99.3908 53.8780C100.630 52.6911 101.421 52.6897 102.512 53.7694C103.076 53.5831 103.766 53.4659 104.355 53.3457C104.680 52.6570 104.748 52.4694 105.350 52.0007Z" fill="#1C1D24"/>
  <path d="M105.777 53.1709C106.239 53.3674 106.934 53.5979 107.423 53.7745C107.110 55.0822 107.409 55.6958 108.419 56.6602C109.162 57.3705 109.470 57.3158 110.423 57.2507L110.881 59.0933C108.927 59.561 109.261 60.4326 108.496 62.1571C108.754 62.5643 109.085 63.0087 109.367 63.4077C108.905 63.8222 108.366 64.2591 107.888 64.6646C106.848 63.5943 106.325 63.9157 104.932 64.0967C103.730 64.2526 103.870 65.0026 103.245 65.5266L101.632 64.9429C101.928 63.5899 101.640 63.0895 100.606 62.0334C99.8769 61.2891 99.4939 61.343 98.5315 61.3855L98.1156 59.6406C99.663 59.197 99.9856 58.5537 100.286 56.8809C100.423 56.1174 100.190 55.9311 99.7058 55.3459C100.170 54.9072 100.669 54.4668 101.144 54.0361C102.206 55.0708 102.806 55.0724 104.303 54.6294C105.287 54.3383 105.380 54.0279 105.777 53.1709Z" fill="#BEEDC6"/>
  <path d="M103.880 56.7701C104.806 56.5421 105.784 56.8304 106.438 57.5246C107.093 58.2188 107.323 59.2115 107.041 60.1229C106.759 61.0344 106.008 61.7234 105.076 61.9264C103.661 62.2347 102.262 61.3488 101.935 59.9383C101.606 58.5277 102.474 57.116 103.880 56.7701Z" fill="#1C1D24"/>
  <path d="M104.261 57.8287C106.268 57.6186 106.618 59.8726 104.770 60.8625C104.578 60.8447 104.384 60.8295 104.195 60.7832C103.785 60.6852 103.432 60.4227 103.221 60.0573C102.641 59.065 103.434 58.2628 104.261 57.8287Z" fill="#BEEDC6"/>
  <path d="M58.1745 54.7998C59.7756 55.3323 62.3469 56.4648 64.0421 57.1348L75.7705 61.7656C83.5642 64.8953 91.4116 67.8252 99.2459 70.8447C100.808 71.4466 108.077 74.5678 109.333 74.4703C109.372 74.4673 109.410 74.4611 109.450 74.4566L109.616 74.5989C109.294 75.4383 108.195 77.3609 107.715 78.2498L104.074 84.9592C100.546 91.458 96.9809 97.937 93.3793 104.395C90.4942 109.563 86.4986 116.487 84.3817 121.887L84.2347 121.933C77.2794 119.628 70.5782 116.358 63.8129 113.536C54.8024 109.779 45.614 106.566 36.5359 102.996C35.1500 102.452 33.8432 101.789 32.4126 101.336L58.1745 54.7998Z" fill="#F5F5F5"/>
  <path d="M58.3646 65.1365C59.5181 65.1048 65.5056 67.5260 66.8832 68.0423C73.8641 70.6622 80.8778 73.1950 87.9208 75.6399L95.6651 78.3768C96.5825 78.7049 98.8640 79.4523 99.5828 79.9318C99.7738 80.3104 99.7178 80.1809 99.6498 80.6780C98.7038 80.8624 96.9699 80.1206 96.0119 79.7727C83.5115 75.2353 70.7946 71.1453 58.5650 65.9127C58.3061 65.802 58.3674 65.3646 58.3646 65.1365Z" fill="#1C1D24"/>
  <path d="M53.2342 75.3408C54.3828 75.4501 58.4277 77.1335 59.7446 77.6482L73.9768 83.2756C77.7656 84.756 81.5626 86.2134 85.3694 87.6476C86.8037 88.1876 92.88 90.3253 93.6021 90.975C93.7228 91.4128 93.6909 91.2647 93.5538 91.7585C92.1787 91.7387 83.1823 88.0965 81.3453 87.3898C75.2438 85.0556 69.1643 82.6666 63.1073 80.2205C60.8388 79.3064 58.5753 78.3802 56.317 77.4408C55.5283 77.1138 53.9367 76.5201 53.2546 76.0943C53.0917 75.6916 53.1357 75.8342 53.2342 75.3408Z" fill="#1C1D24"/>
  <path d="M47.4935 85.8218C48.479 85.9304 54.2245 88.2075 55.595 88.7376L75.0101 96.3216C77.1938 97.1754 79.382 98.0149 81.5768 98.8402C82.6797 99.2583 85.0413 100.090 85.9609 100.676C86.0388 101.138 86.0103 101.003 85.8391 101.499C84.8152 101.453 82.7225 100.559 81.6756 100.161L74.9091 97.5628L58.9765 91.3044C55.4151 89.9041 51.8787 88.4500 48.3160 87.0563C47.9450 86.9104 47.5580 86.7052 47.3102 86.3913C47.2755 86.0083 47.2445 86.1993 47.4935 85.8218Z" fill="#1C1D24"/>
  <path d="M49.4198 81.938C50.1332 82.0181 50.7286 82.2069 51.3996 82.4636C56.6794 84.4796 61.9662 86.4911 67.2264 88.5564C67.5613 88.6881 67.7602 88.7945 67.9674 89.0831C68.0548 89.397 67.9482 89.5418 67.818 89.8469C66.4749 89.701 50.0656 83.2362 49.4039 82.6568C49.2634 82.209 49.2816 82.4406 49.4198 81.938Z" fill="#1C1D24"/>
  <path d="M56.4127 69.5215C57.6189 69.6232 65.4837 72.4548 66.2736 73.1678C66.3941 73.5851 66.3519 73.4636 66.1954 73.9557C65.2476 73.9436 57.2121 70.8942 56.423 70.2757C56.2487 69.8781 56.292 70.028 56.4127 69.5215Z" fill="#1C1D24"/>
  <path d="M73.4563 76.7773C74.3174 76.8344 81.3694 79.3441 81.9148 79.8127C82.0333 80.2177 81.996 80.0937 81.8566 80.5666C80.6309 80.5974 74.368 78.3587 73.3976 77.528C73.275 77.1164 73.307 77.2569 73.4563 76.7773Z" fill="#1C1D24"/>
  <path d="M86.0487 81.7012C86.3340 81.7297 86.6160 81.7813 86.8926 81.8559C87.9077 82.1204 93.8621 84.1955 94.2791 84.9089C94.3153 85.2436 94.1946 85.3632 94.0158 85.6540C93.2311 85.5695 86.5271 82.9478 85.9433 82.4112C85.8380 82.0117 85.8566 82.1599 86.0487 81.7012Z" fill="#1C1D24"/>
  <path d="M70.5269 42.8179C75.3063 44.6228 80.1052 46.4750 84.9744 48.0202C88.3642 49.0956 91.5752 50.1237 94.8191 51.5938C92.4619 55.4584 89.7359 61.1110 87.7694 65.2378C83.7321 63.7629 79.4501 61.9682 75.4600 60.3562L63.4515 55.6248C64.1952 54.3395 64.8201 52.8822 65.5644 51.5870C67.2439 48.6649 68.9452 45.7978 70.5269 42.8179Z" fill="#F5F5F5"/>
  <path d="M91.0023 39.0435C92.4520 39.2778 94.323 40.0975 95.7979 40.5175C97.3661 40.9638 99.0122 41.5362 100.533 42.1153C100.808 42.220 100.834 42.3336 100.970 42.5621C100.967 42.8718 100.843 42.972 100.650 43.220C100.065 43.1307 98.2846 42.6110 97.7513 42.3829C96.4706 41.8340 91.0781 40.5757 90.6380 39.6592C90.7225 39.2746 90.7115 39.380 91.0023 39.0435Z" fill="#1C1D24"/>
  <path d="M127.896 51.6406C128.353 52.1237 128.560 54.1300 128.539 54.8421C128.490 56.4981 127.877 57.7887 127.183 59.2607C124.020 65.8182 120.669 72.2833 117.133 78.6479L101.390 107.341C99.2613 111.275 97.1675 115.225 95.1088 119.194C93.5329 122.236 89.827 130.448 87.7014 132.454C86.694 133.403 85.703 133.796 84.3236 133.752C81.4649 133.662 76.0218 131.389 73.2015 130.337C63.6601 126.780 54.325 122.697 44.8217 119.042C41.3667 117.722 37.9042 116.421 34.4344 115.140C32.4507 114.415 30.3544 113.709 28.4114 112.883C27.814 112.630 27.0356 111.819 26.5920 111.340C25.8730 110.378 25.6473 109.965 25.2488 108.838L25.3163 108.891C26.1676 109.538 26.8635 109.963 27.8717 110.355C41.8417 115.788 55.8301 121.157 69.8922 126.351C73.6680 127.745 77.6547 130.047 81.5132 130.882C84.8635 131.606 87.5466 128.835 88.9557 126.156C89.8534 124.448 90.7916 122.612 91.6937 120.814C93.0029 118.189 94.3428 115.580 95.7134 112.986L111.989 82.2594C114.896 76.7198 117.868 70.9375 120.901 65.4739L124.727 58.6811C126.091 56.3077 127.546 54.4226 127.896 51.6406Z" fill="#F5F5F5"/>
  <path d="M124.141 62.0347C124.330 62.1262 124.744 62.3202 124.664 62.5755C124.162 64.1667 122.253 68.1630 121.164 69.2523C120.970 69.1301 120.557 68.8505 120.645 68.6040C121.133 67.2351 123.168 62.8405 124.141 62.0347Z" fill="#1C1D24"/>
  <path d="M119.785 70.1475L120.155 70.2861C120.277 70.4811 120.354 70.5159 120.330 70.7260C120.181 72.0262 117.974 75.6898 117.182 76.5359C116.704 76.3351 116.857 76.4931 116.617 76.1365C116.606 75.3703 119.198 70.8341 119.785 70.1475Z" fill="#1C1D24"/>
  <path d="M129.942 107.358C130.223 107.414 130.237 107.445 130.489 107.593C130.742 107.946 130.698 108.370 130.714 108.817L130.888 108.822C131.749 108.851 133.736 109.039 134.100 109.790C134.833 111.298 134.416 114.412 134.467 116.069C134.530 118.151 134.596 119.746 134.536 121.778C134.622 122.651 133.967 123.972 132.929 124.009C129.241 124.136 124.680 124.545 121.045 124.177C120.060 124.058 119.676 124.021 118.804 123.499C118.646 123.124 118.131 121.926 118.110 121.570C117.916 118.133 117.980 114.602 118.179 111.165C118.312 108.889 120.068 109.116 121.779 109.041C121.783 108.450 121.688 107.634 122.472 107.586C123.020 107.964 122.930 108.351 122.944 108.977C124.827 108.753 127.420 108.798 129.369 108.771C129.654 108.364 129.524 107.949 129.942 107.358Z" fill="#1C1D24"/>
  <path d="M119.214 113.792C120.905 113.959 123.394 113.880 125.135 113.871C127.855 113.861 130.575 113.869 133.296 113.896C133.151 115.722 133.816 121.654 132.995 122.832C132.741 122.875 130.862 122.895 130.548 122.904C128.296 122.964 121.417 123.520 119.639 122.583C118.866 121.670 119.199 115.351 119.214 113.792Z" fill="#F5F5F5"/>
  <path d="M126.055 109.991C127.190 109.949 128.430 109.976 129.573 109.980C129.555 110.615 129.432 111.336 130.246 111.408C130.838 111.012 130.726 110.634 130.720 109.986C133.173 110.209 133.377 110.131 133.330 112.684L127.001 112.667C124.468 112.665 121.821 112.775 119.272 112.809C119.290 111.943 119.319 111.309 119.409 110.450C120.121 110.302 121.027 110.233 121.764 110.157L121.768 110.300C121.782 110.967 121.747 111.147 122.214 111.593C122.849 111.699 122.979 110.630 123.097 110.138C123.580 110.007 125.429 110.006 126.055 109.991Z" fill="#F5F5F5"/>
  <path d="M122.812 17.8926C124.396 17.7977 125.963 18.1203 127.148 19.2365C131.791 23.6087 127.126 31.0596 123.846 34.5943C122.783 34.7703 121.782 33.1988 121.242 32.3880C119.013 29.0351 115.988 24.3861 118.598 20.4207C119.593 18.9109 121.102 18.2012 122.812 17.8926Z" fill="#1C1D24"/>
  <path d="M122.759 19.1046C125.267 18.8946 127.387 20.1888 127.825 22.7677C128.450 26.4559 125.663 30.3201 123.675 33.164L123.503 33.3445C123.157 33.1746 122.944 32.7232 122.701 32.412C119.960 28.903 115.472 20.7477 122.759 19.1046Z" fill="#F5F5F5"/>
  <path d="M123.137 21.3504C124.468 21.224 125.653 22.1962 125.786 23.5265C125.921 24.8569 124.956 26.0462 123.627 26.1886C122.286 26.3322 121.084 25.3571 120.948 24.0153C120.813 22.6736 121.795 21.4778 123.137 21.3504Z" fill="#1C1D24"/>
  <path d="M122.966 22.5426C123.634 22.3296 124.348 22.6999 124.558 23.3684C124.769 24.0371 124.396 24.7494 123.727 24.9573C123.060 25.1642 122.353 24.7936 122.143 24.1286C121.935 23.4636 122.302 22.7545 122.966 22.5426Z" fill="#F5F5F5"/>
  <path d="M25.3175 52.1323C28.9087 51.7357 31.7334 53.3308 32.4115 57.0609C32.7723 59.0459 31.4546 59.1719 29.8371 59.3792C29.0732 59.4771 28.2434 59.4936 27.4676 59.5341C26.1717 59.5754 19.9789 59.5305 19.8564 58.0113C19.5854 54.6503 22.3105 52.6732 25.3175 52.1323Z" fill="#1C1D24"/>
  <path d="M26.2391 53.2427C28.4751 53.3038 30.1487 54.1015 31.0159 56.2998C31.2384 56.8637 31.4311 57.4242 30.9677 57.919C30.0202 58.3995 27.398 58.3815 26.2252 58.3913C24.34 58.348 22.726 58.0771 20.8718 57.7858C21.3591 54.6254 23.3147 53.571 26.2391 53.2427Z" fill="#F5F5F5"/>
  <path d="M26.1004 43.8994C28.1286 43.7324 29.9097 45.2381 30.0824 47.2658C30.2552 49.2936 28.7545 51.0788 26.7271 51.2574C24.6917 51.4365 22.8978 49.9286 22.7243 47.8926C22.5509 45.8567 24.064 44.0669 26.1004 43.8994Z" fill="#1C1D24"/>
  <path d="M27.0208 45.1528L27.1921 45.1152C28.2207 45.3661 28.6739 45.9045 28.825 46.9734C28.9343 47.7338 28.7234 48.5055 28.2424 49.1044C27.6244 49.8741 26.9771 50.0355 26.0438 50.1243C24.0881 49.6766 23.3014 47.8758 24.4247 46.0895C25.0037 45.1687 26.0523 45.2463 27.0208 45.1528Z" fill="#F5F5F5"/>
  <path d="M105.389 108.683C106.370 108.762 114.418 112.590 114.935 113.329C114.979 113.739 114.953 113.630 114.739 114.065C113.865 113.949 105.695 110.006 105.220 109.405C105.150 108.998 105.169 109.130 105.389 108.683Z" fill="#1C1D24"/>
  <path d="M35.4774 54.1440C36.4550 54.2042 44.8048 57.5215 45.3877 58.1690C45.4969 58.6053 45.4664 58.4633 45.3166 58.9527C44.4520 58.9186 35.9650 55.5609 35.4370 54.9089C35.3211 54.5967 35.3919 54.4681 35.4774 54.1440Z" fill="#1C1D24"/>
  <path d="M114.998 30.4579C115.178 30.4490 115.295 30.4739 115.476 30.4950C115.709 30.7670 115.641 30.6079 115.638 31.0068C115.088 32.1281 108.887 36.4252 107.532 37.3267C107.248 37.3555 107.268 37.349 107.011 37.2172C106.961 37.0706 106.894 36.9834 106.943 36.8263C107.240 35.8698 113.909 31.1552 114.998 30.4579Z" fill="#1C1D24"/>
</svg>
