<svg xmlns="http://www.w3.org/2000/svg" width="156" height="156" viewBox="0 0 156 156" fill="none">
  <rect width="156" height="156" fill="#F5F5F5"/>
  <path d="M82.4475 35.5877C85.9796 34.6347 88.7505 35.8074 91.8435 37.512C98.2676 41.0522 101.665 45.2444 103.244 52.3809C103.378 52.9841 103.744 54.2114 103.659 54.8137L103.552 54.9216C103.113 54.6189 102.754 52.7855 102.451 52.0888C102.742 55.0116 103.62 57.07 103.507 60.0806C103.301 65.5581 102.269 70.7932 100.85 76.0813C99.7976 80.0014 98.5507 85.0583 97.0234 88.8257C94.1749 95.852 90.585 103.363 85.9115 109.361C84.7626 110.835 83.9111 111.37 82.7664 112.57L83.0091 112.637C82.8809 113.145 81.5796 114.536 81.1664 114.941C77.7679 118.272 73.1113 120.432 68.3605 120.708C64.4824 121.342 61.1337 121.169 57.3513 119.944C56.1115 119.518 54.9145 119.104 53.7367 118.571C48.3788 116.15 49.8542 109.517 52.0389 105.372C53.2468 103.081 56.9655 95.1403 59.5403 94.2507C60.6844 93.2283 61.039 92.904 62.5008 92.3715C65.9762 91.1054 68.8219 93.6655 72.0591 94.1299L72.1951 94.1482C76.4082 89.2819 78.4851 82.7592 80.7203 76.8411C81.8089 73.9587 83.1783 71.0841 83.4313 67.979C83.5317 66.7504 83.5441 65.0943 82.7205 64.0961C81.4261 62.5275 76.5823 62.4588 74.0028 59.3255C72.7301 57.7796 72.4447 56.0345 72.6408 54.0997C72.8322 52.21 73.3889 50.3515 73.9101 48.5311C75.0609 44.5109 76.4389 39.3611 79.8406 36.6549C80.5302 36.1061 81.5488 35.4832 82.4475 35.5877Z" fill="#1C1D24"/>
  <path d="M72.1951 94.1483C76.4082 89.2819 78.4851 82.7592 80.7203 76.8411C81.8089 73.9587 83.1784 71.0841 83.4313 67.979C83.5317 66.7504 83.5441 65.0943 82.7205 64.0961C81.4261 62.5275 76.5823 62.4588 74.0028 59.3255C72.7302 57.7796 72.4447 56.0345 72.6408 54.0997C72.8322 52.21 73.3889 50.3515 73.9101 48.5311C75.0609 44.511 76.439 39.3611 79.8406 36.6549C80.5302 36.1061 81.5488 35.4832 82.4475 35.5878C81.4038 36.2402 80.2127 37.3704 79.528 38.3932C77.9355 40.7718 75.1089 49.6813 74.3897 52.7762C73.8911 54.921 73.9497 56.9581 75.1425 58.8678C75.8099 59.9364 76.7552 60.4571 77.8628 60.9702C81.9535 62.8656 86.3422 62.8595 85.0765 68.7886C84.5665 71.1773 83.5918 73.5485 82.766 75.8436C81.3395 79.8083 77.1386 91.7149 73.7267 93.7909C73.1863 94.1198 72.8254 94.1525 72.1951 94.1483Z" fill="#BEEDC6"/>
  <path d="M57.3513 119.944C56.1115 119.518 54.9145 119.103 53.7367 118.571C48.3788 116.15 49.8542 109.517 52.0389 105.372C53.2468 103.081 56.9655 95.1401 59.5403 94.2505C57.8151 96.8519 56.635 99.5075 55.2141 102.263C54.2857 104.062 53.333 105.404 52.5585 107.345C51.4804 110.045 51.9573 110.282 52.2969 112.918C52.1122 112.65 51.8923 112.303 51.6666 112.079C53.0613 117.566 53.9581 116.826 58.3554 118.968C58.0373 119.495 57.8678 119.596 57.3513 119.944Z" fill="#BEEDC6"/>
  <path d="M58.3554 118.968C61.7952 120.404 64.6441 120.759 68.3605 120.708C64.4824 121.342 61.1337 121.169 57.3513 119.944C57.8678 119.596 58.0373 119.495 58.3554 118.968Z" fill="#BEEDC6"/>
  <path d="M77.08 116.825C74.3114 119.112 68.0944 119.779 64.6441 119.352C61.9054 119.013 55.5877 117.34 53.8529 115.174C50.9226 111.515 54.8292 106.819 56.6689 103.651C58.0143 101.334 59.0603 98.4864 60.5263 96.1947C63.7018 91.3941 67.8552 95.3417 71.8768 95.9076C74.6249 96.3789 76.7912 93.8473 77.8754 91.5248C79.2109 88.135 80.8559 84.8836 82.2384 81.5269C83.873 77.5575 86.3097 72.0385 86.8096 67.868C87.7038 60.4095 80.1684 61.8437 76.49 58.2766C75.5944 57.4082 75.3807 55.1922 75.6117 53.9518C76.8072 49.0943 78.3352 44.2264 79.8914 39.4695C80.2681 38.3187 80.9269 37.8024 81.6009 36.9368L81.7029 37.1953L81.8549 37.2317C84.2706 35.818 86.5157 36.4332 88.8715 37.5905C92.5672 39.4058 96.1605 41.7732 98.5775 45.1492C100.013 47.0705 101.746 51.3552 102.211 53.7848C103.007 57.9369 102.419 64.3249 101.288 68.4537C101.094 69.9536 100.115 72.8718 99.7028 74.4342C98.5136 78.9464 97.1193 83.8996 95.4364 88.2574C94.0514 91.8438 91.9542 95.8667 90.2816 99.3442C89.8946 100.148 88.3521 103.278 87.8556 103.836C86.6211 106.249 82.5655 112.391 80.7096 114.232C79.6568 115.297 78.429 116.174 77.08 116.825Z" fill="#BEEDC6"/>
  <path d="M98.5775 45.1489C100.013 47.0703 101.746 51.355 102.211 53.7846C103.007 57.9367 102.419 64.3247 101.288 68.4534C100.92 67.8573 101.709 63.4412 101.775 62.2459C102.036 58.3086 101.638 54.4716 100.608 50.6673C100.347 49.7031 98.5159 45.455 98.5775 45.1489Z" fill="#F5F5F5"/>
  <path d="M77.08 116.824L77.1412 116.569C78.7378 115.042 80.4882 113.407 81.9881 111.488C83.7187 109.275 85.9003 106.25 87.5841 103.917C87.6745 103.89 87.7652 103.863 87.8556 103.835C86.6211 106.249 82.5655 112.391 80.7096 114.232C79.6568 115.297 78.429 116.174 77.08 116.824Z" fill="#F5F5F5"/>
  <path d="M106.773 60.6172C108.369 60.7272 110.227 61.2975 111.795 61.6474C115.867 62.5562 119.804 63.7899 123.785 65.0153C128.195 66.3133 132.537 67.029 136.847 68.671C139.727 69.7683 139.925 69.5984 142.23 71.8601C143.524 76.8909 140.74 82.4319 139.436 87.3303C138.363 91.362 137.29 95.6139 135.756 99.4831C134.306 103.143 131.152 104.238 127.515 103.29C119.76 101.235 111.941 99.1829 104.349 96.5724C103.175 96.1687 98.1192 94.8387 97.6596 94.1032C98.1076 93.4541 101.867 94.1357 102.574 94.3463C111.353 96.9603 120.121 99.692 129.038 101.799C129.804 101.98 130.794 101.825 131.555 101.674C130.827 100.338 130.087 97.7346 129.522 96.2023C128.962 94.6798 128.333 93.3456 127.749 91.8574C126.538 88.8462 125.154 84.9104 124.107 81.8433C114.483 86.4223 114.709 86.8423 109.889 77.3016C108.705 78.2483 102.386 82.5579 101.321 82.2152L101.278 82.0341C102.014 80.5475 107.826 77.3604 109.529 76.4904C108.717 74.8043 105.02 67.1325 105.311 65.6214L105.479 65.5131C105.775 65.6071 106.007 65.8754 106.151 66.1459C108.461 70.4644 110.534 75.0685 112.772 79.4129C113.773 81.3555 114.933 83.9371 117.434 82.9524C119.337 82.2034 121.056 81.3087 122.872 80.3971C125.487 79.104 128.085 77.7789 130.667 76.4219C133.793 74.7809 136.975 73.0171 140.308 71.8907C137.597 69.7672 128.445 67.8423 124.831 66.7748C121.387 65.8061 117.961 64.7341 114.549 63.6619C113.233 63.2485 107.035 61.9392 106.773 60.6172Z" fill="#1C1D24"/>
  <path d="M140.879 72.9258C142.51 75.644 138.922 83.3763 137.97 86.3443C136.568 90.7163 135.48 97.7159 132.524 101.158C131.958 98.1927 132.121 98.4217 130.913 95.5002C130.335 94.0507 129.762 92.594 129.168 91.1512C127.815 87.8622 126.219 84.6852 124.808 81.4168C127.196 80.3061 129.552 79.0734 131.902 77.8803C134.721 76.448 138.299 74.7286 140.879 72.9258Z" fill="#F5F5F5"/>
  <path d="M55.828 48.9687C57.3091 48.8719 58.987 48.8869 60.4184 49.3005C62.3973 49.8617 64.0595 51.2102 65.0164 53.0312C66.4256 55.6604 67.228 58.9706 67.9991 61.9614C69.1308 66.3507 71.0869 72.1189 70.5723 76.7105C69.8581 83.0827 61.3228 84.4226 56.3548 85.8802C55.232 86.2097 48.606 88.3945 48.146 86.9795C48.3275 86.4475 49.1301 86.0037 49.6257 85.8285C50.3079 85.5876 51.2156 85.4505 51.9347 85.2389C55.8145 84.0969 62.8663 82.7952 66.1741 80.6362C66.9609 80.1297 67.6254 79.4549 68.1199 78.6605C68.6044 77.8715 68.9073 76.9846 69.007 76.0642C69.2762 73.5557 67.9304 66.396 67.2185 63.7168C66.2216 60.3149 65.7943 55.5548 63.7176 52.6576C60.4241 48.0624 52.9179 50.1471 48.4557 51.0863L40.6519 52.7493C36.3737 53.6609 31.7196 54.3722 27.4864 55.4614C23.9631 56.3679 18.4729 57.7354 16.5676 60.9952C14.3229 64.8353 15.0955 67.9334 15.9786 71.969C16.4152 73.9449 16.8693 75.9168 17.3411 77.8847C17.9444 80.0578 18.4915 82.3037 19.1222 84.4797C19.2713 84.9943 19.4387 86.5921 19.633 86.9677C20.3458 88.345 21.6545 89.8552 23.089 90.4957C24.134 90.9744 25.4118 91.2413 26.5573 91.2261C28.0676 91.2061 29.5702 90.853 31.0562 90.5871C32.8074 90.2737 34.5616 89.8957 36.3044 89.5257C37.3959 89.294 38.5345 89.259 39.5768 88.8526C39.8028 88.7645 39.7467 88.7272 39.9187 88.9413C40.2649 89.617 40.5551 90.7065 41.1066 91.2299C43.2531 93.2665 46.0714 96.1433 48.7957 97.3036C47.6443 94.6634 46.8432 92.5945 46.613 89.668C46.562 89.0189 46.4313 88.1202 46.8445 87.6213L47.0913 87.66C48.0583 88.5912 48.4171 92.3995 49.0521 93.837C49.3251 94.4547 50.3781 96.8115 50.4375 97.2873C50.8948 100.957 46.3451 97.982 45.2284 96.9439C43.0549 95.031 39.6101 92.4726 39.2572 89.4635C36.2243 90.5861 30.9042 91.6703 27.6502 92.0529C25.557 92.2991 22.8628 91.6701 21.2036 90.199C20.3867 89.4667 19.7087 88.5929 19.2023 87.6196C16.9713 83.2516 14.2944 71.9312 13.5492 66.8541C13.24 64.7481 14.4802 60.8394 16.0117 59.1289C16.7797 58.2842 17.679 57.5689 18.6751 57.0113C23.6791 54.2453 34.2203 52.8217 39.8451 51.6833C44.6929 50.702 50.927 49.2265 55.828 48.9687Z" fill="#1C1D24"/>
</svg>
