<svg xmlns="http://www.w3.org/2000/svg" width="156" height="156" viewBox="0 0 156 156" fill="none">
  <rect width="156" height="156" fill="#F5F5F5"/>
  <path d="M24.9029 35.7842C25.8613 35.4327 26.8332 35.1196 27.8165 34.8457C32.1137 33.6373 37.2781 32.5832 41.675 31.6101C51.9 29.4065 62.1368 27.2581 72.3849 25.1652C78.239 23.9531 84.084 22.6997 89.9197 21.4048C95.1875 20.2011 100.531 18.9321 105.86 18.008C106.574 17.8695 107.951 17.7401 108.568 18.2278C109.578 19.0253 109.983 21.9491 110.231 23.0852C110.675 25.0606 111.098 27.0404 111.502 29.0243C112.649 34.7497 113.885 40.457 115.209 46.1442L115.311 46.3578C115.622 46.399 116.386 46.1806 116.68 46.0843C122.412 44.207 124.186 51.0846 118.371 52.2904C117.85 52.3985 117.169 52.6653 116.683 52.7515C119.361 64.1026 122.104 75.4384 124.911 86.7578L129.648 105.486C130.217 107.81 130.846 110.118 131.363 112.454C131.675 113.54 131.921 115.994 130.684 116.626C128.655 117.663 125.856 118.232 123.657 118.809C119.449 119.917 115.228 120.978 110.995 121.99C99.3597 124.882 87.7048 127.691 76.0292 130.416L62.5163 133.674C59.7254 134.366 51.2156 136.823 48.8555 136.196C48.0821 135.991 47.4271 135.476 47.0428 134.774C46.7678 134.272 45.9836 131.309 45.7978 130.627C44.9891 127.671 44.1988 124.71 43.427 121.745C38.5417 102.984 34.1136 84.1073 30.1465 65.1313L26.587 48.1583C25.8786 44.7001 25.145 41.2086 24.6503 37.7053C24.5473 36.9753 24.6965 36.4676 24.9029 35.7842Z" fill="#F5F5F5"/>
  <path d="M24.9029 35.7842C25.8613 35.4327 26.8332 35.1196 27.8165 34.8457C32.1137 33.6373 37.2781 32.5832 41.675 31.6101C51.9 29.4065 62.1368 27.2581 72.3849 25.1652C78.239 23.9531 84.084 22.6997 89.9197 21.4048C95.1875 20.2011 100.531 18.9321 105.86 18.008C106.574 17.8695 107.951 17.7401 108.568 18.2278C109.578 19.0253 109.983 21.9491 110.231 23.0852C110.675 25.0606 111.098 27.0404 111.502 29.0243C112.649 34.7497 113.885 40.457 115.209 46.1442C114.898 46.5943 114.174 46.7966 113.653 46.7515C112.537 41.1727 111.217 35.4688 110.036 29.8852C109.596 27.7277 109.145 25.5725 108.684 23.4196C108.463 22.3913 108.095 20.3869 107.652 19.4993C105.753 19.2349 90.1132 23.0038 86.6734 23.7459L48.5852 31.7154L35.1857 34.5899C31.9827 35.2894 28.8345 36.0527 25.5895 36.5559C26.2875 38.4528 26.8492 41.916 27.2835 44.0464L30.1571 57.9525C32.0131 66.7576 33.9254 75.5508 35.8938 84.3308C38.4495 95.5429 41.1669 106.717 44.045 117.85C45.3934 123.105 46.743 128.386 48.2379 133.605C48.3557 134.017 48.6121 134.565 48.9574 134.833C49.7945 135.047 51.0173 134.822 51.8562 134.628C57.086 133.421 62.2903 132.092 67.5164 130.855L106.925 121.341C112.519 119.985 118.103 118.595 123.679 117.17C125.556 116.684 127.64 116.241 129.422 115.523C130.428 115.117 129.835 112.89 129.655 112.135C127.287 102.145 124.613 92.2314 122.171 82.2607L117.057 61.2095C116.425 58.628 115.849 55.7786 115.159 53.248C115.397 52.9594 116.305 52.7338 116.683 52.7515C119.361 64.1026 122.104 75.4384 124.911 86.7578L129.648 105.486C130.217 107.81 130.846 110.118 131.363 112.454C131.675 113.54 131.921 115.994 130.684 116.626C128.655 117.663 125.856 118.232 123.657 118.809C119.449 119.917 115.228 120.978 110.995 121.99C99.3597 124.882 87.7048 127.691 76.0292 130.416L62.5163 133.674C59.7254 134.366 51.2156 136.823 48.8555 136.196C48.0821 135.991 47.4271 135.476 47.0428 134.774C46.7678 134.272 45.9836 131.309 45.7978 130.627C44.9891 127.671 44.1988 124.71 43.427 121.745C38.5417 102.984 34.1136 84.1073 30.1465 65.1313L26.587 48.1583C25.8786 44.7001 25.145 41.2086 24.6503 37.7053C24.5473 36.9753 24.6965 36.4676 24.9029 35.7842Z" fill="#1C1D24"/>
  <path d="M55.9818 51.2899C55.809 50.7019 55.5056 49.8175 55.7138 49.2588C56.1204 48.4132 58.9254 47.7749 59.5591 48.277C60.3782 48.9261 60.5621 50.9437 60.8426 51.9749C61.0137 52.6043 61.2042 53.5297 61.3683 54.2241C62.7583 55.0862 64.584 55.9278 65.7976 56.9946C66.1379 57.2937 66.0801 57.5968 66.0789 57.9859C65.7632 58.0977 65.4885 58.2345 65.1631 58.2046C64.672 58.4912 64.055 58.7258 63.488 58.7957C63.5604 59.4491 63.9587 61.4535 64.1829 62.0748C64.358 62.9475 64.5454 63.8179 64.7452 64.6853C64.9357 65.6546 65.8262 69.4777 65.6094 70.2272C65.3568 71.1013 60.8378 72.0132 59.8383 72.2538C57.4241 72.8535 54.9984 73.4057 52.5626 73.9104C51.0319 74.2352 48.4652 74.9353 46.9954 74.7924C46.0557 74.7011 45.3793 70.1332 45.2363 69.2162C44.8169 67.4177 44.3192 65.4539 44.0003 63.6496C43.8487 63.0696 43.7048 62.029 43.6008 61.4046C43.131 62.1029 42.4055 63.4587 41.5264 63.5876C41.1513 63.4432 41.3006 63.5551 41.0543 63.2494C41.0093 62.9454 41.0154 62.7257 41.148 62.4398C42.0346 60.5291 49.6559 49.1905 50.7246 48.9396C51.7839 48.6909 54.9342 50.7143 55.9818 51.2899Z" fill="#1C1D24"/>
  <path d="M62.9475 57.0557C63.7126 57.4888 64.3701 57.8213 65.163 58.2046C64.672 58.4913 64.055 58.7259 63.488 58.7957C63.3195 58.3884 63.0807 57.5058 62.9475 57.0557Z" fill="#F5F5F5"/>
  <path d="M51.1756 50.2451C54.105 52.2311 58.2304 54.2662 61.3992 56.1094C61.5935 57.0835 61.7964 58.0559 62.0078 59.0265C62.4369 61.0239 62.8512 63.0244 63.2505 65.0281C63.5645 66.4842 63.8896 68.1753 64.2673 69.5982C62.5949 70.0302 60.5687 70.4941 58.9419 70.9819C58.6986 69.567 58.385 67.6485 57.9769 66.2774C57.8453 65.7987 57.4331 64.209 56.9608 64.0912C55.7361 63.786 52.5747 64.5498 51.6788 65.4754C51.4712 65.6899 51.7212 67.3549 51.7676 67.7191C52.0453 69.1541 52.4223 70.9392 52.861 72.3386C51.1594 72.7067 49.272 73.0611 47.6096 73.5027C47.2657 71.9981 46.931 70.4652 46.5688 68.9672C46.3083 67.4977 45.5762 64.9258 45.2232 63.3342C44.9554 62.2683 44.6929 61.1561 44.3877 60.1039C45.5856 58.2974 46.8058 56.5059 48.0482 54.7298C49.0811 53.2714 50.237 51.751 51.1756 50.2451Z" fill="#BEEDC6"/>
  <path d="M51.1756 50.2451C54.105 52.2311 58.2304 54.2662 61.3992 56.1094C61.5935 57.0835 61.7964 58.0559 62.0078 59.0265C58.1899 59.8575 54.2784 60.8853 50.48 61.8212C49.3014 62.1116 46.1492 62.8562 45.2232 63.3342C44.9554 62.2683 44.6929 61.1561 44.3877 60.1039C45.5856 58.2974 46.8058 56.5059 48.0482 54.7298C49.0811 53.2714 50.237 51.751 51.1756 50.2451Z" fill="#F5F5F5"/>
  <path d="M57.9769 66.2776C59.6677 65.9589 61.4952 65.342 63.2506 65.0283C63.5645 66.4844 63.8896 68.1755 64.2673 69.5984C62.5949 70.0304 60.5688 70.4943 58.9419 70.9821C58.6987 69.5673 58.385 67.6488 57.9769 66.2776Z" fill="#F5F5F5"/>
  <path d="M46.5688 68.9674C47.1793 68.689 51.0109 67.8401 51.7676 67.7192C52.0453 69.1542 52.4223 70.9394 52.861 72.3388C51.1594 72.7069 49.272 73.0613 47.6096 73.5028C47.2657 71.9982 46.931 70.4654 46.5688 68.9674Z" fill="#F5F5F5"/>
  <path d="M52.6886 63.1406C53.4609 63.0236 56.6864 62.9818 57.3767 63.2406C56.6221 63.3637 53.3787 63.4222 52.6886 63.1406Z" fill="#BEEDC6"/>
  <path d="M52.7384 65.9256C53.7169 65.8652 55.2425 65.4784 56.2803 65.2788L56.5344 66.5978C56.9497 68.1468 57.2348 69.7235 57.6343 71.252C56.4984 71.5301 55.2619 71.8109 54.1413 72.1185C53.8113 70.5745 53.4898 68.9665 53.1232 67.4358L52.7384 65.9256Z" fill="#F5F5F5"/>
  <path d="M52.7384 65.9256C53.7169 65.8652 55.2425 65.4784 56.2803 65.2788L56.5344 66.5978C55.4008 66.8909 54.2637 67.1703 53.1232 67.4358L52.7384 65.9256Z" fill="#BEEDC6"/>
  <path d="M58.729 49.4639C58.8096 49.5471 59.5461 52.7834 59.6678 53.2566L58.5261 52.6443C58.1708 52.4349 57.6531 52.2105 57.2694 52.0304C57.1847 51.1418 57.0524 50.6695 56.8092 49.8179C57.4312 49.7216 58.1053 49.5817 58.729 49.4639Z" fill="#F5F5F5"/>
  <path d="M115.209 46.1447L115.311 46.3583C115.622 46.3995 116.386 46.1811 116.68 46.0848C122.412 44.2074 124.186 51.0851 118.371 52.2909C117.85 52.399 117.169 52.6658 116.683 52.752C116.305 52.7343 115.397 52.9599 115.159 53.2485C114.872 53.073 114.637 53.1709 114.257 53.2607L84.6654 59.9521L74.5763 62.348C73.3823 62.6273 71.1334 63.2176 69.9812 63.3889C68.3268 63.8549 66.2574 64.1402 64.7452 64.6854C64.5454 63.818 64.358 62.9477 64.1829 62.0749C63.9587 61.4536 63.5604 59.4492 63.488 58.7958C64.055 58.726 64.672 58.4914 65.163 58.2047C65.4885 58.2346 65.7632 58.0978 66.0789 57.986C66.4485 57.9835 68.2592 57.5229 68.7661 57.4021C70.7637 56.9142 72.7639 56.4365 74.7664 55.9692C84.8982 53.502 95.0447 51.0922 105.204 48.7398C106.299 48.4881 113.304 47.0077 113.653 46.752C114.174 46.7971 114.898 46.5948 115.209 46.1447Z" fill="#BEEDC6"/>
  <path d="M104.679 51.8761C105.323 51.7491 107.054 51.2664 107.271 52.2598C106.766 53.241 103.174 53.8229 102.104 54.039C101.388 54.2083 100.284 54.4333 99.5987 54.6403C98.198 54.9529 95.8589 55.4445 94.5244 55.8433C94.0123 55.9503 93.3595 56.0687 92.8629 56.1963C91.0008 56.618 89.1345 57.0269 87.2662 57.4229C86.692 57.5531 85.9699 57.6958 85.4144 57.8496C83.484 58.2441 81.5536 58.7049 79.6304 59.0887L77.7797 59.4967C76.6572 59.6295 73.7618 60.717 73.0335 59.8869L73.0667 59.6601C73.9374 58.6999 80.1684 57.4945 81.8505 57.0322C82.316 56.9764 83.2088 56.7425 83.694 56.6271C84.8878 56.4527 87.5548 55.8182 88.7631 55.5176C89.6094 55.3731 90.4132 55.1739 91.247 54.9751C92.5919 54.7709 95.4917 54.018 96.8531 53.6707L97.9755 53.4172C98.7069 53.3168 102.267 52.4803 102.918 52.2596C103.463 52.1635 104.13 51.9981 104.679 51.8761Z" fill="#1C1D24"/>
  <path d="M99.5987 54.6404C100.284 54.4334 101.388 54.2084 102.104 54.0391L101.928 54.3942C102.311 54.4956 105.194 54.6608 105.546 54.5711L105.619 54.6446L105.5 54.6447C104.982 54.6487 104.534 54.8065 104.073 54.7791C102.677 54.696 100.957 54.8461 99.5987 54.6404Z" fill="#BEEDC6"/>
  <path d="M88.7631 55.5172L88.7083 55.3098C87.5972 55.1473 86.6827 55.2153 85.4816 55.0033L85.5003 54.9595C86.5441 55.0051 87.589 55.0198 88.6338 55.0034C89.2576 54.9923 90.7701 54.8767 91.247 54.9747C90.4132 55.1735 89.6094 55.3726 88.7631 55.5172Z" fill="#BEEDC6"/>
  <path d="M77.64 56.4925C78.7428 56.4391 82.7339 56.4597 83.694 56.6273C83.2088 56.7426 82.316 56.9765 81.8505 57.0323L81.7553 56.8455C80.5128 56.5619 79.0749 56.7831 77.64 56.4925Z" fill="#BEEDC6"/>
  <path d="M92.8629 56.1958C93.3595 56.0682 94.0123 55.9497 94.5244 55.8428C95.1958 56.3945 97.2907 56.0795 98.3035 56.3412L98.2704 56.4098C97.6031 56.4754 93.3099 56.347 92.8629 56.1958Z" fill="#BEEDC6"/>
  <path d="M77.7796 59.4969L79.6304 59.0889C80.3101 59.5329 81.8991 59.4343 82.795 59.6638C81.9281 59.7554 78.7045 59.6008 77.7796 59.4969Z" fill="#BEEDC6"/>
  <path d="M102.918 52.259L102.898 52.0951L103.14 51.9932C103.084 51.9586 100.241 51.8274 99.7466 51.7114C100.47 51.6276 104.115 51.6239 104.679 51.8755C104.13 51.9975 103.463 52.1629 102.918 52.259Z" fill="#BEEDC6"/>
  <path d="M85.4144 57.8496C85.9699 57.6958 86.692 57.5531 87.2662 57.4229C87.8052 57.9161 89.2018 57.7201 90.1835 57.9228L90.1763 57.9805C89.5856 58.0306 85.8613 57.972 85.4144 57.8496Z" fill="#BEEDC6"/>
  <path d="M96.8531 53.6706C95.5723 53.4993 94.1675 53.5894 92.8774 53.3583C92.2608 53.248 93.493 53.3338 92.6074 53.291C93.795 53.2153 96.7331 53.3243 97.9755 53.4171L96.8531 53.6706Z" fill="#BEEDC6"/>
  <path d="M74.3105 61.1762C74.9087 61.0832 75.2389 61.0719 75.8037 61.2777C75.212 61.374 74.8207 61.4821 74.3105 61.1762Z" fill="#BEEDC6"/>
  <path d="M45.2364 69.216C43.159 69.7713 39.499 71.0153 37.4163 70.1377C36.2733 69.5224 35.3887 67.5729 36.2981 66.4997C37.7155 64.827 41.8893 64.013 44.0003 63.6494C44.3193 65.4537 44.8169 67.4174 45.2364 69.216Z" fill="#BEEDC6"/>
  <path d="M62.3834 84.0195C63.1577 84.1747 63.3338 85.1865 63.5431 85.8475C64.0316 85.7482 65.3484 85.4534 65.6226 85.802C66.4916 86.9079 67.1733 90.7863 67.47 92.1633C67.5724 92.1322 67.6752 92.1012 67.7782 92.0722C68.8659 91.7608 73.1552 90.4677 73.9881 91.1877C74.8531 91.9357 77.909 106.477 78.3124 108.699C79.138 108.496 80.309 108.115 81.056 108.662C81.2608 109.123 81.0011 109.457 80.5521 109.616C79.0107 110.159 77.3607 110.516 75.7706 110.91C72.2009 111.79 68.6247 112.644 65.0424 113.471C61.1042 114.277 57.0996 115.542 53.0712 116.033C52.6184 116.088 52.3893 116.057 52.0542 115.761L52.0474 115.511C52.465 114.839 54.053 114.591 54.9044 114.362C54.3118 112.836 53.2864 107.632 52.876 105.767L51.3294 98.7532C50.786 96.3365 49.6996 91.9109 49.8171 89.5097C50.47 89.1394 50.9681 89.0204 51.6795 88.8342C51.5376 88.1069 51.2679 87.3145 51.5919 86.672C52.5165 86.042 61.0477 84.1468 62.3834 84.0195Z" fill="#1C1D24"/>
  <path d="M64.7668 86.9971C64.8672 87.024 64.7972 86.9981 64.944 87.1347C65.0882 88.5488 66.1279 92.84 66.467 94.4994L68.2338 102.811C68.7469 105.307 69.2908 108.283 70.0108 110.732L66.1503 111.685C65.8903 110.619 65.2574 106.853 64.3072 106.478C63.4283 106.131 60.2039 107.314 59.259 107.717C59.4352 109.1 59.89 110.896 60.2106 112.289L60.3923 113.038L56.2175 113.967L52.7902 98.8216C52.1308 95.9457 51.5365 93.0769 50.7248 90.2372C52.2606 90.081 54.6963 89.4644 56.2346 89.092C59.0012 88.4216 62.053 87.7957 64.7668 86.9971Z" fill="#F5F5F5"/>
  <path d="M59.1104 90.3117C59.3653 90.3044 59.3684 90.3303 59.6068 90.4358C60.0606 90.9696 60.609 93.3739 60.1932 94.0194C60.0002 94.3194 58.7585 94.4632 58.3626 94.5294C57.9885 94.6194 58.0269 94.5998 57.7483 94.4166C57.2176 93.5528 57.1144 91.9266 57.038 90.9096C57.837 90.6127 58.2679 90.5062 59.1104 90.3117Z" fill="#1C1D24"/>
  <path d="M58.9661 91.2705C59.2143 91.6202 59.375 92.9557 59.4258 93.4327C59.1923 93.5785 58.6659 93.622 58.3643 93.6665C58.1837 93.0913 57.9779 92.0785 57.8324 91.4609L58.9661 91.2705Z" fill="#F5F5F5"/>
  <path d="M60.1205 95.6974C60.4502 95.6571 60.7662 95.6084 60.9353 95.9736C61.3301 96.8292 61.6499 98.2196 61.449 99.1268C61.0742 99.6658 60.2774 99.6969 59.6055 99.8251L59.2148 99.8841C58.4753 99.5789 58.1409 97.1219 58.2934 96.4081C58.7046 95.8598 59.4344 95.8298 60.1205 95.6974Z" fill="#1C1D24"/>
  <path d="M59.8587 96.6191C60.102 96.6119 59.9864 96.5829 60.2032 96.7143C60.4935 97.5471 60.6591 97.7467 60.4897 98.6002C60.2309 98.9064 60.2018 98.8247 59.7164 98.9478L59.5611 98.9261C59.2334 98.2816 59.0072 97.6195 59.1158 96.9036C59.3883 96.6222 59.3787 96.707 59.8587 96.6191Z" fill="#F5F5F5"/>
  <path d="M61.2524 100.967L61.7049 100.961C62.425 101.351 62.8387 103.814 62.5595 104.557C62.2016 104.854 61.2629 105.018 60.7587 105.141C60.6215 105.141 60.2755 105.12 60.1695 105.033C59.4998 104.477 59.3974 102.291 59.3247 101.485C59.8307 101.308 60.7064 101.108 61.2524 100.967Z" fill="#1C1D24"/>
  <path d="M60.9229 101.9C61.152 101.86 61.0739 101.868 61.3101 101.902C61.6225 102.48 61.9005 103.265 61.694 103.918C61.654 104.046 61.296 104.102 61.157 104.143L60.825 104.162C60.3935 103.867 60.0942 102.564 60.3404 102.084C60.4049 101.958 60.775 101.93 60.9229 101.9Z" fill="#F5F5F5"/>
  <path d="M65.3273 100.036C65.6602 99.9948 65.8221 99.9368 66.1171 100.091C66.6639 100.67 67.1099 102.743 66.82 103.535C66.6943 103.878 65.5629 104.009 65.1821 104.075C64.709 104.135 64.773 104.197 64.388 104.043C63.7609 103.311 63.502 101.533 63.7704 100.578C63.8423 100.323 65.0367 100.1 65.3273 100.036Z" fill="#1C1D24"/>
  <path d="M65.4153 100.886C65.5378 100.88 65.4599 100.87 65.6257 100.99C65.8385 101.751 66.043 102.136 65.8734 102.898C65.6048 103.203 65.6002 103.111 65.0873 103.206C64.9017 103.198 64.9964 103.228 64.822 103.071C64.6698 102.45 64.4559 101.748 64.4504 101.121C64.745 100.941 65.0568 100.939 65.4153 100.886Z" fill="#F5F5F5"/>
  <path d="M56.8864 102.006C57.5362 101.925 57.7575 101.989 58.0177 102.671C58.2895 103.383 58.689 104.677 58.3982 105.425C58.2603 105.779 57.3752 105.928 57.0256 106.01C56.9193 106.034 56.4868 106.13 56.4125 106.125C55.2156 106.039 55.2483 103.344 55.1632 102.469C55.683 102.287 56.3435 102.142 56.8864 102.006Z" fill="#1C1D24"/>
  <path d="M57.0202 102.851L57.1607 102.933C57.3582 103.541 57.479 104.322 57.598 104.964L56.5579 105.241L56.4146 105.126C56.2511 104.473 56.0408 103.749 55.9863 103.089C56.2429 102.929 56.7001 102.898 57.0202 102.851Z" fill="#F5F5F5"/>
  <path d="M64.4421 94.6553C64.7424 94.6811 64.6398 94.6698 64.9295 94.8167C65.2475 95.2108 65.3938 95.7426 65.5094 96.2308C66.0456 98.4923 65.8684 98.4509 63.8459 98.8502C63.6019 98.8482 63.369 98.8906 63.1971 98.6827C62.6155 97.9802 62.4942 96.0953 62.4268 95.2656C63.1765 95.0008 63.6715 94.8477 64.4421 94.6553Z" fill="#1C1D24"/>
  <path d="M64.0866 95.5825C64.3015 95.5877 64.1953 95.5587 64.3986 95.6911C64.69 96.4701 64.8449 96.7215 64.7677 97.5491C64.5548 97.8936 64.5904 97.7892 64.0909 97.9557C63.4466 97.8905 63.3275 96.4174 63.3871 95.8784C63.6182 95.5794 63.5895 95.6736 64.0866 95.5825Z" fill="#F5F5F5"/>
  <path d="M55.9778 96.6209C56.8524 96.5495 56.8881 97.5158 57.0972 98.1727C57.264 98.6972 57.3652 99.4741 57.3215 100.018C56.9677 100.572 56.3766 100.6 55.7096 100.755C55.4781 100.797 55.0422 100.89 54.8654 100.742C54.1399 100.138 54.1279 98.0527 54.0771 97.1496C54.6507 96.953 55.3809 96.7782 55.9778 96.6209Z" fill="#1C1D24"/>
  <path d="M55.6538 97.5639C55.8631 97.539 55.7574 97.5204 55.9642 97.6476C56.2509 98.468 56.4125 98.6894 56.2817 99.5553C56.0419 99.8615 56.0508 99.7725 55.5727 99.8967C55.4101 99.905 55.5029 99.9143 55.3004 99.8325C55.0132 98.9801 54.8196 98.7008 54.9468 97.8297C55.2006 97.5618 55.1944 97.6425 55.6538 97.5639Z" fill="#F5F5F5"/>
  <path d="M63.3289 89.3833C63.6075 89.4268 63.5666 89.435 63.8348 89.555C64.2497 90.0516 64.3803 90.8068 64.5446 91.4182C65.0564 93.3228 64.2494 93.2597 62.7232 93.5804C62.2832 93.6 62.4742 93.6548 62.1199 93.449C61.5797 92.6203 61.4459 90.9775 61.3109 89.9657C62.0828 89.6564 62.5209 89.553 63.3289 89.3833Z" fill="#1C1D24"/>
  <path d="M62.4884 90.3302C62.7156 90.3002 62.8674 90.2981 63.0972 90.293C63.638 90.7119 63.7174 91.7847 63.6501 92.422L63.3869 92.5958C63.1893 92.6248 62.8497 92.7055 62.7205 92.5451C62.3253 92.0548 62.1468 91.0833 62.2211 90.475L62.4884 90.3302Z" fill="#F5F5F5"/>
  <path d="M54.5152 91.4549C55.3463 91.3339 55.5929 91.7332 55.7904 92.5091C56.3599 94.7468 56.5666 95.0271 54.4327 95.4865C53.2025 95.7503 53.095 94.2906 52.9227 93.3791C52.6121 91.7363 53.1599 91.7467 54.5152 91.4549Z" fill="#1C1D24"/>
  <path d="M54.6178 92.2896C54.7571 92.2916 54.6729 92.2761 54.8509 92.3971C55.1177 93.2041 55.3399 93.5134 55.1178 94.2986C54.8018 94.6038 54.7813 94.5148 54.2507 94.6069L54.2024 94.6027C53.955 94.3451 53.7681 92.9423 53.7338 92.5337C54.0032 92.3558 54.2761 92.3527 54.6178 92.2896Z" fill="#F5F5F5"/>
  <path d="M72.8479 92.176C72.9852 92.1398 73.0313 92.1502 73.1747 92.145C73.4847 93.1051 73.7085 94.7499 73.9747 95.8289C75.0507 100.194 75.8016 104.7 76.9065 109.053L71.7152 110.344L71.5015 110.328C71.1733 109.888 68.0365 94.8296 67.6885 93.2054C69.4614 92.9613 71.1078 92.5805 72.8479 92.176Z" fill="#F5F5F5"/>
  <path d="M73.5077 103.567C73.8374 103.527 73.8315 103.512 74.1485 103.589C74.4685 103.895 74.7013 104.497 74.8131 104.927C75.3423 106.965 74.5202 106.831 72.9508 107.054C72.4474 107.116 72.5354 107.179 72.1315 107.006C71.5888 106.382 71.2621 104.842 71.7156 104.07C71.8859 103.782 73.1376 103.628 73.5077 103.567Z" fill="#1C1D24"/>
  <path d="M73.5524 104.397L73.6587 104.432C73.8515 104.789 73.9689 105.554 74.0554 105.982L72.8464 106.215L72.712 106.191C72.5221 105.912 72.3915 104.99 72.318 104.607L73.5524 104.397Z" fill="#F5F5F5"/>
  <path d="M72.8533 98.7998C73.7129 99.1071 74.002 101.031 73.7786 101.805C73.4335 102.247 72.0218 102.37 71.4021 102.469C70.5251 102.373 70.3793 100.185 70.5393 99.5271C70.8962 99.1071 72.2441 98.9239 72.8533 98.7998Z" fill="#1C1D24"/>
  <path d="M72.3461 99.7392L72.5599 99.7236C72.8216 100.011 72.917 100.854 72.9988 101.299L71.8513 101.549L71.6551 101.502C71.4235 100.881 71.2378 100.63 71.4411 100.039C71.7886 99.7371 71.8017 99.825 72.3461 99.7392Z" fill="#F5F5F5"/>
  <path d="M71.7486 94.1425C72.1288 94.1487 71.9692 94.0877 72.2532 94.306C72.6198 95.0891 72.9032 96.194 72.749 97.0526C72.3748 97.5244 71.2248 97.6237 70.5702 97.7437C70.3365 97.752 70.0947 97.812 69.9309 97.5802C69.512 96.9895 69.4362 95.5391 69.3604 94.8129C70.1024 94.4674 70.9506 94.3132 71.7486 94.1425Z" fill="#1C1D24"/>
  <path d="M71.492 94.9785C71.7358 95.082 71.9109 96.313 71.9758 96.6203L70.7274 96.8913L70.6665 96.8841C70.4796 96.6937 70.2908 95.6158 70.2001 95.2403L71.492 94.9785Z" fill="#F5F5F5"/>
  <path d="M63.8315 107.499C63.9014 107.577 64.8241 111.377 65.0077 111.94C63.9255 112.154 62.6668 112.481 61.5789 112.738C61.4138 112.523 60.6188 109.05 60.3947 108.336C61.5453 108.041 62.6617 107.817 63.8315 107.499Z" fill="#F5F5F5"/>
  <path d="M62.0886 85.2881L62.2147 85.316C62.3467 85.6274 62.3596 85.614 62.3665 85.946C62.0446 86.3516 59.8653 86.7074 59.2289 86.8657C57.0473 87.4202 54.8696 87.9903 52.6962 88.5768L52.2529 87.263C54.3631 86.9857 56.6999 86.2936 58.7949 85.8622C59.8966 85.6357 60.9495 85.3005 62.0886 85.2881Z" fill="#F5F5F5"/>
  <path d="M103.209 44.6967C103.634 44.6517 103.796 44.7172 104.065 45.0469C104.219 45.9043 103.442 46.1348 102.763 46.3199C101.088 46.777 99.3773 47.0996 97.6776 47.4526C95.5703 47.9005 93.464 48.3592 91.3618 48.8287C85.0689 50.2265 78.9052 51.7391 72.5716 53.0877C72.1323 53.1394 71.9957 53.1929 71.6189 52.9616C71.4129 52.6536 71.4376 52.8112 71.4986 52.4821C72.0788 51.7878 74.9461 51.1691 75.9713 50.8969C78.7148 50.1707 81.4739 49.5009 84.2454 48.8877C90.6304 47.4168 96.7579 45.9285 103.209 44.6967Z" fill="#1C1D24"/>
  <path d="M112.507 83.3885C112.866 83.3709 113.21 83.4496 113.337 83.8178C113.583 84.5348 112.881 84.7975 112.377 84.932C111.193 85.2475 110.009 85.4648 108.826 85.74L101.396 87.4873C95.4906 88.9253 88.1983 90.8857 82.3491 91.9171C81.7719 91.9657 81.7222 91.9936 81.4025 91.5043C81.4046 91.3502 81.3756 91.2622 81.4718 91.1309C82.1888 90.1532 109.431 83.9772 112.507 83.3885Z" fill="#1C1D24"/>
  <path d="M113.94 90.0176C114.309 90.0765 114.296 90.0507 114.557 90.3104C114.71 90.7304 114.697 90.5235 114.612 90.9518C114.112 91.6097 110.78 92.1994 109.855 92.4115L101.913 94.1701L89.358 97.0223C87.4834 97.4299 85.3906 97.9575 83.5109 98.2224C83.1933 98.2379 83.2109 98.2203 82.9264 98.063C82.7857 97.7496 82.8033 97.9099 82.8891 97.5634C83.0536 97.3627 83.1995 97.2209 83.4581 97.1454C87.6407 95.9257 91.9277 94.9616 96.1693 93.9663C99.8904 93.087 103.622 92.2459 107.361 91.4452C109.321 91.0055 112.015 90.301 113.94 90.0176Z" fill="#1C1D24"/>
  <path d="M97.9145 60.3211C98.438 60.2905 98.7142 60.4028 98.9542 60.8862C98.9087 61.5064 98.62 61.6029 98.0635 61.7771C97.0569 62.0917 96.0058 62.2872 94.9785 62.5249C93.2261 62.9477 91.4705 63.3546 89.7118 63.7456C85.0482 64.8121 80.3691 65.8047 75.6744 66.7227C75.303 66.7439 74.9242 66.8204 74.6332 66.6214C74.4363 66.3226 74.4667 66.4786 74.5155 66.1429C75.183 65.354 78.0559 64.8269 79.1535 64.5591C81.9239 63.8935 84.7027 63.264 87.4897 62.6707C90.857 61.9284 94.6061 60.9134 97.9145 60.3211Z" fill="#1C1D24"/>
  <path d="M105.688 97.76C106.28 97.6762 106.633 97.6462 106.893 98.2348C106.807 98.8245 106.367 99.0645 105.817 99.2383C104.113 99.7783 102.313 100.056 100.583 100.483C95.5816 101.715 90.438 103.076 85.3389 103.815L84.9716 103.857C84.5806 103.905 84.4554 103.968 84.0913 103.805C83.8357 103.534 83.8937 103.687 83.873 103.345C84.2257 102.817 85.0482 102.601 85.642 102.456C87.7421 101.946 89.8514 101.454 91.9557 100.964L105.688 97.76Z" fill="#1C1D24"/>
  <path d="M104.411 21.7473C105.119 21.7129 105.969 21.7093 106.348 22.4444C106.82 23.3619 108.523 28.5602 107.776 29.1449C106.794 28.8541 106.56 23.7342 105.573 22.772C105.215 22.423 104.214 22.6027 103.73 22.6488C101.87 22.863 96.4372 24.6243 95.1699 24.2539L95.1647 24.1208C96.2427 23.3007 102.731 21.8848 104.411 21.7473Z" fill="#1C1D24"/>
  <path d="M28.738 39.6816C28.9935 39.8369 29.0725 39.945 29.1359 40.2484C30.0067 44.4104 30.7963 48.5843 31.7151 52.7373C31.7905 53.0784 31.7179 53.2119 31.5583 53.4912C31.2778 53.3855 31.0984 53.2473 31.0286 52.9495C30.5461 50.8925 28.1051 40.98 28.738 39.6816Z" fill="#1C1D24"/>
  <path d="M124.303 101.192C124.736 101.306 124.878 101.467 125.026 101.906C126.056 104.944 126.73 108.176 127.275 111.335C127.41 112.111 127.366 112.68 127.067 113.396C126.899 113.353 126.872 113.322 126.716 113.238C126.426 112.44 126.372 110.813 126.132 109.672C125.574 107.02 124.866 104.169 124.176 101.52C124.218 101.41 124.261 101.302 124.303 101.192Z" fill="#1C1D24"/>
  <path d="M32.0377 56.9019C32.3035 56.9771 32.3728 56.9395 32.5079 57.1153C32.9167 57.6472 33.0709 58.9889 33.0173 59.6214C32.0303 59.6259 31.8994 57.5899 32.0377 56.9019Z" fill="#1C1D24"/>
  <path d="M122.885 95.5425C123.733 95.8115 123.913 97.3229 123.698 98.0677C122.973 97.9488 122.686 96.0815 122.885 95.5425Z" fill="#1C1D24"/>
  <path d="M23.5848 105.352C24.3912 105.932 24.4531 109.282 24.5479 110.394C25.1977 110.331 28.8199 109.797 28.9349 110.735C28.2334 111.49 25.7428 111.477 24.6709 111.534C24.7341 112.695 25.1194 115.652 24.5535 116.531C24.102 116.482 24.2924 116.564 23.9474 116.312C23.5381 115.559 23.5382 112.688 23.4814 111.604C22.556 111.684 19.8836 111.93 19.2077 111.401C19.1973 110.554 22.5888 110.552 23.3994 110.481C23.3024 108.942 22.8297 106.561 23.5848 105.352Z" fill="#1C1D24"/>
  <path d="M130.875 37.8701L131.131 37.9267C131.787 38.5153 131.834 41.4302 131.909 42.4165C132.87 42.3381 135.62 41.9065 136.293 42.5205C136.363 42.8727 136.388 42.7093 136.206 43.0261C135.485 43.5035 133.018 43.5339 131.985 43.606C132.17 44.8311 132.299 47.0423 132.175 48.2151C131.784 48.3812 131.733 48.3822 131.402 48.1718C130.918 47.4142 130.973 44.6797 130.942 43.6573C129.95 43.7087 127.303 43.9685 126.671 43.2381L126.773 43.0355C127.668 42.5187 129.689 42.5377 130.794 42.4862C130.718 41.0035 130.536 39.2898 130.875 37.8701Z" fill="#1C1D24"/>
  <path d="M123.525 26.0171C124.359 26.1123 125.058 26.4515 125.149 27.386C125.195 27.8571 125.039 28.3253 124.719 28.6747C123.926 29.5247 123.016 29.038 122.357 28.3478C122.225 27.7605 122.241 27.7266 122.384 27.1202L122.673 26.9811C122.944 27.4381 123.127 27.8276 123.525 28.1742C123.959 28.2726 124.258 28.0757 124.337 27.6114C124.404 27.2195 123.577 27.0466 123.297 26.6236C123.314 26.2236 123.279 26.4217 123.525 26.0171Z" fill="#1C1D24"/>
  <path d="M34.0628 119.461C36.3907 119.393 35.405 122.857 33.3012 121.378C33.0726 120.833 33.0555 120.643 33.268 120.091C33.5342 119.973 33.3934 119.991 33.7063 120.104C33.8697 120.527 33.8911 120.645 34.1687 120.988L34.3335 120.997C34.5171 120.819 34.5568 120.688 34.5722 120.439C34.0631 120.048 33.9592 120.088 34.0628 119.461Z" fill="#1C1D24"/>
  <path d="M128.407 64.4741C128.556 64.501 128.696 64.5435 128.843 64.5827L128.947 64.7672C128.825 65.0098 128.781 65.0436 128.758 65.3084L128.891 65.4142C129.388 65.1268 129.162 65.0125 129.656 64.9328C129.88 65.29 129.767 65.5391 129.682 65.9766C128.461 67.1214 127.148 65.855 128.407 64.4741Z" fill="#1C1D24"/>
  <path d="M28.938 94.1001C30.531 94.1218 30.5482 95.8339 28.8952 95.9571C28.5848 95.7129 28.3381 95.447 28.2999 95.0353C28.4861 94.9205 28.7843 95.0125 29.0645 95.0446C29.2287 94.6825 28.8141 94.8718 28.938 94.1001Z" fill="#F5F5F5"/>
</svg>
