<svg xmlns="http://www.w3.org/2000/svg" width="156" height="156" viewBox="0 0 156 156" fill="none">
  <rect width="156" height="156" fill="#F5F5F5"/>
  <path d="M24.9029 35.7842C25.8613 35.4327 26.8332 35.1196 27.8165 34.8457C32.1137 33.6373 37.2781 32.5832 41.675 31.6101C51.9 29.4065 62.1368 27.2581 72.3849 25.1652C78.239 23.9531 84.084 22.6997 89.9197 21.4048C95.1875 20.2011 100.531 18.9321 105.86 18.008C106.574 17.8695 107.951 17.7401 108.568 18.2278C109.578 19.0253 109.983 21.9491 110.231 23.0852C110.675 25.0606 111.098 27.0404 111.502 29.0243C112.649 34.7497 113.885 40.457 115.209 46.1442L115.311 46.3578C115.622 46.399 116.386 46.1806 116.68 46.0843C122.412 44.207 124.186 51.0846 118.371 52.2904C117.85 52.3985 117.169 52.6653 116.683 52.7515C119.361 64.1026 122.104 75.4384 124.911 86.7578L129.648 105.486C130.217 107.81 130.846 110.118 131.363 112.454C131.675 113.54 131.921 115.994 130.684 116.626C128.655 117.663 125.856 118.232 123.657 118.809C119.449 119.917 115.228 120.978 110.995 121.99C99.3597 124.882 87.7048 127.691 76.0292 130.416L62.5163 133.674C59.7254 134.366 51.2156 136.823 48.8555 136.196C48.0821 135.991 47.4271 135.476 47.0428 134.774C46.7678 134.272 45.9836 131.309 45.7978 130.627C44.9891 127.671 44.1988 124.71 43.427 121.745C38.5417 102.984 34.1136 84.1073 30.1465 65.1313L26.587 48.1583C25.8786 44.7001 25.145 41.2086 24.6503 37.7053C24.5473 36.9753 24.6965 36.4676 24.9029 35.7842Z" fill="#F5F5F5"/>
  <path d="M24.9029 35.7842C25.8613 35.4327 26.8332 35.1196 27.8165 34.8457C32.1137 33.6373 37.2781 32.5832 41.675 31.6101C51.9 29.4065 62.1368 27.2581 72.3849 25.1652C78.239 23.9531 84.084 22.6997 89.9197 21.4048C95.1875 20.2011 100.531 18.9321 105.86 18.008C106.574 17.8695 107.951 17.7401 108.568 18.2278C109.578 19.0253 109.983 21.9491 110.231 23.0852C110.675 25.0606 111.098 27.0404 111.502 29.0243C112.649 34.7497 113.885 40.457 115.209 46.1442C114.898 46.5943 114.174 46.7966 113.653 46.7515C112.537 41.1727 111.217 35.4688 110.036 29.8852C109.596 27.7277 109.145 25.5725 108.684 23.4196C108.463 22.3913 108.095 20.3869 107.652 19.4993C105.753 19.2349 90.1132 23.0038 86.6734 23.7459L48.5852 31.7154L35.1857 34.5899C31.9827 35.2894 28.8345 36.0527 25.5895 36.5559C26.2875 38.4528 26.8492 41.916 27.2835 44.0464L30.1571 57.9525C32.0131 66.7576 33.9254 75.5508 35.8938 84.3308C38.4495 95.5429 41.1669 106.717 44.045 117.85C45.3934 123.105 46.743 128.386 48.2379 133.605C48.3557 134.017 48.6121 134.565 48.9574 134.833C49.7945 135.047 51.0173 134.822 51.8562 134.628C57.086 133.421 62.2903 132.092 67.5164 130.855L106.925 121.341C112.519 119.985 118.103 118.595 123.679 117.17C125.556 116.684 127.64 116.241 129.422 115.523C130.428 115.117 129.835 112.89 129.655 112.135C127.287 102.145 124.613 92.2314 122.171 82.2607L117.057 61.2095C116.425 58.628 115.849 55.7786 115.159 53.248C115.397 52.9594 116.305 52.7338 116.683 52.7515C119.361 64.1026 122.104 75.4384 124.911 86.7578L129.648 105.486C130.217 107.81 130.846 110.118 131.363 112.454C131.675 113.54 131.921 115.994 130.684 116.626C128.655 117.663 125.856 118.232 123.657 118.809C119.449 119.917 115.228 120.978 110.995 121.99C99.3597 124.882 87.7048 127.691 76.0292 130.416L62.5163 133.674C59.7254 134.366 51.2156 136.823 48.8555 136.196C48.0821 135.991 47.4271 135.476 47.0428 134.774C46.7678 134.272 45.9836 131.309 45.7978 130.627C44.9891 127.671 44.1988 124.71 43.427 121.745C38.5417 102.984 34.1136 84.1073 30.1465 65.1313L26.587 48.1583C25.8786 44.7001 25.145 41.2086 24.6503 37.7053C24.5473 36.9753 24.6965 36.4676 24.9029 35.7842Z" fill="#1C1D24"/>
</svg>
