<svg xmlns="http://www.w3.org/2000/svg" width="156" height="156" viewBox="0 0 156 156" fill="none">
  <rect width="156" height="156" fill="#F5F5F5"/>
  <path d="M128.43 48.2303C131.873 46.3268 135.351 44.4876 138.863 42.7137C139.821 42.2306 142.307 40.7607 143.141 40.9128L143.289 41.0567C143.078 42.0475 139.319 43.8437 138.25 44.3203C135.228 45.6689 132.02 47.6236 128.932 48.7195C136.028 55.3781 142.596 71.9747 142.826 81.7814C142.848 82.7141 142.819 83.8763 142.787 84.8262C144.640 83.9996 146.487 83.1537 148.323 82.2897C149.524 81.7228 153.192 79.839 154.270 79.9947L154.425 80.1372C154.375 80.6313 153.959 80.8658 153.541 81.0719C150.072 82.7828 146.267 84.7626 142.685 86.1642C142.069 88.9423 141.776 88.7948 139.100 89.7124C134.328 91.3485 129.814 93.6748 125.020 95.2352C121.570 96.2973 118.600 94.172 117.135 91.0494C116.631 91.4405 116.119 91.8002 115.610 92.1822C113.574 93.7092 111.775 95.3221 109.650 96.7541C112.282 100.672 109.630 107.077 104.046 104.845C104.394 108.290 102.853 110.683 99.2815 111.343C98.5236 111.483 97.6494 111.291 96.9006 111.104C96.8026 112.731 96.3771 113.824 95.1179 114.914C93.1635 116.608 91.1979 116.719 88.8433 116.003C87.5770 119.745 83.4700 120.297 80.2129 119.042C79.1266 118.624 78.2635 118.192 77.2479 117.626C73.8710 119.607 69.2460 122.413 65.9751 117.854C65.6119 117.348 65.6289 116.286 65.6318 115.677C62.7019 117.335 59.8983 117.115 57.9069 114.007C57.3281 113.103 57.4615 111.967 57.5688 110.941C56.0186 111.683 54.7219 112.043 52.9921 111.436C51.6758 110.986 50.6072 110.007 50.0447 108.734C49.5664 107.638 49.5077 106.440 49.7227 105.278C49.5114 105.187 48.4930 105.450 48.1246 105.493C43.7673 105.997 41.2657 99.9829 43.6330 96.8430C41.6356 95.3524 40.3949 94.3853 38.1057 93.3504C37.1037 95.5121 35.9433 97.6949 33.6973 98.8510C33.3226 98.8288 32.9013 98.8197 32.5380 98.7439C29.5391 99.6191 23.6691 97.8839 20.6879 96.8208C20.2709 96.7561 19.8658 96.5651 19.4694 96.4064C18.5017 96.0477 17.5250 95.7132 16.5406 95.4029C12.9533 94.166 7.88869 93.687 7.02828 89.1161C5.59791 88.5189 2.50949 87.8125 1.57541 86.8029L1.58289 86.6321L1.76590 86.5099C2.58558 86.4785 5.79255 87.5750 6.77877 87.8903C6.66872 85.5609 7.61239 81.1710 8.20762 78.8456C8.33404 78.1999 8.49867 77.7350 8.70695 77.1105C8.89684 76.1507 9.60919 74.2242 9.94228 73.2860C10.0054 73.0067 10.2929 72.3269 10.4099 72.0279C10.5544 71.4788 11.0063 70.3631 11.2190 69.7888C11.7223 68.3631 14.6656 61.4752 15.4862 60.3337C16.8458 57.0269 19.4513 52.0338 21.3910 49.0341C20.0844 48.4944 9.08551 44.1273 8.92998 43.0046C9.31451 42.8431 10.2229 43.0998 10.6150 43.2618C13.4610 44.4377 16.2189 45.8260 19.0783 46.9795C20.0048 47.3532 20.9563 47.7643 21.8332 48.2382C22.5024 47.3976 23.0438 47.1066 24.0092 46.7374C25.5178 46.0609 26.8947 46.2611 28.3615 46.8647C29.4294 47.3042 31.0793 48.0783 32.0888 48.5458C34.2437 49.5437 42.5647 52.5313 43.9463 53.7469C48.0121 55.7635 48.5494 55.5153 47.4740 60.0826C50.3585 60.7785 52.8956 61.6039 55.9350 61.3317C58.5888 61.0941 60.9179 60.3293 63.4514 59.6356C67.2209 58.6036 73.7980 56.0091 77.1691 59.1336C80.3382 57.9085 82.1997 56.4262 85.9197 57.0654C90.4329 57.8408 94.5591 59.7507 98.9248 61.0544C102.461 62.1526 103.213 62.6535 106.863 61.5545C106.038 58.8469 106.191 55.6977 109.004 54.1270C111.271 52.8615 114.009 51.9853 116.425 50.9112C117.802 50.3020 119.166 49.6613 120.513 48.9897C123.341 47.5717 125.624 45.7510 128.430 48.2303Z" fill="#1C1D24"/>
  <path d="M72.0977 58.6816C73.7248 58.5821 74.7867 58.9345 76.1979 59.6541C74.3681 60.5414 72.5321 61.4160 70.6900 62.2776C68.4905 63.2837 66.0124 64.0383 64.6409 66.1522C63.4240 68.0539 62.6106 70.1739 61.5459 72.1762C60.5378 74.0722 59.0248 76.0572 58.1710 77.9993C56.4802 81.8445 61.5392 83.4685 64.5193 82.6196C68.8508 81.3847 71.6504 78.4924 73.9695 74.7613C75.6502 74.4463 79.1447 73.4017 80.6869 72.6937C83.0931 74.3202 85.9863 76.2101 88.2814 77.8729C91.2110 80.0821 93.8304 82.6671 96.5256 85.1228C99.4048 87.7463 102.108 90.2100 104.705 93.1256C105.226 93.7097 108.443 97.6903 108.779 97.8045C108.858 97.6823 108.935 97.5600 109.007 97.4337C110.044 99.1729 109.563 102.818 107.709 103.763C106.801 104.225 105.951 104.562 104.992 104.065C101.068 102.030 97.8849 98.5776 94.4135 95.8693C92.7754 94.5848 91.4010 93.4479 89.8558 92.1322C89.0090 91.4096 88.3420 89.8068 87.5002 89.6441L87.3819 89.7816C87.3931 90.6931 88.3289 92.0786 88.9999 92.7031C92.2357 95.7197 95.8000 98.4180 99.1511 101.315C100.468 102.452 101.914 103.485 103.330 104.495C102.887 106.402 103.330 107.687 101.505 109.137C99.4624 110.752 97.2543 110.442 95.2422 109.034C92.8724 107.376 90.6997 105.542 88.4532 103.733C87.3062 102.813 86.1399 101.918 84.9545 101.047C84.3462 100.597 82.9900 99.5205 82.2613 99.4427L82.1623 99.5538C82.2694 100.258 82.6262 100.524 83.1284 100.996C84.5341 102.188 86.3704 103.502 87.8529 104.692C90.4794 106.800 93.1089 109.095 96.0193 110.768C95.8536 111.198 95.6960 111.803 95.5383 112.265C95.1654 113.354 94.0275 114.445 92.9977 114.902C89.3657 116.371 85.7640 112.907 83.0698 110.889C81.1002 109.415 79.1872 107.717 76.9457 106.648C76.5920 106.478 75.9463 106.432 75.8240 106.914C76.1474 107.535 77.4833 108.137 78.1018 108.546C81.4337 110.753 84.4634 113.855 88.0398 115.659C84.4018 120.801 79.3842 117.910 75.2480 115.060C76.4152 111.924 75.8786 107.937 71.6807 108.164C72.4639 106.518 73.0249 104.854 72.2278 103.059C71.8132 102.100 71.0201 101.357 70.0373 101.004C68.6154 100.502 67.3881 100.863 66.1157 101.489C68.4509 94.3019 59.3224 93.5530 56.4178 98.7908C56.6472 97.4448 56.6177 95.9713 55.6354 94.9416C52.4599 91.6117 48.2296 95.0729 45.8731 97.1739C42.6517 94.6637 40.5171 92.8992 36.5401 91.6491C37.3996 88.8336 39.4337 84.5963 40.5636 81.6040C43.0855 74.8578 45.2957 67.9987 47.1868 61.0488C55.4281 63.8559 58.6957 62.0999 66.6375 59.9006C68.3958 59.4136 70.2808 58.8335 72.0977 58.6816Z" fill="#F5F5F5"/>
  <path d="M61.5296 96.5485C61.8990 96.5283 62.4041 96.4869 62.7638 96.5556C64.1841 96.8275 65.8201 98.1938 65.3689 99.7905C65.3338 99.9865 65.2568 100.252 65.0745 100.380C64.0406 101.104 62.8501 102.723 61.5215 102.702C60.9373 102.693 60.3194 102.251 59.9761 101.862C58.6164 100.321 61.0767 98.5262 61.2136 97.2337L61.0837 97.1023C60.1353 97.3459 58.7794 99.8006 58.7633 100.816C58.7527 101.562 59.0519 102.280 59.5895 102.797C60.1520 103.331 60.9133 103.602 61.6868 103.547C63.0459 103.441 63.9501 102.464 64.7833 101.525C64.1887 102.494 63.7402 103.183 63.0685 104.108C61.7746 105.609 58.8898 109.216 57.1482 110.067C53.3804 111.907 49.3879 108.719 51.0886 104.428C52.6912 103.254 54.0621 102.072 55.3683 100.569C56.9371 98.7617 59.2056 97.1559 61.5296 96.5485Z" fill="#F5F5F5"/>
  <path d="M68.2136 101.911C68.2908 101.909 68.3681 101.908 68.4454 101.909C68.9462 101.915 69.9398 102.147 70.2697 102.447C73.8322 105.683 67.7886 111.814 65.6031 114.271C64.7996 115.175 63.0848 115.666 61.9313 115.573C59.1869 114.901 58.0617 113.097 58.6872 110.373C60.3267 108.900 61.8396 107.270 63.2641 105.589C64.9003 103.657 65.5336 102.418 68.2136 101.911Z" fill="#F5F5F5"/>
  <path d="M51.9422 94.7314C54.4844 94.5344 56.2743 96.2220 55.0791 98.8172C54.2129 100.697 52.4316 101.957 50.8907 103.249C49.4463 104.459 47.8563 104.853 46.1133 103.947C43.3667 102.093 43.4977 100.151 44.1631 97.2669C44.2525 97.3296 44.3410 97.3933 44.4288 97.4580C45.3037 98.1067 44.6810 98.3927 45.1330 98.9122C45.6862 98.9273 48.4192 96.2847 49.3811 95.8036C50.5399 95.2236 50.5026 95.0538 51.9422 94.7314Z" fill="#F5F5F5"/>
</svg>
