<svg xmlns="http://www.w3.org/2000/svg" width="156" height="156" viewBox="0 0 156 156" fill="none">
  <rect width="156" height="156" fill="#F5F5F5"/>
  <path d="M128.43 48.2303C131.873 46.3268 135.351 44.4876 138.863 42.7137C139.821 42.2306 142.307 40.7607 143.141 40.9128L143.289 41.0567C143.078 42.0475 139.319 43.8437 138.250 44.3203C135.228 45.6689 132.020 47.6236 128.932 48.7195C136.028 55.3781 142.596 71.9747 142.826 81.7814C142.848 82.7141 142.819 83.8763 142.787 84.8262C144.640 83.9996 146.487 83.1537 148.323 82.2897C149.524 81.7228 153.192 79.8390 154.270 79.9947L154.425 80.1372C154.375 80.6313 153.959 80.8658 153.541 81.0719C150.072 82.7828 146.267 84.7626 142.685 86.1642C142.069 88.9423 141.776 88.7948 139.100 89.7124C134.328 91.3485 129.814 93.6748 125.020 95.2352C121.570 96.2973 118.600 94.1720 117.135 91.0494C116.631 91.4405 116.119 91.8002 115.610 92.1822C113.574 93.7092 111.775 95.3221 109.650 96.7541C112.282 100.672 109.630 107.077 104.046 104.845C104.394 108.290 102.853 110.683 99.2815 111.343C98.5236 111.483 97.6494 111.291 96.9006 111.104C96.8026 112.731 96.3771 113.824 95.1179 114.914C93.1635 116.608 91.1979 116.719 88.8433 116.003C87.5770 119.745 83.4700 120.297 80.2129 119.042C79.1266 118.624 78.2635 118.192 77.2479 117.626C73.8710 119.607 69.2460 122.413 65.9751 117.854C65.6119 117.348 65.6289 116.286 65.6318 115.677C62.7019 117.335 59.8983 117.115 57.9069 114.007C57.3281 113.103 57.4615 111.967 57.5688 110.941C56.0186 111.683 54.7219 112.043 52.9921 111.436C51.6758 110.986 50.6072 110.007 50.0447 108.734C49.5664 107.638 49.5077 106.440 49.7227 105.278C49.5114 105.187 48.4930 105.450 48.1246 105.493C43.7673 105.997 41.2657 99.9829 43.6330 96.8430C41.6356 95.3524 40.3949 94.3853 38.1057 93.3504C37.1037 95.5121 35.9433 97.6949 33.6973 98.8510C33.3226 98.8288 32.9013 98.8197 32.5380 98.7439C29.5391 99.6191 23.6691 97.8839 20.6879 96.8208C20.2709 96.7561 19.8658 96.5651 19.4694 96.4064C18.5017 96.0477 17.5250 95.7132 16.5406 95.4029C12.9533 94.1660 7.88869 93.6870 7.02828 89.1161C5.59791 88.5189 2.50949 87.8125 1.57541 86.8029L1.58289 86.6321L1.76590 86.5099C2.58558 86.4785 5.79255 87.5750 6.77877 87.8903C6.66872 85.5609 7.61239 81.1710 8.20762 78.8456C8.33404 78.1999 8.49867 77.7350 8.70695 77.1105C8.89684 76.1507 9.60919 74.2242 9.94228 73.2860C10.0054 73.0067 10.2929 72.3269 10.4099 72.0279C10.5544 71.4788 11.0063 70.3631 11.2190 69.7888C11.7223 68.3631 14.6656 61.4752 15.4862 60.3337C16.8458 57.0269 19.4513 52.0338 21.3910 49.0341C20.0844 48.4944 9.08551 44.1273 8.92998 43.0046C9.31451 42.8431 10.2229 43.0998 10.6150 43.2618C13.4610 44.4377 16.2189 45.8260 19.0783 46.9795C20.0048 47.3532 20.9563 47.7643 21.8332 48.2382C22.5024 47.3976 23.0438 47.1066 24.0092 46.7374C25.5178 46.0609 26.8947 46.2611 28.3615 46.8647C29.4294 47.3042 31.0793 48.0783 32.0888 48.5458C34.2437 49.5437 42.5647 52.5313 43.9463 53.7469C48.0121 55.7635 48.5494 55.5153 47.4740 60.0826C50.3585 60.7785 52.8956 61.6039 55.9350 61.3317C58.5888 61.0941 60.9179 60.3293 63.4514 59.6356C67.2209 58.6036 73.7980 56.0091 77.1691 59.1336C80.3382 57.9085 82.1997 56.4262 85.9197 57.0654C90.4329 57.8408 94.5591 59.7507 98.9248 61.0544C102.461 62.1526 103.213 62.6535 106.863 61.5545C106.038 58.8469 106.191 55.6977 109.004 54.1270C111.271 52.8615 114.009 51.9853 116.425 50.9112C117.802 50.3020 119.166 49.6613 120.513 48.9897C123.341 47.5717 125.624 45.7510 128.430 48.2303Z" fill="#1C1D24"/>
  <path d="M9.94224 73.2861C10.398 74.0378 9.89706 76.2956 10.0458 77.2572C9.92607 77.812 9.25292 81.1267 9.1359 81.445C9.02099 82.1443 8.89669 83.071 8.74521 83.7471C8.53814 85.363 8.38716 86.8344 8.39019 88.4655C7.89269 88.2775 7.28351 88.0239 6.77873 87.8905C6.66868 85.5611 7.61235 81.1712 8.20758 78.8458C8.33400 78.2001 8.49863 77.7352 8.70691 77.1107C8.89680 76.1509 9.60915 74.2244 9.94224 73.2861Z" fill="#BEEDC6"/>
  <path d="M9.94226 73.2861C10.398 74.0378 9.89708 76.2956 10.0458 77.2572C9.92609 77.812 9.25294 81.1267 9.13592 81.445L9.0287 81.1964L8.98858 81.4107C8.71976 80.7376 8.67449 77.9282 8.70693 77.1107C8.89682 76.1509 9.60917 74.2244 9.94226 73.2861Z" fill="#BEEDC6"/>
  <path d="M8.70694 77.1104C8.6745 77.9279 8.71977 80.7373 8.98858 81.4104L9.0287 81.1961L9.13593 81.4447C9.02102 82.144 8.89672 83.0707 8.74524 83.7468C8.60315 83.1526 8.59436 80.896 8.46925 80.1188C8.40882 79.7439 8.56808 79.463 8.40579 78.892L8.20761 78.8455C8.33403 78.1998 8.49866 77.7349 8.70694 77.1104Z" fill="#BEEDC6"/>
  <path d="M18.9269 94.8302C21.3112 95.5184 23.6897 96.2269 26.0622 96.9545C28.0106 97.5568 30.5664 98.3632 32.5380 98.7442C29.5391 99.6194 23.6692 97.8842 20.6880 96.8211C20.2709 96.7564 19.8659 96.5654 19.4694 96.4067C18.5017 96.0480 17.5251 95.7135 16.5407 95.4032L16.3800 95.0212C16.8865 94.6524 18.0013 94.8899 18.8002 94.8393L18.9269 94.8302Z" fill="#BEEDC6"/>
  <path d="M19.4694 96.4066C20.3564 96.5147 21.6213 96.1408 22.3339 96.4682C21.6493 96.7158 21.0411 96.5531 20.6879 96.8209C20.2708 96.7562 19.8658 96.5652 19.4694 96.4066Z" fill="#BEEDC6"/>
  <path d="M7.02826 89.1162C7.491 89.2304 7.95142 89.3476 8.41821 89.4426C8.55969 91.4506 8.38324 92.0206 10.4234 92.6401C13.221 93.4910 16.1868 93.8275 18.9269 94.830L18.8002 94.8391C18.0013 94.8896 16.8864 94.6522 16.3799 95.0210L16.5406 95.4030C12.9533 94.1661 7.88866 93.6870 7.02826 89.1162Z" fill="#BEEDC6"/>
  <path d="M24.0092 46.7376C25.5178 46.0611 26.8947 46.2613 28.3614 46.8649C29.4294 47.3044 31.0793 48.0785 32.0887 48.5460C34.2437 49.5439 42.5647 52.5315 43.9462 53.7470C43.4997 53.6157 42.4253 53.0925 41.9240 52.8680C40.7732 52.3460 39.6100 51.8518 38.4354 51.3858C34.2671 49.7412 29.6082 48.6579 25.4606 46.8018C24.9933 46.5927 24.5215 46.6974 24.0092 46.7376Z" fill="#BEEDC6"/>
  <path d="M11.2190 69.7886C11.7223 68.3629 14.6656 61.4750 15.4862 60.3335C13.9021 64.6749 12.7791 67.4837 11.4556 72.0077C11.3562 72.3984 11.2418 72.928 11.1002 73.2913C10.8094 74.5363 10.4368 76.0447 10.0458 77.2568C9.89709 76.2952 10.398 74.0374 9.94226 73.2858C10.0054 73.0065 10.2929 72.3267 10.4099 72.0277C10.5544 71.4786 11.0063 70.3629 11.2190 69.7886Z" fill="#BEEDC6"/>
  <path d="M9.94226 73.2859C10.0054 73.0067 10.2929 72.3269 10.4099 72.0278C10.5027 73.0261 10.4278 74.0636 10.4027 75.0735C10.5446 74.5651 10.7328 73.5285 11.1002 73.2915C10.8094 74.5365 10.4368 76.0449 10.0458 77.2570C9.89709 76.2954 10.398 74.0376 9.94226 73.2859Z" fill="#BEEDC6"/>
  <path d="M72.0977 58.6816C73.7248 58.5821 74.7867 58.9345 76.1979 59.6541C74.3681 60.5414 72.5321 61.4160 70.6900 62.2776C68.4905 63.2837 66.0124 64.0383 64.6409 66.1522C63.4240 68.0539 62.6106 70.1739 61.5459 72.1762C60.5378 74.0722 59.0248 76.0572 58.1710 77.9993C56.4802 81.8445 61.5392 83.4685 64.5193 82.6196C68.8508 81.3847 71.6504 78.4924 73.9695 74.7613C75.6502 74.4463 79.1447 73.4017 80.6869 72.6937C83.0931 74.3202 85.9863 76.2101 88.2814 77.8729C91.2110 80.0821 93.8304 82.6671 96.5256 85.1228C99.4048 87.7463 102.108 90.2100 104.705 93.1256C105.226 93.7097 108.443 97.6903 108.779 97.8045C108.858 97.6823 108.935 97.5600 109.007 97.4337C110.044 99.1729 109.563 102.818 107.709 103.763C106.801 104.225 105.951 104.562 104.992 104.065C101.068 102.030 97.8849 98.5776 94.4135 95.8693C92.7754 94.5848 91.4010 93.4479 89.8558 92.1322C89.0090 91.4096 88.3420 89.8068 87.5002 89.6441L87.3819 89.7816C87.3931 90.6931 88.3289 92.0786 88.9999 92.7031C92.2357 95.7197 95.8000 98.4180 99.1511 101.315C100.468 102.452 101.914 103.485 103.330 104.495C102.887 106.402 103.330 107.687 101.505 109.137C99.4624 110.752 97.2543 110.442 95.2422 109.034C92.8724 107.376 90.6997 105.542 88.4532 103.733C87.3062 102.813 86.1399 101.918 84.9545 101.047C84.3462 100.597 82.9900 99.5205 82.2613 99.4427L82.1623 99.5538C82.2694 100.258 82.6262 100.524 83.1284 100.996C84.5341 102.188 86.3704 103.502 87.8529 104.692C90.4794 106.800 93.1089 109.095 96.0193 110.768C95.8536 111.198 95.6960 111.803 95.5383 112.265C95.1654 113.354 94.0275 114.445 92.9977 114.902C89.3657 116.371 85.7640 112.907 83.0698 110.889C81.1002 109.415 79.1872 107.717 76.9457 106.648C76.5920 106.478 75.9463 106.432 75.8240 106.914C76.1474 107.535 77.4833 108.137 78.1018 108.546C81.4337 110.753 84.4634 113.855 88.0398 115.659C84.4018 120.801 79.3842 117.910 75.2480 115.060C76.4152 111.924 75.8786 107.937 71.6807 108.164C72.4639 106.518 73.0249 104.854 72.2278 103.059C71.8132 102.100 71.0201 101.357 70.0373 101.004C68.6154 100.502 67.3881 100.863 66.1157 101.489C68.4509 94.3019 59.3224 93.5530 56.4178 98.7908C56.6472 97.4448 56.6177 95.9713 55.6354 94.9416C52.4599 91.6117 48.2296 95.0729 45.8731 97.1739C42.6517 94.6637 40.5171 92.8992 36.5401 91.6491C37.3996 88.8336 39.4337 84.5963 40.5636 81.6040C43.0855 74.8578 45.2957 67.9987 47.1868 61.0488C55.4281 63.8559 58.6957 62.0999 66.6375 59.9006C68.3958 59.4136 70.2808 58.8335 72.0977 58.6816Z" fill="#F5F5F5"/>
  <path d="M39.9796 90.1631C41.2972 90.1914 43.7277 91.7659 44.6516 92.7572C44.8884 93.0119 44.8527 93.1281 44.8193 93.4323C44.7503 93.4161 44.5482 93.3747 44.4612 93.3151C43.0301 92.3368 41.4566 91.490 40.0715 90.4723C40.0409 90.3692 40.0103 90.2662 39.9796 90.1631Z" fill="#1C1D24"/>
  <path d="M100.783 105.677L100.989 105.881C101.221 107.023 99.8555 108.211 98.9723 108.737C98.7409 108.545 98.7479 108.560 98.5953 108.304C98.6732 108.000 99.3886 107.558 99.7049 107.154C100.096 106.653 100.414 106.189 100.783 105.677Z" fill="#1C1D24"/>
  <path d="M103.383 94.7505C103.654 94.8617 103.538 94.7798 103.702 95.0496C103.831 96.2603 102.599 97.4508 101.596 97.9368L101.444 97.7954C101.340 97.4093 102.441 96.5180 102.712 96.0834C103.016 95.6004 103.165 95.2679 103.383 94.7505Z" fill="#1C1D24"/>
  <path d="M93.5879 111.758C93.7618 111.838 93.6779 111.774 93.8032 111.988C93.6961 112.904 92.3520 113.701 91.5779 114.067C91.5223 114.041 91.4202 113.953 91.3657 113.912C91.4293 113.486 93.1059 112.204 93.5879 111.758Z" fill="#1C1D24"/>
  <path d="M101.913 94.2749C102.113 94.4376 102.047 94.3608 102.151 94.6145C102.045 95.2936 101.018 96.3324 100.520 96.8994C100.306 96.7377 100.391 96.8327 100.293 96.5871C100.383 95.8858 101.409 94.7822 101.913 94.2749Z" fill="#1C1D24"/>
  <path d="M83.9561 115.925C84.1663 115.950 84.0662 115.907 84.2370 116.092C84.0986 116.727 83.1789 117.113 82.6252 117.290C82.4392 117.105 82.4998 117.214 82.4392 116.966C82.7343 116.580 83.4892 116.207 83.9561 115.925Z" fill="#1C1D24"/>
  <path d="M24.4019 47.3555L25.5825 47.9109C28.1174 48.9542 30.4726 49.9108 33.0626 50.7872C33.5494 50.9465 34.2085 51.1424 34.6734 51.3216C35.9615 51.6919 39.8751 53.0115 40.9555 53.7142L42.1441 54.2530C43.3005 54.7278 46.4062 56.1203 47.4276 56.7814C46.5280 58.2955 46.0821 61.2385 45.4770 62.9913C45.3531 63.3503 45.1401 64.2020 44.9939 64.4769C44.7309 65.4257 44.4490 66.4353 44.1069 67.3560C43.9443 67.9726 43.4290 69.8869 43.1752 70.3897C42.2603 74.1301 39.5648 81.0427 38.0228 84.6960C37.9244 84.9314 37.8159 85.2104 37.7103 85.4387C36.8390 87.6175 35.9556 89.7913 35.0602 91.9600L34.5030 93.3314C33.9602 94.8978 33.4816 96.1792 33.3907 97.8345C31.9081 97.3929 27.6311 96.3813 26.5371 95.8810C25.3291 95.6122 23.6038 95.0332 22.4002 94.6623C21.9683 94.5733 21.8267 94.5248 21.4167 94.3591C20.7940 94.2358 20.0023 93.9549 19.3822 93.7548C16.5382 92.9463 12.4653 91.8195 9.54843 91.4537C9.20443 87.8338 9.80118 82.8527 10.7534 79.2874C10.9566 78.2707 11.1898 77.4107 11.4620 76.4152C12.2816 72.7655 15.1897 63.2264 16.9156 60.1340C17.3482 58.8921 18.1730 57.2965 18.7599 56.0993C18.8901 55.7124 19.6216 54.3516 19.8473 53.9783C20.3082 53.0398 20.7568 52.1345 21.3362 51.2627L21.4337 51.0557C22.4916 49.2308 22.7788 48.7230 24.4019 47.3555Z" fill="#BEEDC6"/>
  <path d="M43.5028 61.0503C43.7398 62.4804 44.0249 63.9270 44.4865 65.3094C44.6528 64.8782 44.6593 64.7664 44.9939 64.4768C44.7309 65.4256 44.4490 66.4352 44.1069 67.3559C43.9443 67.9725 43.4290 69.8868 43.1752 70.3896C42.7787 70.6705 41.7176 73.9993 41.3634 74.8003C40.6636 74.3227 40.5123 71.3408 40.3589 70.5379C40.7924 69.1783 42.2691 64.3104 42.7860 63.2862C43.0052 62.4888 43.2278 61.8322 43.5028 61.0503Z" fill="#BEEDC6"/>
  <path d="M43.5028 61.0503C43.7398 62.4804 44.0249 63.9270 44.4865 65.3094C44.6528 64.8782 44.6593 64.7664 44.9939 64.4768C44.7310 65.4256 44.4490 66.4352 44.1069 67.3559C43.9425 66.7053 44.2871 66.3653 44.2285 65.8559C44.1010 64.7484 43.6502 63.4343 43.3267 62.3581C43.1356 62.7812 43.0897 62.9493 42.7860 63.2862C43.0052 62.4888 43.2278 61.8322 43.5028 61.0503Z" fill="#BEEDC6"/>
  <path d="M33.0626 50.7871C33.5494 50.9465 34.2085 51.1423 34.6734 51.3215C35.9615 51.6918 39.8751 53.0114 40.9555 53.7141L41.1028 54.0514C40.8644 54.1802 37.2989 54.8624 36.9774 54.844C36.3236 54.6239 35.0943 54.0575 34.4031 53.7767C32.8723 53.1562 31.3270 52.5726 29.7683 52.0264L28.7679 51.7234C29.4898 51.5963 30.011 51.381 30.8311 51.2703C31.4444 51.1874 32.4736 51.1256 32.991 51.0043L33.0626 50.7871Z" fill="#BEEDC6"/>
  <path d="M33.0626 50.7871C33.5494 50.9465 34.2085 51.1423 34.6734 51.3215C34.3115 51.3825 34.2803 51.3579 33.9738 51.3014C33.3720 51.1904 30.018 51.5082 29.6506 51.7856L29.7683 52.0264L28.7679 51.7234C29.4898 51.5963 30.011 51.381 30.8311 51.2703C31.4444 51.1874 32.4736 51.1256 32.991 51.0043L33.0626 50.7871Z" fill="#BEEDC6"/>
  <path d="M38.2438 73.9148C39.2872 71.8294 42.6010 59.7902 43.8528 59.1802C44.0909 59.7213 43.7139 60.4846 43.5028 61.0504C43.2278 61.8322 43.0052 62.4889 42.7860 63.2863C42.2691 64.3105 40.7924 69.1783 40.3589 70.5380C40.1561 71.1095 39.9502 71.6801 39.7413 72.2496C38.9928 74.3107 37.6751 77.7684 36.4307 79.4985C36.8312 77.6886 37.4551 76.5679 37.8257 75.1190C37.9834 74.7620 38.1207 74.2935 38.2438 73.9148Z" fill="#1C1D24"/>
  <path d="M32.0228 53.7414C30.5757 53.0646 26.8129 52.1134 25.9798 51.4755L25.9922 51.3462C26.8672 51.1880 27.9011 51.5071 28.7679 51.7233L29.7683 52.0263C31.3270 52.5725 32.8724 53.1561 34.4031 53.7766C35.0943 54.0574 36.3236 54.6238 36.9774 54.8439L37.4718 55.0607C38.0438 55.3419 39.6474 56.0570 39.9626 56.5051L39.8210 56.5951C38.4919 56.5103 35.2029 54.914 33.6658 54.3499C33.1111 54.1074 32.5947 53.9366 32.0228 53.7414Z" fill="#1C1D24"/>
  <path d="M41.3634 74.8003C41.7176 73.9993 42.7787 70.6705 43.1752 70.3896C42.2603 74.130 39.5648 81.0426 38.0228 84.6959C37.8744 84.3038 38.0881 84.0542 38.2799 83.5580C39.1313 81.0396 40.0610 78.5617 40.8954 76.0331C41.0433 75.6191 41.1993 75.2081 41.3634 74.8003Z" fill="#F5F5F5"/>
  <path d="M24.4019 47.3555L25.5826 47.9109C24.4332 48.0327 23.9792 47.9325 23.2439 48.8294C22.7338 49.4516 22.0874 50.8742 21.4337 51.0557C22.4916 49.2308 22.7788 48.7230 24.4019 47.3555Z" fill="#BEEDC6"/>
  <path d="M22.4003 94.6621C23.0272 94.4438 24.0075 95.0077 24.9570 95.1199C26.0661 95.2522 27.3113 95.0016 28.2647 95.1441L28.3647 95.2381C27.8061 95.4938 26.6736 95.1411 26.3625 95.5968L26.5372 95.8808C25.3291 95.6120 23.6039 95.0329 22.4003 94.6621Z" fill="#BEEDC6"/>
  <path d="M40.3589 70.5386C40.5123 71.3415 40.6636 74.3234 41.3634 74.8010C41.1993 75.2088 41.0433 75.6198 40.8954 76.0338C40.8933 75.2086 40.5105 72.5921 40.1524 71.9619L39.7413 72.2502C39.9502 71.6807 40.1561 71.1102 40.3589 70.5386Z" fill="#BEEDC6"/>
  <path d="M11.4620 76.4155C11.5316 76.8199 11.4776 76.8077 11.4418 77.1918C11.2835 78.8946 11.6544 80.5216 11.5969 82.2669L11.5929 82.3548C11.4927 81.8788 11.1720 79.3716 10.9750 79.2402L10.8471 79.4373L10.7535 79.2877C10.9566 78.2710 11.1898 77.4110 11.4620 76.4155Z" fill="#BEEDC6"/>
  <path d="M18.760 56.0986C18.8871 56.7583 17.9296 57.9767 17.8504 58.9764C17.8074 59.5193 18.0037 60.9111 17.9175 61.1314C17.5566 60.7805 17.5495 59.8650 17.4980 59.3254C17.3532 59.6378 17.2565 60.0304 16.9156 60.1334C17.3482 58.8915 18.1730 57.2959 18.760 56.0986Z" fill="#BEEDC6"/>
  <path d="M40.9556 53.7134L42.1441 54.2521C41.5834 54.3051 37.6964 54.8657 37.4718 55.0601L36.9774 54.8432C37.2989 54.8616 40.8644 54.1795 41.1028 54.0506L40.9556 53.7134Z" fill="#BEEDC6"/>
  <path d="M19.8474 53.9778C20.3083 53.0393 20.7569 52.1340 21.3362 51.2622C21.3003 51.4258 21.1148 52.1346 21.1095 52.2242C21.0661 52.9544 21.1339 53.5516 21.0024 54.2879C21.0090 54.2124 21.0031 54.2570 21.0256 54.1549L20.8563 54.0722C20.7812 53.5656 20.7568 53.2105 20.7278 52.7037C20.5383 53.0851 20.3082 53.6214 20.0302 53.9214L19.8474 53.9778Z" fill="#BEEDC6"/>
  <path d="M19.3822 93.7550C20.1017 93.6337 22.1539 93.2638 22.7939 93.5145L22.7702 93.6479C22.2186 93.7742 21.0336 93.7631 20.8041 93.9066C21.0064 94.0602 21.2106 94.2107 21.4168 94.3593C20.7940 94.2360 20.0024 93.9551 19.3822 93.7550Z" fill="#BEEDC6"/>
  <path d="M32.0227 53.7412C32.5946 53.9364 33.1110 54.1071 33.6657 54.3497C33.3866 54.4110 30.7300 54.6152 30.4568 54.5285C30.6279 54.2576 31.7782 54.3898 32.1742 54.0805L32.0116 53.9033L32.0227 53.7412Z" fill="#BEEDC6"/>
  <path d="M34.5030 93.3311C34.4834 93.0815 34.5512 92.8349 34.5316 92.5974C34.4631 91.7637 34.3046 90.8875 34.4138 90.0518C34.7483 90.8147 34.4631 91.5050 35.0602 91.9597L34.5030 93.3311Z" fill="#BEEDC6"/>
  <path d="M37.7103 85.4382C37.6709 85.2846 37.6122 82.8633 37.6838 82.7471L37.6056 82.6016C37.8194 82.9644 37.8090 83.2261 38.0281 83.6344L38.2799 83.5576C38.0881 84.0538 37.8744 84.3034 38.0229 84.6955C37.9244 84.9309 37.8159 85.2099 37.7103 85.4382Z" fill="#BEEDC6"/>
  <path d="M37.8257 75.1190C37.7146 74.1094 37.5557 73.5015 37.5225 72.4690L37.5923 72.3999C37.9393 73.1467 37.7270 73.2592 37.9702 73.8297L38.2438 73.9148C38.1207 74.2934 37.9834 74.7619 37.8257 75.1190Z" fill="#BEEDC6"/>
  <path d="M34.1765 84.4458C34.5281 84.5388 34.4047 84.4397 34.5824 84.7217C34.6007 85.4897 33.3936 87.9262 32.9985 88.8095L32.8524 88.8155C32.1835 88.3466 33.7779 85.0693 34.1765 84.4458Z" fill="#1C1D24"/>
  <path d="M62.2641 73.2668C63.1444 71.5127 64.9710 67.3509 66.1363 66.0536C66.5566 65.5864 67.0513 65.1919 67.6003 64.8861C68.4574 64.4019 69.6023 63.9293 70.5136 63.5371C74.1746 61.9619 77.7633 59.9572 81.4660 58.5200C85.1415 57.0931 90.3581 59.3446 93.8921 60.5824C95.5464 61.1589 97.2108 61.7045 98.8864 62.2189C100.765 62.8134 102.701 63.5846 104.708 63.2604C107.846 62.7537 111.658 60.9247 114.495 59.5431C118.839 65.2095 121.287 72.9468 122.777 79.8609C123.235 81.9831 123.723 84.5288 123.789 86.7005C121.751 86.9764 116.751 89.7949 115.031 91.0904C113.659 92.1232 109.674 95.0964 108.721 96.3454L107.647 94.8902C104.010 90.2698 99.4785 86.2569 95.1482 82.3015C97.2896 82.9129 99.6099 83.1625 101.830 82.9219C102.525 82.8462 104.383 82.3520 104.639 81.7375C104.095 81.2808 102.898 81.9730 102.127 82.0407C100.863 82.1519 99.6544 82.1974 98.3821 82.0619C97.4837 81.9548 94.6955 81.6314 94.0043 81.1262C92.4298 79.9741 90.9392 78.4623 89.3617 77.2870C86.8746 75.4720 84.2754 73.8611 81.7500 72.0989C82.7212 71.1949 83.8389 70.0778 84.0157 68.6849L83.9349 68.4326L83.7540 68.3579C83.1517 68.8330 82.1219 70.8877 81.6429 71.1457C79.5955 72.2491 76.7163 72.7623 74.4334 73.7461C74.6504 73.1607 75.1652 71.7051 74.8697 71.1397L74.6626 71.0976C74.3130 71.3415 73.4610 73.4505 73.1074 74.0182C70.6828 77.9095 66.4911 82.2125 61.4728 81.4586C60.6531 81.3353 59.0126 80.7027 59.0900 79.6709C59.4703 79.5284 60.5663 79.8094 61.0541 79.9175C63.6519 80.4925 68.1804 73.9774 64.1816 73.0234C63.3607 72.8276 62.9881 72.7508 62.2641 73.2668Z" fill="#F5F5F5"/>
  <path d="M92.2782 62.0439C92.9624 62.0902 96.3670 63.4905 97.2634 63.7693C98.3063 64.1746 99.3987 64.4210 100.459 64.7593C101.190 64.9928 102.153 65.0071 102.467 65.6974C101.048 66.2330 94.7885 63.6166 93.2443 62.9772C92.7875 62.7880 92.4894 62.4908 92.2782 62.0439Z" fill="#1C1D24"/>
  <path d="M67.8885 65.5332C68.9788 65.6109 70.4030 65.5422 70.2989 67.0599C69.7746 66.9613 68.4138 66.0410 67.8831 65.7169L67.8885 65.5332Z" fill="#1C1D24"/>
  <path d="M85.3961 70.9214C85.6073 71.0005 85.5315 70.9591 85.6983 71.1240L85.6528 71.3581C85.0687 72.0418 84.2198 72.2979 83.3679 72.4588L83.1617 72.3116L83.1911 72.1641C83.5124 71.9108 84.9242 71.1920 85.3961 70.9214Z" fill="#1C1D24"/>
  <path d="M107.574 58.2245C107.793 57.2643 108.251 55.8122 109.160 55.3315C111.796 53.9364 114.726 52.9893 117.461 51.7608C118.703 51.2071 119.935 50.6294 121.154 50.0279C122.191 49.5076 125.237 47.7210 126.247 48.2702C129.657 50.1247 132.127 54.6292 134.151 57.8750C138.249 65.5004 142.365 76.6573 141.532 85.3644C141.198 85.7687 141.149 85.7242 141.214 86.3690L141.235 86.5508C141.282 87.0248 141.237 87.1693 141.123 87.6342C136.565 89.3006 132.187 91.0378 127.744 92.9872C126.190 93.6683 122.981 94.8396 121.359 93.9655C122.121 93.7158 122.835 94.1302 123.666 93.1994C124.833 91.9797 125.134 88.5882 124.974 86.9713C123.986 76.9615 121.039 65.0600 114.117 57.4677C111.940 55.0803 109.048 54.9381 107.750 58.3378L107.574 58.2245Z" fill="#F5F5F5"/>
  <path d="M137.219 73.2432C138.056 73.5759 138.493 75.8653 138.648 76.6813C139.208 79.6524 139.462 82.9530 138.832 85.9291C138.648 86.1040 138.713 86.0524 138.484 86.1676L138.315 86.0656C138.187 85.5997 138.356 83.2723 138.369 82.6104C138.385 81.6079 138.352 80.6044 138.272 79.6049C138.159 78.4367 137.990 77.2756 137.762 76.1249C137.612 75.3995 137.227 73.9127 137.219 73.2432Z" fill="#1C1D24"/>
  <path d="M123.666 51.2659C123.953 51.2434 123.942 51.2439 124.222 51.3083L124.278 51.4813C123.817 52.1149 117.145 55.1360 116.135 55.3642L115.836 55.4550L115.671 55.3613L115.697 55.1781C116.471 54.2514 122.283 51.7455 123.666 51.2659Z" fill="#1C1D24"/>
  <path d="M135.982 69.1118C136.211 69.1971 136.317 69.2249 136.460 69.4454C136.718 69.8434 136.807 70.3277 136.708 70.7918C136.161 70.4953 135.833 69.7290 135.982 69.1118Z" fill="#1C1D24"/>
  <path d="M61.5296 96.5485C61.8990 96.5283 62.4041 96.4869 62.7638 96.5556C64.1841 96.8275 65.8201 98.1938 65.3689 99.7905C65.3338 99.9865 65.2568 100.252 65.0745 100.380C64.0406 101.104 62.8501 102.723 61.5215 102.702C60.9373 102.693 60.3194 102.251 59.9761 101.862C58.6164 100.321 61.0767 98.5262 61.2136 97.2337L61.0837 97.1023C60.1353 97.3459 58.7794 99.8006 58.7633 100.816C58.7527 101.562 59.0519 102.280 59.5895 102.797C60.1520 103.331 60.9133 103.602 61.6868 103.547C63.0459 103.441 63.9501 102.464 64.7833 101.525C64.1887 102.494 63.7402 103.183 63.0685 104.108C61.7746 105.609 58.8898 109.216 57.1482 110.067C53.3804 111.907 49.3879 108.719 51.0886 104.428C52.6912 103.254 54.0621 102.072 55.3683 100.569C56.9371 98.7617 59.2056 97.1559 61.5296 96.5485Z" fill="#F5F5F5"/>
  <path d="M51.9801 106.903C52.3485 107.090 52.8865 108.129 53.4134 108.518C53.6694 108.707 54.3525 109.196 54.4602 109.450C53.1427 109.554 51.8581 108.136 51.9801 106.903Z" fill="#1C1D24"/>
  <path d="M68.2136 101.911C68.2908 101.909 68.3681 101.908 68.4454 101.909C68.9462 101.915 69.9398 102.147 70.2697 102.447C73.8322 105.683 67.7886 111.814 65.6031 114.271C64.7996 115.175 63.0848 115.666 61.9313 115.573C59.1869 114.901 58.0617 113.097 58.6872 110.373C60.3267 108.900 61.8396 107.270 63.2641 105.589C64.9003 103.657 65.5336 102.418 68.2136 101.911Z" fill="#F5F5F5"/>
  <path d="M67.2643 102.265C67.3759 102.369 67.3472 102.372 67.4068 102.540C67.1037 103.998 64.7686 106.500 66.8425 107.398C68.8641 108.274 69.3689 106.235 70.7825 105.598L70.9673 105.670L71.0353 105.884C70.9481 106.260 70.8134 106.387 70.5813 106.694C69.7982 107.565 68.9787 108.488 67.7066 108.542C67.0328 108.576 66.3768 108.318 65.9058 107.835C65.4307 107.349 65.1863 106.683 65.2342 106.006C65.3210 104.728 66.3293 103.114 67.2643 102.265Z" fill="#1C1D24"/>
  <path d="M51.9422 94.7314C54.4844 94.5344 56.2743 96.2220 55.0791 98.8172C54.2129 100.697 52.4316 101.957 50.8907 103.249C49.4463 104.459 47.8563 104.853 46.1133 103.947C43.3667 102.093 43.4977 100.151 44.1631 97.2669C44.2525 97.3296 44.3410 97.3933 44.4288 97.4580C45.3037 98.1067 44.6810 98.3927 45.1330 98.9122C45.6862 98.9273 48.4192 96.2847 49.3811 95.8036C50.5399 95.2236 50.5026 95.0538 51.9422 94.7314Z" fill="#F5F5F5"/>
  <path d="M51.9731 95.2949C52.0747 95.3111 52.0081 95.2939 52.1563 95.3899C51.6807 96.5763 49.3973 97.5748 50.8610 99.1392C52.2455 100.619 53.2918 99.1210 54.4621 99.1250L54.5701 99.2402C54.5062 99.5303 54.3289 99.6859 54.1330 99.9163C53.9791 100.036 53.8090 100.165 53.6443 100.267C53.0383 100.644 52.3067 100.763 51.6122 100.598C50.8639 100.416 50.2255 99.9284 49.8504 99.2554C48.8237 97.3848 50.4439 96.0448 51.9731 95.2949Z" fill="#1C1D24"/>
  <path d="M71.1945 109.192C76.2747 108.955 74.7362 113.926 73.3463 116.611C73.2266 116.842 73.2282 117.174 73.3557 117.411C74.0025 117.363 74.5326 116.514 74.8572 116.015C75.2701 116.413 75.7967 116.766 76.2656 117.105C73.2464 118.931 68.0852 121.037 66.5776 116.205C66.5127 115.829 66.4679 115.391 66.4188 115.007C67.6995 113.734 68.8540 112.221 70.0646 110.849L69.9665 111.129C69.5401 112.321 69.3852 113.361 70.4387 114.324C71.7443 115.520 74.0398 113.414 73.8350 112.134C72.9265 112.360 71.7406 114.970 70.4718 113.140C69.7295 112.069 71.6090 110.214 71.2634 109.685C70.9537 109.760 70.8864 109.880 70.6688 110.115L70.5903 110.202C70.7312 109.817 70.9604 109.532 71.1945 109.192Z" fill="#F5F5F5"/>
  <path d="M59.0954 78.8304C59.4865 77.7188 61.5300 74.4104 62.2641 73.2671C62.6694 73.6357 64.8910 73.6673 64.9024 74.7264C64.9200 76.3582 63.0515 78.6081 61.5646 79.0386C60.5151 79.1013 60.1016 79.0416 59.0954 78.8304Z" fill="#F5F5F5"/>
  <path d="M107.574 58.2251L107.750 58.3384C107.558 59.5609 107.989 60.7005 107.820 61.2047L107.744 61.1313C107.440 60.1636 107.413 59.2270 107.574 58.2251Z" fill="#F5F5F5"/>
  <path d="M54.6159 37.5410C54.7712 37.5836 54.8235 37.6154 54.9703 37.6820C55.3819 38.4881 55.4590 41.3011 55.5086 42.3559C56.4253 42.2366 59.2848 41.7625 59.8269 42.5630C59.3310 43.3534 56.4619 43.2746 55.5542 43.3068C55.6781 44.7038 55.9377 46.6439 55.6217 47.9608L55.3263 47.9930C54.5078 47.4837 54.6540 44.3286 54.6429 43.3733C53.7972 43.4304 51.1307 43.7118 50.5977 43.1269L50.7475 42.9536C51.7161 42.5317 53.5003 42.5229 54.6094 42.4564C54.5258 41.1625 54.2918 38.6855 54.6159 37.5410Z" fill="#1C1D24"/>
  <path d="M121.556 106.262C122.457 106.556 122.341 109.756 122.379 110.629C123.339 110.559 125.134 110.291 125.869 110.883L125.887 111.078C125.293 111.752 123.269 111.589 122.387 111.583C122.391 112.913 122.692 115.851 121.954 116.664C121.006 115.568 121.329 113.075 121.371 111.601C120.270 111.775 118.577 111.892 117.557 111.417L117.508 111.264C118.050 110.889 120.512 110.817 121.355 110.748C121.346 109.523 121.247 107.390 121.556 106.262Z" fill="#1C1D24"/>
  <path d="M99.6847 48.3022C99.9171 48.3089 100.116 48.3048 100.339 48.3846C100.686 48.5074 100.968 48.7683 101.117 49.1059C101.511 49.9938 100.761 50.6556 100.026 50.9724C99.4795 50.9720 98.5124 50.7949 98.5205 50.0761C98.5306 49.2660 99.1986 48.879 99.6847 48.3022Z" fill="#1C1D24"/>
  <path d="M99.5655 49.1451C99.7241 49.0640 99.9141 49.0762 100.062 49.1765C100.208 49.2769 100.289 49.4496 100.272 49.6268C100.255 49.8041 100.142 49.9577 99.9778 50.0273C99.7363 50.1299 99.4563 50.0228 99.3452 49.7850C99.2340 49.5473 99.3320 49.2643 99.5655 49.1451Z" fill="#F5F5F5"/>
  <path d="M33.5884 107.009C36.4495 106.867 34.8590 111.221 32.6187 109.504C32.4269 109.087 32.3178 108.502 32.7054 108.174C33.0052 108.323 33.1012 108.734 33.6342 108.997C34.0772 108.936 34.1973 108.607 34.0225 108.216C33.7110 108.020 33.5664 107.961 33.3532 107.656C33.3713 107.244 33.3479 107.390 33.5884 107.009Z" fill="#1C1D24"/>
  <path d="M131.692 101.142C132.083 100.962 132.546 101.120 132.745 101.501C132.944 101.882 132.809 102.353 132.440 102.571C132.182 102.723 131.862 102.720 131.608 102.564C131.354 102.408 131.206 102.125 131.223 101.828C131.241 101.530 131.421 101.266 131.692 101.142Z" fill="#1C1D24"/>
  <path d="M38.6306 111.743C38.8665 111.645 39.1372 111.686 39.3328 111.851C39.5284 112.015 39.6161 112.274 39.5603 112.524C39.5045 112.773 39.3144 112.970 39.0675 113.035C38.7198 113.126 38.3607 112.933 38.2456 112.593C38.1305 112.252 38.2987 111.881 38.6306 111.743Z" fill="#1C1D24"/>
  <path d="M104.326 44.1251C104.475 44.0147 104.671 43.9944 104.839 44.0720C105.006 44.1496 105.118 44.3128 105.129 44.4969C105.141 44.6811 105.050 44.8567 104.893 44.9546C104.665 45.0976 104.365 45.0346 104.212 44.8120C104.060 44.5892 104.110 44.2862 104.326 44.1251Z" fill="#1C1D24"/>
  <path d="M58.4115 53.6310C58.5784 53.5412 58.7818 53.5544 58.9357 53.6648C59.0897 53.7752 59.1673 53.9636 59.1358 54.1505C59.1043 54.3373 58.9692 54.4898 58.7876 54.5437C58.5436 54.6160 58.2846 54.4922 58.1877 54.2569C58.0909 54.0217 58.1875 53.7514 58.4115 53.6310Z" fill="#1C1D24"/>
</svg>
