<svg xmlns="http://www.w3.org/2000/svg" width="156" height="156" viewBox="0 0 156 156" fill="none">
  <rect width="156" height="156" fill="#F5F5F5"/>
  <path d="M65.0288 16.9243C66.4489 17.0349 66.9518 17.5146 67.9926 18.3953C71.2034 17.1128 71.9036 20.3061 73.3988 22.4454C73.6984 22.8741 73.9759 23.4128 74.2476 23.8689C74.9973 24.0752 77.2011 24.5125 77.5793 25.0127C78.835 26.6733 79.935 29.0332 80.911 30.8759C86.7459 30.0363 92.3764 28.997 98.1339 28.1253C97.9642 24.8851 99.6163 22.8569 102.793 25.2408C103.379 25.6807 103.845 26.4312 104.267 27.0407C105.913 26.7901 111.503 25.8182 112.524 26.6404C113.141 27.1364 114.459 36.3785 114.798 37.8569C115.009 38.7823 115.34 41.2031 115.348 41.9232L119.876 43.1862C120.078 42.0073 120.709 40.4488 121.932 40.1287C125.005 39.325 126.446 43.0817 127.017 45.196C127.113 45.2173 127.208 45.2395 127.302 45.2626C129.988 45.9409 144.277 49.8934 144.843 51.1979C145.099 51.7887 144.992 52.6667 144.889 53.2929C144.472 55.8341 143.595 58.339 142.843 60.7951C142.041 63.4783 141.252 66.1656 140.477 68.857C141.293 71.5618 142.012 72.462 139.1 73.8635C138.36 76.1056 137.696 78.9483 137.069 81.2705L132.149 100.168C130.766 105.349 129.319 110.514 127.809 115.661C126.158 121.304 124.422 126.882 123.252 132.642C122.796 134.887 122.044 135.65 119.68 135.113C116.81 134.46 113.934 133.548 111.114 132.716C106.336 131.303 101.548 129.925 96.7492 128.582C90.1945 126.663 83.3837 124.906 76.7822 123.107C73.5822 124.848 70.3774 126.642 67.1847 128.405C64.3712 129.958 60.1321 132.977 57.0963 133.848C56.6114 133.731 56.1437 133.598 55.664 133.464C54.3906 132.226 51.4027 126.912 50.2955 125.091C44.18 115.03 38.6956 104.553 32.748 94.3951C25.5022 82.0198 17.9973 69.791 10.8682 57.3451C10.3076 56.3665 9.72191 55.3345 9.45859 54.2387C9.64627 53.8855 9.91488 53.3465 10.2275 53.115C11.5721 52.1193 13.1143 51.1655 14.5234 50.2605C17.6896 48.2265 20.878 46.2269 24.0877 44.2624C31.1781 39.9824 38.3212 35.7901 45.5151 31.6864C51.4108 28.2538 57.2767 24.7704 63.1123 21.2367C62.653 19.3095 62.7057 17.3537 65.0288 16.9243Z" fill="#1C1D24"/>
  <path d="M82.0559 34.3301C84.3374 34.857 86.5436 35.5548 88.7875 36.2101C91.2804 36.9436 93.7825 37.6467 96.2927 38.3191L125.742 46.3223L125.831 47.5994C125.118 47.3146 124.258 46.8951 123.48 47.0266C122.927 47.12 122.606 47.5493 122.297 47.9795C121.47 49.1318 117.885 55.6257 117.626 56.7981C117.547 57.1605 117.628 57.5595 117.69 57.92C118.25 61.1544 119.708 64.5676 120.76 67.6942C121.743 70.621 122.543 73.697 123.836 76.5048C124.09 77.0559 124.532 77.9953 125.087 78.2749C126.25 78.8605 135.755 75.1593 137.378 74.5343C134.556 84.4514 132.203 94.4974 129.463 104.431C128.114 109.34 126.724 114.238 125.289 119.123C124.28 122.637 123.269 125.996 122.454 129.566C122.267 130.422 121.738 133.418 121.145 133.897C119.487 133.723 116.026 132.634 114.304 132.14L101.09 128.309C87.0621 124.346 73.1176 120.767 59.1302 116.643C59.4455 115.018 60.0091 113.126 60.4489 111.499C61.1794 108.837 61.8852 106.168 62.5662 103.494C65.9339 90.395 69.5148 77.3507 73.3075 64.3688C75.0281 58.4659 76.9592 52.4564 78.6154 46.5802L80.6854 39.21C81.0727 37.7784 81.5669 35.6861 82.0559 34.3301Z" fill="#F5F5F5"/>
  <path d="M78.8197 80.3081C79.1339 80.3101 79.567 80.3101 79.8761 80.3671C89.7604 82.1931 99.2432 85.5411 108.867 88.3583C113.373 89.678 117.888 90.8645 122.436 92.0235C122.892 92.1394 123.317 92.3784 123.599 92.7535C123.663 93.1551 123.686 92.9599 123.485 93.3514C120.661 93.814 99.3195 86.8973 94.7687 85.5156C91.4055 84.4867 88.026 83.5127 84.6312 82.5947C83.3623 82.2561 79.8944 81.642 78.7841 80.8449C78.6926 80.7788 78.7913 80.4576 78.8197 80.3081Z" fill="#1C1D24"/>
  <path d="M80.4495 74.8075C80.54 74.8073 80.6589 74.8038 80.7453 74.8228C90.4345 76.9638 99.9213 79.8116 109.44 82.5953C112.438 83.4615 115.443 84.3013 118.456 85.1157C119.796 85.4746 124.085 86.3368 124.846 87.2843C124.918 87.691 124.922 87.4836 124.752 87.9228C123.101 88.1231 114.974 85.6281 113.008 85.073L93.0708 79.2839L85.6235 77.1468C84.4665 76.8123 81.4235 76.0142 80.5207 75.4351C80.36 75.1303 80.4129 75.212 80.4495 74.8075Z" fill="#1C1D24"/>
  <path d="M77.495 85.8946C77.8234 85.8844 78.1518 85.9057 78.4761 85.9576C81.1185 86.3714 84.1259 87.1593 86.7134 87.871C93.5405 89.7489 100.277 91.8504 107.172 93.4832C107.624 93.59 108.053 93.7821 108.324 94.1552C108.376 94.5924 108.375 94.4358 108.172 94.8832C106.599 95.2492 93.3443 91.1855 90.5413 90.3945C87.7148 89.5974 84.8935 88.783 82.0762 87.9524C81.0341 87.6443 78.5025 86.9387 77.5753 86.4985C77.3791 86.166 77.437 86.3531 77.495 85.8946Z" fill="#1C1D24"/>
  <path d="M93.8944 60.4624C95.4255 60.5213 99.8156 61.783 101.508 62.2279C105.304 63.1907 109.075 64.2445 112.819 65.3884C113.971 65.7324 118.063 66.7982 118.746 67.5132C118.905 67.8648 118.87 67.8836 118.808 68.258C118.152 68.4058 117.361 68.219 116.723 68.0203C109.36 65.7228 101.852 63.9395 94.5247 61.543C93.8547 61.3237 93.8852 61.0527 93.8944 60.4624Z" fill="#1C1D24"/>
  <path d="M77.9931 103.242C80.6376 103.052 79.8079 104.74 79.322 106.496C81.6075 105.511 82.3202 104.913 83.3013 107.089C83.6948 107.961 89.4686 106.828 89.4025 108.378C88.5831 108.677 87.0469 108.669 86.1562 108.632C84.618 108.57 82.9587 109.023 82.1433 107.453L81.9328 106.904C81.1785 106.508 79.507 108.009 78.5493 107.281C78.1121 106.398 78.6357 104.964 78.9112 104.035C76.6165 104.309 74.738 105.433 72.5901 106.167C72.2161 106.295 71.9837 106.37 71.6756 106.209C71.6648 106.066 71.6236 105.981 71.7216 105.909C72.9827 104.985 76.5891 103.528 77.9931 103.242Z" fill="#1C1D24"/>
  <path d="M103.432 115.202C103.788 115.182 104.144 115.193 104.497 115.234C105.737 115.384 108.662 116.119 109.827 116.496C111.094 116.904 117.216 118.232 117.757 118.934C117.806 119.311 117.812 119.118 117.629 119.532C115.653 119.757 111.566 118.37 109.542 117.829C108.22 117.475 104.451 116.477 103.496 115.8C103.309 115.455 103.353 115.644 103.432 115.202Z" fill="#1C1D24"/>
  <path d="M83.824 37.1436C83.9643 37.129 84.4157 37.09 84.5194 37.1004C86.1756 37.2662 94.0286 39.2995 94.8603 40.1292L94.8186 40.2828C93.809 40.6894 85.4487 37.3631 83.9328 37.8859C83.339 38.44 83.1977 39.3475 82.9761 40.154C82.5978 41.5665 80.3601 49.8602 79.7704 50.3204L79.6372 50.2256C79.3505 49.4357 81.6584 42.2356 82.0183 40.6911C82.2816 39.5613 82.7717 37.7816 83.824 37.1436Z" fill="#1C1D24"/>
  <path d="M123.087 118.303C123.146 118.348 123.248 118.467 123.303 118.526C123.339 118.815 123.335 119.155 123.248 119.449C122.627 121.564 121.096 129.892 119.505 130.909C118.016 131.86 111.346 129.539 109.559 128.938C109.226 128.779 109.342 128.896 109.165 128.616C109.933 127.973 117.439 131.009 118.897 130.373C119.974 129.866 120.21 127.792 120.566 126.786C121.439 124.328 121.917 120.532 123.087 118.303Z" fill="#1C1D24"/>
  <path d="M64.0062 105.708C64.0597 105.777 64.1131 105.845 64.1666 105.913C63.9284 108.473 62.7647 111.109 62.3731 113.632C61.9858 116.126 66.894 115.6 68.2538 117.191L68.22 117.356L67.9144 117.432C66.5129 117.081 63.757 116.201 62.4426 115.548C62.0377 115.347 61.7037 114.678 61.6574 114.242C61.519 112.933 63.4474 106.485 64.0062 105.708Z" fill="#1C1D24"/>
  <path d="M78.6439 53.5483C79.258 54.1215 78.4121 56.199 77.9911 56.7932C77.8183 56.6771 77.8722 56.7152 77.7431 56.5408C77.6749 55.5098 78.1569 54.4318 78.6439 53.5483Z" fill="#1C1D24"/>
  <path d="M124.81 112.316L124.942 112.423C125.286 113.08 124.66 114.374 124.198 114.864C123.662 114.113 124.332 112.948 124.81 112.316Z" fill="#1C1D24"/>
  <path d="M97.9113 29.6383L98.1879 29.6123C98.3475 29.7089 99.5004 32.3229 99.8522 32.8964C99.0602 34.2954 98.3576 35.7434 97.7496 37.2316C94.5481 36.3846 91.3516 35.5165 88.1622 34.6274C86.3799 34.1436 84.5305 33.6129 82.7066 33.338C81.7021 33.1867 80.9751 34.0119 80.6345 34.8549C80.0621 36.2688 79.6809 37.781 79.2549 39.2472C78.5483 41.6952 77.8213 44.1375 77.074 46.5737C74.5501 46.5014 66.909 48.2231 64.1299 48.9718C63.9158 49.0295 63.7749 49.2801 63.6967 49.4896C63.7302 49.6076 63.7211 49.6882 63.835 49.7578C64.8341 50.3688 74.9913 48.1248 76.7345 47.7105C74.6888 54.7343 72.427 61.8124 70.4473 68.8373C66.9099 68.7333 60.7903 70.4229 57.1526 71.13C56.7932 71.1998 56.1516 71.4364 55.9499 71.791C56.0878 72.1824 56.7054 72.2772 57.0555 72.2158C61.1728 71.4941 66.2064 70.9555 70.1898 69.8473C69.7298 71.3583 69.2826 72.8732 68.8479 74.3916C67.3991 74.2519 57.9106 75.9937 56.9427 76.8406C56.9129 77.17 56.8662 77.0317 57.0686 77.2747C58.3056 77.6722 67.0784 75.8544 68.616 75.3847C68.1437 76.9799 67.6825 78.5781 67.2321 80.1784C65.0641 79.9262 60.1556 80.9928 57.9491 81.7472C57.663 81.8458 57.5994 82.0166 57.5366 82.2494C57.5945 82.3643 57.6443 82.53 57.7447 82.5361C59.7541 82.6713 65.4369 81.6567 67.0579 80.9084L62.8408 96.5381C61.7005 101.083 60.5219 105.617 59.305 110.143C58.8522 111.864 58.2573 113.562 57.9174 115.304C57.7137 116.35 58.0049 117.339 59.0165 117.826C60.6676 118.622 62.4956 119.11 64.254 119.637C67.1615 120.509 70.0789 121.349 73.0054 122.156C70.008 122.465 66.828 123.043 63.8506 123.519C61.3823 123.915 59.0427 124.517 56.5392 124.42C55.8416 122.548 55.7082 120.242 55.3241 118.217C54.3474 113.181 53.4303 108.135 52.5728 103.078C51.0901 94.1834 49.5929 85.5872 48.2743 76.6474C46.4127 64.027 44.8787 51.0478 42.7905 38.4885C45.6795 38.1731 48.6823 37.5543 51.546 37.0483C66.9629 34.3247 82.4717 32.2262 97.9113 29.6383Z" fill="#F5F5F5"/>
  <path d="M52.8626 38.682C53.3462 38.5971 53.5029 38.5637 53.8976 38.7856C53.734 39.6494 47.186 39.937 46.1636 40.9394C45.36 41.7272 47.3431 53.0313 47.4779 54.9441C47.41 55.1851 47.4484 55.0954 47.2745 55.2958L47.0933 55.2686C46.6397 54.6801 46.1208 50.0639 45.9339 48.906C45.7417 47.7149 44.6891 41.1268 45.5797 40.4725C46.8016 39.5751 51.1581 38.9744 52.8626 38.682Z" fill="#1C1D24"/>
  <path d="M47.422 58.1392C47.6079 58.2455 47.5628 58.226 47.7158 58.3879C47.8822 58.9565 47.8147 59.4278 47.7867 60.0229C47.3798 59.6501 47.4091 58.6442 47.422 58.1392Z" fill="#F5F5F5"/>
  <path d="M63.5418 22.6787C63.6695 22.8152 64.0466 23.5042 64.1669 23.7073C64.6231 24.478 65.0938 25.056 65.6975 25.7116C64.735 27.8331 64.1658 29.7243 63.5157 31.9483C63.6945 32.6518 63.7544 32.8478 64.0627 33.5073C57.9156 34.2528 51.5537 35.7431 45.4322 36.7414C44.3429 36.9191 43.0299 37.206 42.1115 37.8111C41.8475 38.3593 41.7148 38.7544 41.7296 39.3765C41.8126 42.8771 42.7466 46.3638 42.9782 49.8456C42.951 49.8559 42.9238 49.8662 42.8965 49.8765L42.7614 49.9302C41.2646 50.5144 33.3527 55.1704 33.1545 56.3951C33.3484 56.6807 33.2202 56.5724 33.5806 56.6939C34.927 56.2974 42.0547 51.7572 43.2042 50.748C43.463 53.2107 43.9323 55.9942 44.2809 58.4759L46.3871 73.8128C44.6344 74.3391 35.1256 80.0175 34.7365 81.1085C34.8885 81.4064 34.7764 81.2925 35.1078 81.4359C36.349 81.3667 44.9206 75.8847 46.5644 74.8408C46.7638 76.5374 47.0314 78.281 47.271 79.9759C46.5843 80.2514 45.0612 80.898 44.4846 81.2661C43.4519 81.9259 38.0226 85.0563 37.7825 85.9307C37.8991 86.2215 37.8042 86.1015 38.1156 86.2662C39.0986 86.2906 46.3401 81.7134 47.4243 80.8431L48.1694 85.8646C46.9134 86.4228 40.8774 89.788 40.6676 90.8657C40.8998 91.1423 40.7556 91.0498 41.1298 91.1281C42.8054 90.6888 46.995 88.0139 48.3674 86.8691C48.7489 89.9771 49.5826 94.354 50.137 97.4977L52.8346 112.746C53.3587 115.646 53.9413 118.517 54.4153 121.428C54.5997 122.502 54.8231 124.669 55.7117 125.269C57.1661 126.25 59.9855 125.699 61.5849 125.389C65.4137 124.647 69.2671 124.218 73.0929 123.56C70.3962 124.993 67.8064 126.388 65.1587 127.91C62.7881 129.274 59.2102 131.767 56.7113 132.71C55.3597 130.883 52.9859 126.698 51.7384 124.616C47.8081 118.063 44.0082 111.433 40.3412 104.728C34.0504 93.561 27.5628 82.5054 20.8812 71.5671L13.9685 59.9496C12.832 58.0559 11.5875 55.8541 10.3556 54.0597C12.8571 53.0239 15.4014 51.3349 17.7202 49.8944C20.9006 47.8991 24.0983 45.9312 27.3126 43.9909L63.5418 22.6787Z" fill="#F5F5F5"/>
  <path d="M21.507 49.7168L21.6307 49.7691L21.6876 49.9686C20.8518 51.3181 14.2658 54.005 14.3438 55.784C14.4111 57.3193 21.0035 66.2008 20.1862 67.0913C19.0848 65.9673 12.9439 56.4081 13.7976 54.9554C14.5107 53.742 19.8229 50.439 21.507 49.7168Z" fill="#1C1D24"/>
  <path d="M22.2588 69.7412C23.0749 70.2348 23.7219 71.6561 23.8265 72.5804C23.1411 72.3205 22.034 70.5081 22.2588 69.7412Z" fill="#1C1D24"/>
  <path d="M123.791 48.0835L125.874 48.9875L125.665 50.812C122.161 51.9278 122.788 55.5547 125.402 55.7795C126.1 55.8457 126.794 55.6128 127.311 55.1385C127.776 54.7233 128.047 54.1335 128.06 53.5104C128.078 52.5769 127.582 51.8459 126.956 51.2142L127.243 49.6089C129.191 50.4906 131.125 51.2093 133.025 52.2164C133.544 53.4122 134.071 54.9894 134.521 56.2302C135.498 58.94 136.45 61.6589 137.377 64.3866C137.764 65.5208 139.837 71.1147 139.79 71.9319C137.286 73.3016 133.758 74.2918 131.016 75.3107C129.383 75.9177 127.072 76.8378 125.433 77.1459C123.225 70.63 121.058 63.7406 118.689 57.313C119.423 55.7816 122.881 49.104 123.791 48.0835Z" fill="#BEEDC6"/>
  <path d="M127.186 46.7109C132.639 48.205 138.492 49.8479 143.744 51.9006C143.565 53.1473 143.059 54.847 142.71 56.0867C142.017 58.5194 141.298 60.9447 140.554 63.3626C140.222 64.4396 139.886 65.4883 139.63 66.5868C138.211 62.9798 137.12 59.0198 135.631 55.401C135.054 54.0016 134.651 52.6388 133.927 51.2806C132.901 50.6105 128.648 48.7887 127.381 48.2838C127.265 47.7329 127.234 47.2678 127.186 46.7109Z" fill="#F5F5F5"/>
  <path d="M67.9258 23.6528C70.7872 24.78 74.1085 24.9389 76.6907 26.0157C77.6149 27.7011 78.6062 29.4062 79.5558 31.0825C75.4209 31.7058 71.2899 32.3522 67.1627 33.0218L65.2551 33.3213L64.5414 31.9593C65.2006 30.6258 66.0318 28.1782 66.6462 26.6598L67.7457 27.56C67.8551 30.8875 71.3661 30.6936 71.9202 28.6392C72.0857 28.0373 72.0011 27.394 71.6856 26.8553C70.9685 25.616 69.7052 25.6442 68.6196 26.3785C68.0751 26.0229 67.7195 25.7369 67.2148 25.3299C67.4382 24.7506 67.674 24.2195 67.9258 23.6528Z" fill="#F5F5F5"/>
  <path d="M102.108 31.4033C104.768 32.4506 108.096 33.6912 110.639 34.796C111.413 36.8639 112.372 39.3004 113.248 41.3128L103.512 38.7482L98.9382 37.525C99.287 36.5443 100.144 35.0434 100.655 34.0852C101.043 34.5117 101.498 34.9286 101.916 35.3292C101.687 36.3709 101.835 37.3241 102.835 37.9011C103.422 38.2318 104.12 38.2994 104.76 38.0873C105.273 37.9231 105.698 37.558 105.937 37.0754C106.863 35.1735 105.005 33.2543 102.727 34.2684C102.129 33.7099 101.896 33.439 101.382 32.7955L102.108 31.4033Z" fill="#F5F5F5"/>
  <path d="M110.616 27.715C110.753 27.6929 111.396 27.6791 111.569 27.6724C112.114 31.082 112.703 34.3632 113.303 37.7602C112.787 36.7744 112.419 35.5695 111.878 34.6218C111.035 33.1443 108.313 32.455 106.724 31.8431C105.673 31.4498 104.665 30.9535 103.618 30.5551C102.087 29.9722 101.426 30.261 100.626 31.5778C100.207 30.7312 99.9854 30.1972 99.6611 29.308C103.019 28.6292 107.26 27.9765 110.616 27.715Z" fill="#F5F5F5"/>
  <path d="M69.2995 19.4194L69.608 19.4832C70.4064 20.1006 71.7936 22.4618 72.4278 23.4566C71.0953 23.1431 69.4411 22.7392 68.0831 22.4356C67.9748 22.4114 67.5782 22.5313 67.4477 22.5738C66.6212 23.0156 66.5898 23.429 66.2761 24.329C65.5827 23.478 65.2606 22.9009 64.774 21.9242C66.3539 20.9498 67.5816 20.1384 69.2995 19.4194Z" fill="#F5F5F5"/>
  <path d="M122.461 41.2946C124.323 41.2527 124.957 43.298 125.478 44.7393L124.212 44.3827C123.241 44.1523 122.032 43.7814 121.053 43.508C121.287 42.3205 121.337 41.8806 122.461 41.2946Z" fill="#F5F5F5"/>
  <path d="M100.445 25.3394C101.656 25.5767 102.271 26.3274 103.006 27.2217L101.232 27.5447C100.672 27.6547 100.153 27.7621 99.5838 27.8257C99.2666 27.6815 99.3825 27.7922 99.2238 27.4807C99.2045 26.6094 99.6224 25.7052 100.445 25.3394Z" fill="#F5F5F5"/>
  <path d="M64.9761 18.021C66.0185 18.1584 66.1833 18.3024 67.0263 18.8827L65.6202 19.7281C65.2742 19.9412 64.733 20.3219 64.3608 20.3951L64.1851 20.2299C63.9609 19.3984 64.1308 18.4085 64.9761 18.021Z" fill="#F5F5F5"/>
  <path d="M124.972 52.2285L125.121 52.334C125.037 52.7121 125.007 52.8424 124.986 53.2256C125.162 53.5522 125.043 53.4137 125.393 53.6218C126.222 53.5836 126.074 52.9011 126.659 52.5906L126.818 52.7154C127.002 53.1343 126.946 53.3251 126.916 53.8001C125.659 55.7979 123.212 54.0017 124.972 52.2285Z" fill="#F5F5F5"/>
  <path d="M104.246 35.0273C105.492 35.3152 105.394 37.5288 103.463 36.9813C103.202 36.724 103.113 36.667 102.967 36.3234L103.038 36.1893C103.591 36.2025 104.123 36.3486 104.461 35.8901C104.502 35.4627 104.455 35.427 104.246 35.0273Z" fill="#F5F5F5"/>
  <path d="M69.7889 27.0078C71.0599 27.095 71.4723 28.6492 69.7011 28.9918C69.3162 28.7548 69.2495 28.7387 68.9919 28.3841C69.036 27.9297 69.649 28.2306 70.0663 27.6831C70.0404 27.2734 70.0447 27.3963 69.7889 27.0078Z" fill="#F5F5F5"/>
  <path d="M42.6292 14.4814C43.4464 14.8964 43.4026 18.0322 43.4564 18.9391C44.4595 18.9004 46.7719 18.4434 47.4414 18.9951C47.568 19.333 47.573 19.1711 47.4336 19.4975C46.7033 20.0158 44.5584 19.964 43.5525 20.0056C43.6339 21.1421 43.8461 23.3573 43.5361 24.4017C42.381 24.6717 42.5945 22.8895 42.5221 22.1261C42.4595 21.4652 42.4575 20.7304 42.4264 20.0597C41.6063 20.1144 39.3664 20.2186 38.7484 19.686L38.7933 19.5132C39.5462 19.0302 41.4413 19.0466 42.425 18.9948C42.3642 17.495 42.2115 15.9202 42.6292 14.4814Z" fill="#1C1D24"/>
  <path d="M142.559 94.7124C143.357 95.2248 143.288 97.3131 143.328 98.2536C144.424 98.217 146.646 97.9801 147.473 98.6623L147.449 98.828C146.669 99.4543 144.487 99.3099 143.439 99.316C143.506 100.476 143.521 101.639 143.484 102.8L143.178 103.028C142.803 103.05 142.97 103.098 142.661 102.867C142.273 102.098 142.335 100.282 142.29 99.3333C141.499 99.3424 139.612 99.4899 139.125 98.8615L139.221 98.6887C140.011 98.2536 141.364 98.3278 142.296 98.3115C142.266 97.2714 142.067 95.5217 142.559 94.7124Z" fill="#1C1D24"/>
  <path d="M124.184 20.4072C125.018 20.4494 125.696 20.7696 125.704 21.716C125.703 22.1773 125.512 22.6178 125.175 22.9332C124.358 23.6916 123.470 23.1744 122.927 22.4048C122.905 21.9303 122.989 21.1853 123.443 20.9316C123.886 21.1644 123.705 22.3411 124.419 22.3567C124.703 22.1284 124.687 22.1491 124.816 21.8074C124.551 21.0009 123.818 21.2807 124.184 20.4072Z" fill="#1C1D24"/>
  <path d="M93.3951 132.974C94.0001 133.056 94.5003 133.185 94.7779 133.801C94.9334 134.149 94.9395 134.545 94.7931 134.897C94.6477 135.253 94.3508 135.528 93.9848 135.645C93.4795 135.802 93.083 135.623 92.6509 135.390C92.3673 135.015 92.1304 134.683 92.4039 134.214C92.9874 134.281 93.0647 134.856 93.7967 134.788L93.9686 134.575C94.0346 134.194 94.0784 134.351 93.9116 134.072C93.6005 133.909 93.4114 133.845 93.1999 133.564C93.1694 133.275 93.2406 133.228 93.3951 132.974Z" fill="#1C1D24"/>
  <path d="M144.738 81.4653C145.201 81.5701 145.242 81.5619 145.597 81.8537C145.899 82.5979 145.152 82.843 144.634 83.1439C144.496 83.208 144.448 83.1785 144.270 83.1734C143.450 82.6905 143.758 81.7388 144.738 81.4653Z" fill="#1C1D24"/>
</svg>
