<svg xmlns="http://www.w3.org/2000/svg" width="156" height="156" viewBox="0 0 156 156" fill="none">
  <rect width="156" height="156" fill="#F5F5F5"/>
  <path d="M65.0288 16.9243C66.4489 17.0349 66.9518 17.5146 67.9926 18.3953C71.2034 17.1128 71.9036 20.3061 73.3988 22.4454C73.6984 22.8741 73.9759 23.4128 74.2476 23.8689C74.9973 24.0752 77.2011 24.5125 77.5793 25.0127C78.835 26.6733 79.935 29.0332 80.911 30.8759C86.7459 30.0363 92.3764 28.997 98.1339 28.1253C97.9642 24.8851 99.6163 22.8569 102.793 25.2408C103.379 25.6807 103.845 26.4312 104.267 27.0407C105.913 26.7901 111.503 25.8182 112.524 26.6404C113.141 27.1364 114.459 36.3785 114.798 37.8569C115.009 38.7823 115.34 41.2031 115.348 41.9232L119.876 43.1862C120.078 42.0073 120.709 40.4488 121.932 40.1287C125.005 39.325 126.446 43.0817 127.017 45.196C127.113 45.2173 127.208 45.2395 127.302 45.2626C129.988 45.9409 144.277 49.8934 144.843 51.1979C145.099 51.7887 144.992 52.6667 144.889 53.2929C144.472 55.8341 143.595 58.339 142.843 60.7951C142.041 63.4783 141.252 66.1656 140.477 68.857C141.293 71.5618 142.012 72.462 139.1 73.8635C138.36 76.1056 137.696 78.9483 137.069 81.2705L132.149 100.168C130.766 105.349 129.319 110.514 127.809 115.661C126.158 121.304 124.422 126.882 123.252 132.642C122.796 134.887 122.044 135.65 119.68 135.113C116.81 134.46 113.934 133.548 111.114 132.716C106.336 131.303 101.548 129.925 96.7492 128.582C90.1945 126.663 83.3837 124.906 76.7822 123.107C73.5822 124.848 70.3774 126.642 67.1847 128.405C64.3712 129.958 60.1321 132.977 57.0963 133.848C56.6114 133.731 56.1437 133.598 55.664 133.464C54.3906 132.226 51.4027 126.912 50.2955 125.091C44.18 115.03 38.6956 104.553 32.748 94.3951C25.5022 82.0198 17.9973 69.791 10.8682 57.3451C10.3076 56.3665 9.72191 55.3345 9.45859 54.2387C9.64627 53.8855 9.91488 53.3465 10.2275 53.115C11.5721 52.1193 13.1143 51.1655 14.5234 50.2605C17.6896 48.2265 20.878 46.2269 24.0877 44.2624C31.1781 39.9824 38.3212 35.7901 45.5151 31.6864C51.4108 28.2538 57.2767 24.7704 63.1123 21.2367C62.653 19.3095 62.7057 17.3537 65.0288 16.9243Z" fill="#1C1D24"/>
  <path d="M82.0559 34.3301C84.3374 34.857 86.5436 35.5548 88.7875 36.2101C91.2804 36.9436 93.7825 37.6467 96.2927 38.3191L125.742 46.3223L125.831 47.5994C125.118 47.3146 124.258 46.8951 123.48 47.0266C122.927 47.12 122.606 47.5493 122.297 47.9795C121.47 49.1318 117.885 55.6257 117.626 56.7981C117.547 57.1605 117.628 57.5595 117.69 57.92C118.25 61.1544 119.708 64.5676 120.76 67.6942C121.743 70.621 122.543 73.697 123.836 76.5048C124.09 77.0559 124.532 77.9953 125.087 78.2749C126.25 78.8605 135.755 75.1593 137.378 74.5343C134.556 84.4514 132.203 94.4974 129.463 104.431C128.114 109.34 126.724 114.238 125.289 119.123C124.28 122.637 123.269 125.996 122.454 129.566C122.267 130.422 121.738 133.418 121.145 133.897C119.487 133.723 116.026 132.634 114.304 132.14L101.09 128.309C87.0621 124.346 73.1176 120.767 59.1302 116.643C59.4455 115.018 60.0091 113.126 60.4489 111.499C61.1794 108.837 61.8852 106.168 62.5662 103.494C65.9339 90.395 69.5148 77.3507 73.3075 64.3688C75.0281 58.4659 76.9592 52.4564 78.6154 46.5802L80.6854 39.21C81.0727 37.7784 81.5669 35.6861 82.0559 34.3301Z" fill="#F5F5F5"/>
  <path d="M78.8197 80.3081C79.1339 80.3101 79.567 80.3101 79.8761 80.3671C89.7604 82.1931 99.2432 85.5411 108.867 88.3583C113.373 89.678 117.888 90.8645 122.436 92.0235C122.892 92.1394 123.317 92.3784 123.599 92.7535C123.663 93.1551 123.686 92.9599 123.485 93.3514C120.661 93.814 99.3195 86.8973 94.7687 85.5156C91.4055 84.4867 88.026 83.5127 84.6312 82.5947C83.3623 82.2561 79.8944 81.642 78.7841 80.8449C78.6926 80.7788 78.7913 80.4576 78.8197 80.3081Z" fill="#1C1D24"/>
  <path d="M80.4495 74.8075C80.54 74.8073 80.6589 74.8038 80.7453 74.8228C90.4345 76.9638 99.9213 79.8116 109.44 82.5953C112.438 83.4615 115.443 84.3013 118.456 85.1157C119.796 85.4746 124.085 86.3368 124.846 87.2843C124.918 87.691 124.922 87.4836 124.752 87.9228C123.101 88.1231 114.974 85.6281 113.008 85.073L93.0708 79.2839L85.6235 77.1468C84.4665 76.8123 81.4235 76.0142 80.5207 75.4351C80.36 75.1303 80.4129 75.212 80.4495 74.8075Z" fill="#1C1D24"/>
  <path d="M77.495 85.8946C77.8234 85.8844 78.1518 85.9057 78.4761 85.9576C81.1185 86.3714 84.1259 87.1593 86.7134 87.871C93.5405 89.7489 100.277 91.8504 107.172 93.4832C107.624 93.59 108.053 93.7821 108.324 94.1552C108.376 94.5924 108.375 94.4358 108.172 94.8832C106.599 95.2492 93.3443 91.1855 90.5413 90.3945C87.7148 89.5974 84.8935 88.783 82.0762 87.9524C81.0341 87.6443 78.5025 86.9387 77.5753 86.4985C77.3791 86.166 77.437 86.3531 77.495 85.8946Z" fill="#1C1D24"/>
  <path d="M93.8944 60.4624C95.4255 60.5213 99.8156 61.783 101.508 62.2279C105.304 63.1907 109.075 64.2445 112.819 65.3884C113.971 65.7324 118.063 66.7982 118.746 67.5132C118.905 67.8648 118.87 67.8836 118.808 68.258C118.152 68.4058 117.361 68.219 116.723 68.0203C109.36 65.7228 101.852 63.9395 94.5247 61.543C93.8547 61.3237 93.8852 61.0527 93.8944 60.4624Z" fill="#1C1D24"/>
  <path d="M77.9931 103.242C80.6376 103.052 79.8079 104.74 79.322 106.496C81.6075 105.511 82.3202 104.913 83.3013 107.089C83.6948 107.961 89.4686 106.828 89.4025 108.378C88.5831 108.677 87.0469 108.669 86.1562 108.632C84.618 108.57 82.9587 109.023 82.1433 107.453L81.9328 106.904C81.1785 106.508 79.507 108.009 78.5493 107.281C78.1121 106.398 78.6357 104.964 78.9112 104.035C76.6165 104.309 74.738 105.433 72.5901 106.167C72.2161 106.295 71.9837 106.37 71.6756 106.209C71.6648 106.066 71.6236 105.981 71.7216 105.909C72.9827 104.985 76.5891 103.528 77.9931 103.242Z" fill="#1C1D24"/>
  <path d="M103.432 115.202C103.788 115.182 104.144 115.193 104.497 115.234C105.737 115.384 108.662 116.119 109.827 116.496C111.094 116.904 117.216 118.232 117.757 118.934C117.806 119.311 117.812 119.118 117.629 119.532C115.653 119.757 111.566 118.37 109.542 117.829C108.22 117.475 104.451 116.477 103.496 115.8C103.309 115.455 103.353 115.644 103.432 115.202Z" fill="#1C1D24"/>
</svg>
