<svg xmlns="http://www.w3.org/2000/svg" width="156" height="156" viewBox="0 0 156 156" fill="none">
  <rect width="156" height="156" fill="#F5F5F5"/>
  <path d="M56.7119 17.0227C58.4044 16.9955 60.0487 17.4074 60.754 19.1219C61.7912 21.6436 62.5704 24.5286 63.1006 27.1952C63.6604 30.0106 58.9031 31.9383 56.895 32.8198C57.2415 33.9831 57.5721 35.1511 57.8867 36.3234C64.6506 35.92 68.979 36.3006 75.6017 37.9904C76.1609 36.3547 77.4413 31.762 79.0612 31.1403C80.8017 30.4721 86.4737 32.3382 87.1212 34.2628C87.602 35.6939 85.6309 39.9371 84.9932 41.3937C86.1391 41.8896 87.8669 42.8455 88.9285 43.5247C99.046 49.9949 105.193 59.5206 107.916 71.0411C108.436 71.1393 111.277 71.5482 111.468 71.1346C112.559 68.7745 113.798 66.7815 116.797 66.6551C118.279 66.603 119.723 67.1382 120.813 68.1444C122.304 69.5172 122.5 71.0095 122.602 72.8751C123.098 72.9727 123.616 73.0695 124.11 73.1736C126.914 73.7648 127.881 73.6061 128.344 76.6698C130.791 77.1359 133.255 77.4724 135.698 77.9541C136.767 78.1651 138.075 78.6056 138.805 79.4435C139.493 80.2373 139.672 81.5598 139.547 82.5841C139.22 85.2391 138.671 87.9157 138.235 90.5549L135.098 108.844L132.493 124.336C131.951 127.598 131.47 130.885 130.695 134.1C130.201 136.143 129.259 137.374 127.008 137.288C124.436 137.19 121.937 136.564 119.404 136.168L104.662 133.903C101.038 133.387 97.3281 132.711 93.6586 132.162C91.0556 131.617 88.1338 131.316 85.623 130.471C82.4363 129.397 83.8511 124.91 84.2396 122.602C80.7576 124.575 77.1784 125.924 73.3568 127.111C63.6268 130.133 53.3454 129.457 43.9631 125.556C33.048 120.997 24.3808 112.303 19.8548 101.374C15.0222 89.6346 15.3935 76.244 20.2769 64.5846C25.0485 52.9225 34.3216 43.6776 45.9982 38.9415C45.7797 38.0259 45.5336 37.1172 45.2605 36.2165C44.659 36.3301 44.0543 36.4247 43.4469 36.4999C42.2064 36.6441 39.049 36.9088 38.0542 35.9443C36.2397 34.185 35.2964 29.287 34.8578 26.7646C34.7189 25.9654 35.003 24.9218 35.5559 24.3731C39.7649 20.1965 51.1212 17.3767 56.7119 17.0227Z" fill="#1C1D24"/>
  <path d="M66.3518 45.9716C70.957 45.7761 74.3409 46.3486 78.5412 48.3492C88.3281 53.0114 94.4985 61.5403 97.1132 71.975C92.2948 71.6298 92.3979 74.274 91.7042 78.1079L90.5896 84.5246C89.4917 90.8431 88.3232 97.0017 87.3244 103.369C86.8103 102.807 84.8627 100.395 84.1445 100.77C84.0179 101.681 86.3815 103.868 87.1576 104.266C86.5493 108.244 86.6719 107.788 83.648 110.411C79.0906 114.364 74.2095 116.703 68.3082 117.849C67.1072 118.052 65.8963 118.192 64.6807 118.269C63.2934 118.352 61.2747 118.417 59.9449 118.182C49.6173 116.358 40.9446 109.349 36.2354 100.063C29.157 86.1032 31.7017 69.0595 42.1237 57.4767C48.3211 50.5359 57.0561 46.388 66.3518 45.9716Z" fill="#F5F5F5"/>
  <path d="M81.7417 57.6017C81.9614 57.5912 82.244 57.5632 82.4451 57.6682C82.6502 57.7748 82.764 57.9529 82.8092 58.1754C83.3723 60.9528 72.0097 78.2512 69.9189 81.536C70.2604 83.7387 69.5804 85.8658 67.362 86.7577C66.3984 87.1423 65.3214 87.1256 64.3699 86.7125C63.1022 86.1651 62.4966 85.2192 62.0288 83.9977C58.5295 82.8733 54.3082 81.3006 51.0543 79.6699C49.9598 79.0665 46.3913 77.376 46.6756 75.9995C48.0702 73.8883 61.379 78.7722 63.4018 79.6032C64.521 78.9125 65.3044 78.8713 66.5743 78.7555C68.1304 75.5678 70.799 71.7306 72.8486 68.7914C75.1945 65.4283 78.6432 60.2332 81.7417 57.6017Z" fill="#1C1D24"/>
  <path d="M65.5177 80.2077C66.9996 79.9624 68.3982 80.97 68.6347 82.4535C68.871 83.937 67.8552 85.3292 66.3703 85.5569C64.8981 85.7825 63.5199 84.7768 63.2855 83.3061C63.051 81.8354 64.0482 80.451 65.5177 80.2077Z" fill="#F5F5F5"/>
</svg>
