<svg xmlns="http://www.w3.org/2000/svg" width="156" height="156" viewBox="0 0 156 156" fill="none">
  <rect width="156" height="156" fill="#F5F5F5"/>
  <path d="M56.7119 17.0227C58.4044 16.9955 60.0487 17.4074 60.754 19.1219C61.7912 21.6436 62.5704 24.5286 63.1006 27.1952C63.6604 30.0106 58.9031 31.9383 56.895 32.8198C57.2415 33.9831 57.5721 35.1511 57.8867 36.3234C64.6506 35.92 68.979 36.3006 75.6017 37.9904C76.1609 36.3547 77.4413 31.762 79.0612 31.1403C80.8017 30.4721 86.4737 32.3382 87.1212 34.2628C87.602 35.6939 85.6309 39.9371 84.9932 41.3937C86.1391 41.8896 87.8669 42.8455 88.9285 43.5247C99.046 49.9949 105.193 59.5206 107.916 71.0411C108.436 71.1393 111.277 71.5482 111.468 71.1346C112.559 68.7745 113.798 66.7815 116.797 66.6551C118.279 66.603 119.723 67.1382 120.813 68.1444C122.304 69.5172 122.5 71.0095 122.602 72.8751C123.098 72.9727 123.616 73.0695 124.11 73.1736C126.914 73.7648 127.881 73.6061 128.344 76.6698C130.791 77.1359 133.255 77.4724 135.698 77.9541C136.767 78.1651 138.075 78.6056 138.805 79.4435C139.493 80.2373 139.672 81.5598 139.547 82.5841C139.22 85.2391 138.671 87.9157 138.235 90.5549L135.098 108.844L132.493 124.336C131.951 127.598 131.47 130.885 130.695 134.1C130.201 136.143 129.259 137.374 127.008 137.288C124.436 137.19 121.937 136.564 119.404 136.168L104.662 133.903C101.038 133.387 97.3281 132.711 93.6586 132.162C91.0556 131.617 88.1338 131.316 85.623 130.471C82.4363 129.397 83.8511 124.91 84.2396 122.602C80.7576 124.575 77.1784 125.924 73.3568 127.111C63.6268 130.133 53.3454 129.457 43.9631 125.556C33.048 120.997 24.3808 112.303 19.8548 101.374C15.0222 89.6346 15.3935 76.244 20.2769 64.5846C25.0485 52.9225 34.3216 43.6776 45.9982 38.9415C45.7797 38.0259 45.5336 37.1172 45.2605 36.2165C44.659 36.3301 44.0543 36.4247 43.4469 36.4999C42.2064 36.6441 39.049 36.9088 38.0542 35.9443C36.2397 34.185 35.2964 29.287 34.8578 26.7646C34.7189 25.9654 35.003 24.9218 35.5559 24.3731C39.7649 20.1965 51.1212 17.3767 56.7119 17.0227Z" fill="#1C1D24"/>
  <path d="M66.3518 45.9716C70.957 45.7761 74.3409 46.3486 78.5412 48.3492C88.3281 53.0114 94.4985 61.5403 97.1132 71.975C92.2948 71.6298 92.3979 74.274 91.7042 78.1079L90.5896 84.5246C89.4917 90.8431 88.3232 97.0017 87.3244 103.369C86.8103 102.807 84.8627 100.395 84.1445 100.77C84.0179 101.681 86.3815 103.868 87.1576 104.266C86.5493 108.244 86.6719 107.788 83.648 110.411C79.0906 114.364 74.2095 116.703 68.3082 117.849C67.1072 118.052 65.8963 118.192 64.6807 118.269C63.2934 118.352 61.2747 118.417 59.9449 118.182C49.6173 116.358 40.9446 109.349 36.2354 100.063C29.157 86.1032 31.7017 69.0595 42.1237 57.4767C48.3211 50.5359 57.0561 46.388 66.3518 45.9716Z" fill="#F5F5F5"/>
  <path d="M81.7417 57.6017C81.9614 57.5912 82.244 57.5632 82.4451 57.6682C82.6502 57.7748 82.764 57.9529 82.8092 58.1754C83.3723 60.9528 72.0097 78.2512 69.9189 81.536C70.2604 83.7387 69.5804 85.8658 67.362 86.7577C66.3984 87.1423 65.3214 87.1256 64.3699 86.7125C63.1022 86.1651 62.4966 85.2192 62.0288 83.9977C58.5295 82.8733 54.3082 81.3006 51.0543 79.6699C49.9598 79.0665 46.3913 77.376 46.6756 75.9995C48.0702 73.8883 61.379 78.7722 63.4018 79.6032C64.521 78.9125 65.3044 78.8713 66.5743 78.7555C68.1304 75.5678 70.799 71.7306 72.8486 68.7914C75.1945 65.4283 78.6432 60.2332 81.7417 57.6017Z" fill="#1C1D24"/>
  <path d="M80.9243 60.0449C80.8959 60.5797 79.9197 62.4078 79.6224 62.9914C76.5279 69.0481 72.9604 74.6506 69.2576 80.3343C68.9466 79.99 68.7555 79.8359 68.3957 79.5357L67.4803 79.0039C67.8822 78.4133 68.2483 77.805 68.6351 77.2015C71.7644 72.3177 75.066 67.4554 78.6255 62.8748C79.3683 61.919 80.163 60.9816 80.9243 60.0449Z" fill="#F5F5F5"/>
  <path d="M48.4974 76.6304C52.0476 76.7952 59.1566 79.3972 62.5939 80.4529C62.2956 81.073 62.1814 81.2918 62.0069 81.9619C61.9349 82.3259 61.9819 82.4338 61.7666 82.6497C58.9667 82.115 50.813 78.4985 48.4974 76.6304Z" fill="#F5F5F5"/>
  <path d="M65.5177 80.2077C66.9996 79.9624 68.3982 80.97 68.6347 82.4535C68.871 83.937 67.8552 85.3292 66.3703 85.5569C64.8981 85.7825 63.5199 84.7768 63.2855 83.3061C63.051 81.8354 64.0482 80.451 65.5177 80.2077Z" fill="#F5F5F5"/>
  <path d="M81.9614 69.8242C83.8845 70.3233 85.469 76.282 85.6662 78.0853C86.2166 83.1205 85.2139 87.7299 82.1017 91.7526C81.986 91.8341 82.0576 91.8066 81.8771 91.7978C81.9192 91.4848 82.8425 89.8875 83.0593 89.4823C85.7545 84.4304 85.9243 78.1305 83.6225 72.9045C83.2909 72.1507 81.9349 70.4783 81.9614 69.8242Z" fill="#1C1D24"/>
  <path d="M46.8162 85.5308C47.1198 85.7711 47.2955 86.716 47.376 87.1094C48.2849 91.5648 50.775 95.3324 54.5202 97.9187C55.0532 98.2866 56.1603 98.9626 56.4562 99.5002C55.2683 99.4433 51.9995 96.7285 51.1268 95.7827C48.7164 93.1729 46.7023 89.1384 46.8162 85.5308Z" fill="#1C1D24"/>
  <path d="M72.1677 107.483L72.6504 107.536C73.7336 108.205 74.4342 112.085 74.6294 113.368C74.6569 113.55 74.5244 113.97 74.4606 114.157C72.8388 114.206 72.8064 111.312 72.3659 110.113C72.1196 109.441 71.9617 108.174 72.1677 107.483Z" fill="#1C1D24"/>
  <path d="M40.4169 88.2465C40.935 88.2131 41.0586 88.1876 41.4276 88.5683C41.5873 89.2659 40.7961 89.5681 40.2332 89.7456C38.8375 90.1852 37.3844 90.5571 35.9725 90.9397C35.3683 90.9838 35.3039 91.0633 34.9358 90.5786C34.9181 89.7309 36.0941 89.4582 36.7786 89.2296C37.9637 88.8322 39.1797 88.4319 40.4169 88.2465Z" fill="#1C1D24"/>
  <path d="M57.1823 50.1587C58.5609 50.3884 59.2286 54.3646 59.4377 55.5766C59.5326 56.1268 59.478 56.422 59.1446 56.8529C58.1288 56.7265 57.6554 54.4437 57.4355 53.5799C57.2237 52.7477 56.6263 50.8515 57.1823 50.1587Z" fill="#1C1D24"/>
  <path d="M64.8969 61.9592C66.3869 61.7738 70.2819 62.0678 71.424 63.1107C71.0492 63.3645 68.1236 62.6327 67.2631 62.5481C65.8045 62.3343 63.7793 62.6422 62.3488 62.9551C61.8805 63.0575 61.2775 63.3114 60.8691 63.3347L60.8194 63.1924C61.3303 62.4392 63.9793 62.0267 64.8969 61.9592Z" fill="#1C1D24"/>
  <path d="M58.8716 108.473C59.122 108.578 59.0387 108.521 59.2168 108.73C59.4673 109.869 58.6244 113.243 57.6633 114.003C57.5383 113.883 57.3443 113.751 57.3536 113.623C57.4288 112.585 58.2831 109.203 58.8716 108.473Z" fill="#1C1D24"/>
  <path d="M44.2882 59.6255C45.2427 59.849 47.0018 61.7115 47.6783 62.4839C48.0893 62.9531 48.1757 63.0628 48.1251 63.6248C46.9222 63.613 45.5792 61.8285 44.8012 60.9896C44.4224 60.581 44.2208 60.1834 44.2882 59.6255Z" fill="#1C1D24"/>
  <path d="M73.9289 50.1885C74.3449 50.2648 74.2036 50.1591 74.4106 50.4506C74.5411 51.614 73.5698 54.3538 73.0841 55.52L72.8427 55.5394C71.9597 54.993 73.5237 50.9138 73.9289 50.1885Z" fill="#1C1D24"/>
  <path d="M46.808 101.136C47.0349 101.127 47.0197 101.133 47.2244 101.237L47.2674 101.493C46.9588 102.376 44.4289 104.642 43.615 105.203C43.3477 105.194 43.4613 105.246 43.255 105.079C43.103 104.185 46.0326 101.703 46.808 101.136Z" fill="#1C1D24"/>
  <path d="M88.7911 58.938L89.0178 59.1036C89.1728 60.0526 86.0773 62.6233 85.207 63.03C85.157 62.9978 85.003 62.8515 84.9529 62.8053C84.8833 61.9373 88.0278 59.4211 88.7911 58.938Z" fill="#1C1D24"/>
  <path d="M36.1 74.1806C37.1403 74.1524 40.0619 74.7525 41.0407 75.4128C41.2833 75.5756 41.2494 75.7483 41.2598 75.9857C40.2601 76.0878 37.3021 75.4559 36.3691 74.8339C36.1306 74.674 36.1305 74.4183 36.1 74.1806Z" fill="#1C1D24"/>
  <path d="M96.704 76.499C98.3788 76.6668 102.211 77.3026 103.87 77.6597C103.504 79.6544 103.856 80.1871 105.875 80.6179C106.979 80.8533 108.104 80.9927 109.215 81.1801C112.272 81.6893 115.335 82.1612 118.404 82.5958C120.811 82.9549 123.161 83.4769 125.588 83.7085C127.482 83.889 127.567 82.9814 127.88 81.4057C129.87 81.8924 132.455 82.1092 134.61 82.586C134.697 84.7475 133.994 87.3073 133.649 89.4834C132.605 96.0581 131.05 102.598 130.014 109.168C128.939 115.979 127.854 122.756 126.666 129.542C126.458 130.445 126.298 131.14 125.999 132.024C121.732 131.442 117.455 131.059 113.185 130.382C106.261 129.283 99.2903 128.374 92.4204 126.954C91.3597 126.734 89.5544 126.585 88.6263 126.218C88.5046 125.17 90.1863 116.2 90.4679 114.405C91.7973 105.517 93.1964 96.6409 94.6652 87.7753C95.2568 84.3119 95.8995 79.8594 96.704 76.499Z" fill="#F5F5F5"/>
  <path d="M105.494 88.0061C106.096 87.3634 108.039 84.9518 108.889 85.7593C109.344 86.915 107.082 88.216 106.343 89.1815C106.434 89.5033 106.549 89.9458 106.59 90.2725C106.749 91.598 106.373 92.9324 105.547 93.9812C104.699 95.0713 103.581 95.7129 102.21 95.8591C100.969 95.9945 99.727 95.6227 98.7654 94.8279C97.8078 94.0244 97.2123 92.8715 97.1093 91.6265C97.0131 90.3618 97.4517 89.154 98.2808 88.2023C99.1942 87.1701 100.484 86.5481 101.861 86.4755C103.393 86.4009 104.425 87.023 105.494 88.0061Z" fill="#BEEDC6"/>
  <path d="M105.494 88.0061C106.096 87.3634 108.039 84.9518 108.889 85.7593C109.344 86.915 107.082 88.216 106.343 89.1815C105.953 89.7368 101.418 94.6219 100.748 94.4404C100.27 94.3099 97.5174 89.8977 98.8321 89.3865C100.074 89.5573 100.059 91.3184 101.158 92.5115C102.258 91.2409 104.297 89.1099 105.494 88.0061Z" fill="#1C1D24"/>
  <path d="M106.741 116.483C110.251 116.289 114.413 117.39 117.909 117.867C119.166 118.037 123.414 118.55 124.162 119.353L124.137 119.539L123.736 119.831C122.835 120.34 115.883 118.904 114.404 118.69C113.124 118.505 107.491 117.706 106.754 117.101C106.602 116.742 106.639 116.936 106.741 116.483Z" fill="#1C1D24"/>
  <path d="M109.134 103.536C112.237 103.397 122.434 105.331 125.87 106.095C126.087 106.144 126.147 106.334 126.213 106.51C126.126 106.85 125.976 106.929 125.71 107.16C123.674 107.171 121.08 106.527 118.996 106.2C115.928 105.719 112.757 105.248 109.74 104.515C109.328 104.415 108.923 104.287 108.719 103.921C108.861 103.614 108.768 103.758 109.134 103.536Z" fill="#1C1D24"/>
  <path d="M110.948 90.287C113.164 90.1624 126.017 91.9265 127.95 92.6359C128.27 92.7536 128.371 92.8763 128.518 93.1775C128.506 93.5238 128.435 93.569 128.222 93.8397C127.647 93.8937 127.053 93.7877 126.484 93.6945C123.424 93.1971 120.216 92.8037 117.191 92.1738C116.004 91.9265 111.533 91.4301 110.849 90.811C110.781 90.4695 110.77 90.6412 110.948 90.287Z" fill="#1C1D24"/>
  <path d="M105.517 99.1909C106.058 99.1939 106.305 99.2988 106.415 99.8296C106.347 100.076 106.262 100.301 106.028 100.522C103.63 102.791 101.448 105.35 99.0392 107.565C98.9421 107.654 98.4741 107.641 98.3436 107.584C97.6371 107.274 97.0288 105.666 96.707 104.969C96.3538 104.254 95.7043 103.337 96.1949 102.6C97.1711 102.047 98.4289 105.014 98.8371 105.777C100.102 104.359 104.125 100.031 105.517 99.1909Z" fill="#1C1D24"/>
  <path d="M103.664 112.136C104.102 112.141 103.905 112.086 104.280 112.301C104.390 112.515 104.455 112.617 104.375 112.868C104.230 113.322 97.6813 119.960 96.967 120.391C96.814 120.484 96.6413 120.599 96.4647 120.528C95.6356 120.197 95.0518 118.526 94.6829 117.750C94.3758 117.006 93.6978 116.208 94.2434 115.496C95.4148 115.029 96.3783 117.828 96.7816 118.727C98.4485 116.942 101.656 113.414 103.664 112.136Z" fill="#1C1D24"/>
  <path d="M108.331 106.951C111.809 107.253 115.357 107.671 118.762 108.444C119.056 108.511 119.223 108.764 119.326 109.023C119.293 109.397 119.212 109.445 118.970 109.728C116.100 109.583 112.594 108.589 109.679 108.214C109.239 108.158 108.337 107.934 108.090 107.556C108.103 107.185 108.094 107.305 108.331 106.951Z" fill="#1C1D24"/>
  <path d="M106.246 119.920C108.774 119.774 114.033 120.893 116.692 121.457C117.028 121.529 117.203 121.673 117.347 121.958C117.317 122.227 117.159 122.328 116.960 122.525C115.661 122.667 107.916 121.338 106.340 120.686C106.111 120.592 106.060 120.403 106.027 120.186L106.246 119.920Z" fill="#1C1D24"/>
  <path d="M110.445 93.7319C113.175 93.6456 117.928 94.5394 120.693 95.0535C121.053 95.1202 121.345 95.290 121.527 95.6226C121.500 96.0464 121.531 95.8943 121.253 96.279C121.003 96.3103 120.751 96.3182 120.500 96.3005C119.953 96.2632 118.006 95.9738 117.519 95.8482C116.270 95.5235 110.925 94.978 110.273 94.2401C110.246 93.8967 110.215 94.0665 110.445 93.7319Z" fill="#1C1D24"/>
  <path d="M66.6881 39.0036C74.0681 38.7567 81.36 40.6744 87.6638 44.5201C97.5684 50.4914 103.69 60.1093 106.429 71.2023C105.714 71.8974 105.596 72.241 105.202 73.1364C104.029 73.087 102.606 72.8286 101.432 72.6421C99.4591 64.9285 96.1928 58.6723 90.1814 53.3263C83.5204 47.3608 74.7686 44.2757 65.8392 44.7456C56.2909 45.3566 47.3716 49.7185 41.027 56.88C33.7753 65.0597 30.4532 75.4189 31.1404 86.288C31.8037 95.9405 36.211 104.953 43.4228 111.403C55.5552 122.194 72.6759 122.983 85.6505 113.181C85.2884 115.596 84.9038 118.444 84.4241 120.808C79.4909 123.762 73.9268 125.5 68.1899 125.880C58.2503 126.505 47.9534 122.788 40.4985 116.226C31.9478 108.622 26.776 97.9263 26.1255 86.5019C25.312 74.3116 29.4244 62.3048 37.5407 53.1731C45.2357 44.5091 55.1465 39.6698 66.6881 39.0036Z" fill="#F5F5F5"/>
  <path d="M46.4433 40.2788C46.7289 40.8961 46.8465 41.1675 47.5292 41.3978C48.5759 41.7510 50.0952 41.4404 51.1444 41.2124C48.188 42.7239 46.4717 43.6261 43.711 45.6186C35.7904 51.4376 29.8899 59.59 26.837 68.9323C23.1787 80.2276 23.9175 93.5417 29.3755 104.156C30.8488 107.010 32.5996 109.711 34.6027 112.222C34.1858 112.200 32.4818 111.579 32.0034 111.425C30.0866 110.809 28.198 110.098 26.2486 109.577C25.1337 108.223 23.9745 106.262 23.1369 104.707C18.9701 96.8805 17.2257 87.9914 18.1256 79.171C19.2968 66.5808 25.43 54.9746 35.1715 46.9138C38.5686 44.1405 42.3698 41.903 46.4433 40.2788Z" fill="white"/>
  <path d="M23.4647 64.5084C24.0562 64.477 26.449 64.4245 26.8511 64.7962C26.6569 64.9925 26.5433 64.9429 26.1994 64.995C25.5469 64.9969 23.0688 65.0802 22.6933 64.7832C22.947 64.5416 23.0521 64.5942 23.4647 64.5084Z" fill="#1C1D24"/>
  <path d="M23.1707 62.8541C23.9273 62.7636 27.3628 62.7194 28.0925 62.8584L28.1337 63.0467C27.3958 63.1578 23.923 63.2086 23.2192 63.0551L23.1707 62.8541Z" fill="#1C1D24"/>
  <path d="M22.9533 66.6538C23.4137 66.6351 24.5991 66.5592 24.959 66.8319C24.7902 67.0173 24.7624 66.9651 24.4528 67.0226C24.0081 67.0285 22.5212 67.0816 22.1767 66.898C22.3748 66.7104 22.6677 66.7035 22.9533 66.6538Z" fill="#1C1D24"/>
  <path d="M95.1814 73.3202C96.9268 73.1683 98.7056 73.7388 100.445 74.0115C101.854 74.2324 103.251 74.4492 104.664 74.6574L104.128 76.6629C103.081 76.449 96.399 75.0469 95.9673 76.2381C95.0244 78.8361 94.5603 82.274 94.0521 85.0438C92.133 95.5057 90.6073 106.034 88.9659 116.541C88.5499 119.201 87.9563 121.835 87.5746 124.5C87.4716 125.203 87.3774 126.827 88.176 127.158C89.5948 127.748 91.2833 127.911 92.7933 128.209C97.6764 129.166 102.577 130.033 107.492 130.812C108.991 131.045 110.521 131.178 112.017 131.433C116.413 132.180 120.864 132.640 125.301 133.053C125.714 133.091 126.221 133.027 126.613 132.912C127.185 132.419 127.347 131.747 127.516 131.040C128.118 128.517 128.504 125.952 128.932 123.395L131.719 106.266C132.881 99.1418 134.598 92.0776 135.393 84.8878C135.717 81.961 135.624 81.7884 132.719 81.1918C131.223 80.8838 129.752 80.663 128.235 80.4432L128.090 80.4118C127.961 80.0959 128.053 78.5957 128.064 78.1572C130.195 78.531 136.079 79.2139 137.607 80.1234C138.552 81.5951 138.016 82.9334 137.804 84.5532C137.565 86.384 137.049 88.2433 136.782 90.0604C136.280 93.4698 135.619 96.8293 135.039 100.219L131.890 118.785C131.154 123.310 130.427 127.870 129.556 132.375C129.386 133.253 129.025 134.929 128.342 135.514C127.952 135.846 127.251 135.826 126.765 135.775C124.453 135.528 122.121 135.103 119.821 134.739L107.479 132.791C100.510 131.702 93.5056 130.821 86.6258 129.252C86.3413 129.219 85.317 128.768 85.2375 128.479C84.7558 126.732 85.4956 123.854 85.7742 122.137L86.8191 115.513L90.4071 94.243C91.1253 89.8612 91.8769 85.4863 92.6628 81.1173C93.0248 79.0314 93.3643 76.6492 93.9137 74.6025C94.0864 73.9596 94.6035 73.6082 95.1814 73.3202Z" fill="#F5F5F5"/>
  <path d="M59.4769 19.9009C59.9174 20.0929 61.603 26.8981 61.8713 27.8826C59.9058 31.6448 42.2904 36.5989 38.7964 34.8027C37.6603 33.3792 36.5732 28.4258 36.1265 26.5513C37.4467 27.0653 38.5148 27.0856 39.9157 26.9663C44.7466 26.5545 56.3413 23.5407 59.4769 19.9009Z" fill="#BEEDC6"/>
  <path d="M116.201 68.2344C116.520 68.2052 116.837 68.1858 117.157 68.1991C121.883 68.3938 120.510 72.7733 121.495 73.9365C122.463 75.0788 125.851 74.390 126.580 75.5331C127.182 76.4760 126.365 81.0834 126.149 82.2873C123.253 81.9821 119.722 81.3405 116.777 80.9009C113.303 80.2249 108.595 79.8874 105.230 78.9298C105.360 77.3747 106.208 74.4090 106.852 72.9232C107.370 71.7279 110.794 73.2310 112.071 72.7021C113.081 72.2837 112.929 71.2163 113.441 70.2789C114.112 69.0525 114.950 68.6268 116.201 68.2344Z" fill="white"/>
  <path d="M116.507 69.9168C117.645 69.6099 118.816 70.2782 119.130 71.4130C119.445 72.5479 118.785 73.7238 117.651 74.0460C116.508 74.3712 115.318 73.7032 115.001 72.5575C114.684 71.4118 115.360 70.2267 116.507 69.9168Z" fill="#1C1D24"/>
  <path d="M116.767 71.0268C117.295 70.8635 117.856 71.1548 118.027 71.6806C118.198 72.2065 117.914 72.7719 117.391 72.9498C117.046 73.0672 116.664 72.9897 116.393 72.7468C116.120 72.5041 116 72.1337 116.078 71.7776C116.155 71.4213 116.419 71.1345 116.767 71.0268Z" fill="#F5F5F5"/>
  <path d="M26.2486 109.577C28.198 110.098 30.0866 110.809 32.0034 111.425C32.4818 111.579 34.1858 112.200 34.6027 112.222C34.8061 112.415 34.7597 112.349 34.9066 112.586C35.9024 113.662 36.8887 114.748 37.865 115.843L38.0734 116.082C38.9471 116.813 40.3368 117.961 41.1059 118.764C41.3242 118.945 41.3223 118.928 41.4521 119.175C42.0059 119.351 45.2517 121.487 45.9069 121.955C45.9485 122.170 45.9899 122.282 45.9731 122.498C47.7872 122.694 49.9135 124.012 51.7961 124.739C55.7036 126.245 59.8274 127.113 64.0101 127.312L63.9557 127.410C49.3232 128.386 35.1556 121.662 26.4172 109.926L26.2486 109.577Z" fill="white"/>
  <path d="M37.5081 120.034C39.7921 120.157 43.0915 121.727 45.907 121.954C45.9486 122.169 45.99 122.282 45.9731 122.498C43.7775 122.339 39.467 121.019 37.5081 120.034Z" fill="#F5F5F5"/>
  <path d="M26.2486 109.577C28.198 110.098 30.0866 110.809 32.0034 111.425C32.4818 111.579 34.1858 112.200 34.6027 112.222C34.8061 112.415 34.7597 112.349 34.9066 112.586C32.6525 112.314 30.9505 111.660 28.8483 110.829C28.2657 110.598 26.9397 110.032 26.4172 109.926L26.2486 109.577Z" fill="#1C1D24"/>
  <path d="M30.1622 113.508C32.4651 113.899 35.6232 115.098 37.8650 115.843L38.0734 116.081C36.0305 115.816 31.9193 114.571 30.1622 113.508Z" fill="#F5F5F5"/>
  <path d="M34.376 116.974C36.6519 117.192 38.9703 118.399 41.1059 118.764C41.3242 118.944 41.3224 118.928 41.4521 119.175C39.0116 118.769 36.568 118.147 34.376 116.974Z" fill="#F5F5F5"/>
  <path d="M55.5948 18.4913C56.2854 18.3754 58.6462 18.3568 58.9391 19.0804C58.9137 19.1200 58.8882 19.1594 58.8628 19.1990C54.8722 22.6155 44.6851 25.0039 40.1272 25.6922C38.5952 25.8601 37.83 25.8365 36.3133 25.610C39.4176 21.7903 50.72 19.1165 55.5948 18.4913Z" fill="#BEEDC6"/>
  <path d="M79.6322 32.2939C81.4699 32.2999 84.6213 33.4554 85.8841 34.819C85.732 35.5378 84.0523 40.2929 83.6775 40.7546L83.4538 40.7212C81.3836 39.8581 79.0004 39.113 76.8526 38.4745C77.6582 36.6705 78.4607 33.5008 79.6322 32.2939Z" fill="white"/>
  <path d="M55.4958 33.3813C55.8533 33.812 56.491 36.7796 56.6561 37.4718C53.8934 39.2999 51.2354 40.1026 47.9106 40.1439C47.4448 38.7025 47.0774 37.3674 46.6857 35.9019C49.6446 35.3845 52.6765 34.3965 55.4958 33.3813Z" fill="white"/>
  <path d="M83.4057 50.1284C83.8541 50.2467 84.5164 50.6270 84.9206 50.8764C92.6716 55.6662 98.0276 63.6709 100.156 72.4388C99.4954 72.3032 98.7027 72.1911 98.0286 72.0781C97.5243 70.3404 97.1907 68.8235 96.5275 67.1091C93.6567 59.6844 89.7164 54.746 83.4057 50.1284Z" fill="white"/>
  <path d="M69.3694 118.524C75.8665 117.199 81.6935 113.809 86.3137 109.092C86.2048 109.793 86.0753 110.830 85.9026 111.492C81.0921 115.279 75.5222 118.013 69.3655 118.643L69.3694 118.524Z" fill="#F5F5F5"/>
  <path d="M58.8257 37.6302C60.3339 37.5299 63.3586 37.5142 64.8355 37.660C63.6372 37.8077 62.4401 37.9641 61.2441 38.1293C59.5282 38.4270 57.8267 38.8020 56.1448 39.2534C57.0712 38.7402 57.4016 38.2482 58.226 37.6807C58.4636 37.6607 58.6634 37.6438 58.8257 37.6302Z" fill="#F5F5F5"/>
  <path d="M69.3655 118.643C68.9623 118.860 67.8240 118.813 67.3568 118.759C67.6873 118.614 69.0074 118.503 69.3695 118.524L69.3655 118.643Z" fill="#F5F5F5"/>
  <path d="M82.0536 49.3389C82.6766 49.4348 82.8631 49.6287 83.3340 50.0146C82.8199 49.974 82.4157 49.6921 82.0536 49.3389Z" fill="#F5F5F5"/>
</svg>
